<svg width="107" height="20" viewBox="0 0 107 20" fill="none" xmlns="http://www.w3.org/2000/svg">
<g id="ancestry-logo 1" clip-path="url(#clip0_0_7455)">
<path id="Vector" d="M30.8922 8.47719C29.7455 8.61833 29.0221 8.95353 28.5458 9.42984C28.1577 9.81795 27.9636 10.2944 27.9636 10.7707C27.9636 11.6351 28.5811 12.2526 29.3574 12.2526C29.8337 12.2526 30.31 12.0585 30.557 11.7763C30.6452 11.688 30.7511 11.494 30.7511 11.2999L30.8922 8.47719ZM32.8505 13.5934C31.8978 13.5934 31.0334 12.976 30.7864 12.0232C30.31 12.8877 29.3927 13.5934 28.2106 13.5934C26.8698 13.5934 25.7231 12.5348 25.7231 11.2117C25.7231 9.34162 27.4873 8.00086 30.8393 7.96557V7.48924C30.8922 6.14844 30.116 5.33691 28.7752 5.33691C27.8225 5.33691 26.8169 5.95438 26.1465 6.76592C26.0936 6.81884 25.8113 6.51892 25.8113 6.48364C26.6758 4.75472 28.2459 3.80205 29.869 3.80205C31.739 3.80205 33.0799 5.14285 33.0269 7.38339L32.8858 11.1059C32.8858 11.9703 33.2739 12.3408 33.6973 12.3408C34.1737 12.3408 34.5088 11.9526 34.7029 11.441C34.7029 11.3882 34.9852 11.5292 34.9852 11.5822C35.0028 12.8701 34.0502 13.5934 32.8505 13.5934ZM44.7589 13.2582H42.2184C42.1655 13.2582 42.1655 12.7819 42.2184 12.7819C43.2769 12.6407 43.4181 12.5348 43.4181 10.4884V7.61274C43.4181 6.32486 42.6595 5.40747 41.5481 5.40747C40.7894 5.40747 40.0661 5.7956 39.7309 6.27194C39.4839 6.55421 39.3428 7.08347 39.3428 7.75387V10.4707C39.3428 12.5348 39.5897 12.6231 40.6306 12.7642C40.6306 12.7642 40.6835 13.2405 40.6306 13.2405H35.7791C35.7262 13.2405 35.7262 12.7642 35.7262 12.7642C36.8728 12.5701 37.014 12.5172 37.014 10.4707V6.97762C37.014 4.87821 36.7671 4.77236 35.5321 4.59595C35.4439 4.59595 35.4791 4.11961 35.5321 4.11961H39.1663V6.21901H39.2193C40.0308 4.68415 41.2834 3.78441 42.8006 3.78441C44.5295 3.78441 45.8526 5.12521 45.8526 7.33046V10.4354C45.8526 12.4995 46.0467 12.5878 47.1935 12.7289C47.2817 12.7289 47.2464 13.2053 47.1935 13.2053C46.4878 13.2582 45.4292 13.2582 44.7589 13.2582ZM52.4508 13.5934C49.5751 13.5934 47.7227 11.3529 47.7227 8.75947C47.7227 5.98966 49.5928 3.78441 52.6449 3.78441C54.0739 3.78441 54.7972 4.26074 55.2206 4.26074C55.4146 4.26074 55.6087 4.11961 55.697 3.87262C55.697 3.81969 56.2792 3.81969 56.2792 3.87262V7.31282C56.2792 7.36574 55.697 7.36574 55.697 7.31282C54.9383 5.74268 53.8798 4.40188 52.6449 4.40188C51.1101 4.40188 50.2102 6.02495 50.2102 8.26549C50.2102 10.6472 51.4452 12.235 53.1742 12.235C54.3208 12.235 55.6087 11.4234 56.138 10.506C56.1909 10.4178 56.5614 10.5942 56.5614 10.7001C55.9439 12.3408 54.3208 13.5934 52.4508 13.5934ZM64.0769 7.52452V6.85413C64.0769 5.37219 63.3536 4.50773 62.4538 4.50773C61.3071 4.50773 60.4427 5.74268 60.2486 7.52452H64.0769ZM60.2486 8.61833C60.2486 10.6825 61.3953 12.2526 63.3536 12.2526C64.5003 12.2526 65.6471 11.494 66.2645 10.5237C66.2645 10.4707 66.6526 10.6119 66.6526 10.7178C66.1234 12.3408 64.4121 13.5934 62.4891 13.5934C59.4724 13.5934 57.7081 11.3882 57.7081 8.75947C57.7081 6.1308 59.5782 3.78441 62.7362 3.78441C65.1178 3.78441 66.7056 5.35455 66.8467 7.50688V8.17728H60.3368C60.2486 8.28313 60.2486 8.53012 60.2486 8.61833ZM71.6277 13.5934C70.1458 13.5934 68.8579 13.2053 68.4169 12.923C68.3639 12.8701 68.2228 11.6351 68.2228 10.3825C68.2228 10.3296 68.805 10.2944 68.805 10.3825C69.5636 12.0585 70.6751 13.0112 71.857 13.0112C72.8626 13.0112 73.586 12.4819 73.586 11.6704C73.586 10.7178 72.4392 10.2767 71.2925 9.7651C69.8988 9.23584 68.3287 8.53012 68.3287 6.74827C68.3287 5.35455 69.5283 3.92554 71.7688 3.92554C72.7215 3.92554 73.3389 4.31367 73.7801 4.31367C73.9741 4.31367 74.1682 4.17254 74.3093 3.92554C74.3093 3.87262 74.8915 3.87262 74.8915 3.92554V7.08347C74.8915 7.1364 74.3093 7.1364 74.3093 7.08347C73.5507 5.65447 72.6333 4.64887 71.5395 4.64887C70.5339 4.64887 70.0576 5.31927 70.0576 5.84853C70.0576 6.8012 71.1514 7.18932 72.2981 7.66565C73.6918 8.24784 75.3149 8.95353 75.3149 10.7707C75.3149 12.3055 73.8683 13.5934 71.6277 13.5934ZM76.3558 5.12521C76.2146 5.12521 76.1617 4.73708 76.3029 4.64887C77.3084 3.74913 78.9845 2.21427 79.8842 1.26159C79.9371 1.20867 80.2723 1.26159 80.2723 1.3498V4.17254H83.5184C83.6067 4.17254 83.6067 5.07228 83.5184 5.07228H80.2723V10.3825C80.2723 11.5822 80.9956 12.1114 81.7543 12.1114C82.3365 12.1114 82.9539 11.6351 83.2362 11.0529C83.2362 11 83.6243 11.1941 83.6243 11.247C83.2362 12.5348 82.0012 13.5404 80.6075 13.5404C79.1256 13.5404 77.9259 12.5878 77.9259 10.7178V5.12521H76.3558ZM91.4752 6.66007C91.1929 6.66007 90.4694 5.7956 89.9401 5.7956C89.693 5.7956 89.4107 5.93674 89.1813 6.18373C88.7934 6.57185 88.4582 7.47159 88.4582 8.24785V10.5413C88.4582 12.6407 88.7934 12.6936 89.8871 12.8348C89.8871 12.8348 89.9401 13.3111 89.8871 13.3111H84.824C84.771 13.3111 84.771 12.8348 84.824 12.8348C85.9707 12.6407 86.1118 12.5878 86.1118 10.5413V7.04818C86.1118 4.98406 85.8649 4.84293 84.6299 4.66651C84.5417 4.66651 84.577 4.19017 84.6299 4.19017H88.3171V6.57185H88.4053C88.4935 6.28958 88.6876 5.95438 88.8284 5.61918C89.4989 4.52537 90.3106 3.85498 91.1752 3.85498C91.9869 3.85498 92.6574 4.47245 92.6574 5.14284C92.7103 5.90145 91.7046 6.66007 91.4752 6.66007ZM101.372 7.895L98.25 15.8869C97.156 18.7096 96.1502 19.2742 94.8092 19.2742C94.0505 19.2742 93.1859 18.886 93.1859 18.6567C93.1338 18.2686 93.6623 16.8924 93.9446 16.8924C94.0328 16.8924 95.1797 17.4217 95.762 17.4217C96.5737 17.4217 97.103 16.8924 97.5265 15.7457L98.1088 14.2108C97.9147 13.4523 95.6209 8.42426 95.3385 7.75387C94.7563 6.41307 94.3857 5.37219 93.9975 4.98406C93.7505 4.73708 93.5211 4.64887 92.8515 4.56066C92.7985 4.56066 92.7985 4.08432 92.8515 4.08432C93.4682 4.08432 94.7563 4.13725 95.4797 4.13725C96.2031 4.13725 97.4383 4.08432 98.0559 4.08432C98.1088 4.08432 98.1088 4.56066 98.0559 4.56066C96.6266 4.75472 96.7678 5.23105 97.5265 7.13639L99.2019 11.1941L100.543 7.70094C101.019 6.50129 101.266 5.7956 101.266 5.35455C101.266 4.82529 100.931 4.63123 99.9254 4.59595C99.8724 4.59595 99.8724 4.06668 99.9254 4.06668C100.596 4.06668 101.46 4.11961 102.025 4.11961C102.449 4.11961 102.89 4.06668 103.701 4.06668C103.753 4.06668 103.789 4.59595 103.701 4.59595C103.172 4.64887 102.943 4.79 102.643 5.07228C102.272 5.4604 101.99 6.23666 101.372 7.895Z" fill="#9CA0AC"/>
<path id="Vector_2" d="M14.8736 3.5549C13.1975 1.73777 11.5215 2.02004 11.2393 2.07296C11.3805 2.12589 11.5215 5.28382 13.3034 6.94217C14.5031 8.03598 16.9377 7.66549 16.9377 7.66549C16.9377 7.66549 16.5143 5.31911 14.8736 3.5549ZM16.8847 9.71194C16.3555 9.71194 14.2031 9.90604 12.7742 11.6703C11.2922 13.5403 11.3452 15.0222 11.0099 15.3575C11.2922 15.4457 14.309 15.7456 15.5969 13.7873C16.8318 11.9701 16.8847 10.0119 16.8847 9.71194ZM3.79435 8.4241C4.12955 8.47703 5.27628 9.95897 7.3404 10.1531C9.58094 10.4 10.3572 9.25326 10.3924 9.25326C10.3924 9.11214 8.57535 7.15388 6.56415 7.15388C5.17043 7.18916 3.79435 8.4241 3.79435 8.4241ZM11.9627 9.42971C11.9097 9.48264 10.0573 11.9701 5.64676 11.2997C2.10071 10.7175 0.812843 8.7593 0.583496 8.72402C0.865769 8.33589 3.54736 6.18356 6.65236 6.23649C9.70446 6.3247 11.9627 8.05362 11.9627 8.05362H13.9209C12.3508 7.57728 10.4277 6.71283 9.5633 4.80749C8.8047 3.04328 8.94583 1.98476 8.61063 0.502823C8.61063 0.502823 12.1567 0.220552 14.8736 1.98476C17.3611 3.60782 18.7372 7.91249 18.7901 8.05362H20.325L19.9897 0.396973L21.8951 0.449897C21.5599 2.46109 21.9833 16.8041 21.8951 16.8041C21.701 16.857 20.0779 16.9452 19.9368 16.5571C19.9368 16.5571 20.325 9.53558 20.3603 9.39442H18.8783C18.8783 9.48264 18.7372 13.4521 15.7203 15.5691C12.7036 17.6685 8.36364 17.051 8.36364 17.051C8.8929 16.2395 8.36364 15.3751 9.89846 13.0287C11.6627 10.3471 14.0091 9.39442 13.9562 9.39442C13.8327 9.42971 12.0155 9.42971 11.9627 9.42971Z" fill="#9CA0AC"/>
<path id="Vector_3" d="M105.571 4.96633C105.712 4.96633 105.8 4.9134 105.8 4.78991C105.8 4.68406 105.747 4.61349 105.571 4.61349H105.43V4.96633H105.571ZM105.289 4.48999H105.606C105.783 4.48999 105.959 4.56056 105.959 4.78991C105.959 4.9134 105.889 5.01925 105.783 5.05454L106.012 5.46031H105.836L105.659 5.10747H105.447V5.46031H105.306V4.48999H105.289ZM106.294 4.98397C106.294 4.54292 105.977 4.20773 105.589 4.20773C105.2 4.20773 104.883 4.54292 104.883 4.98397C104.883 5.42503 105.2 5.74258 105.589 5.74258C105.977 5.74258 106.294 5.42503 106.294 4.98397ZM104.759 4.98397C104.759 4.43707 105.147 4.08423 105.606 4.08423C106.065 4.08423 106.453 4.43707 106.453 4.98397C106.453 5.51323 106.083 5.88372 105.606 5.88372C105.147 5.86607 104.759 5.51323 104.759 4.98397Z" fill="#9CA0AC"/>
</g>
<defs>
<clipPath id="clip0_0_7455">
<rect width="105.87" height="19.4095" fill="white" transform="translate(0.583496 0.396973)"/>
</clipPath>
</defs>
</svg>
