<svg width="121" height="47" viewBox="0 0 121 47" fill="none" xmlns="http://www.w3.org/2000/svg">
<g id="watr_logo" clip-path="url(#clip0_224_1876)">
<path id="Vector" d="M43.8498 7.26968H29.1086L32.7592 0.741211H29.4945L25.8396 7.24368H0.146484L12.993 30.1929L7.8466 39.3746H11.0983L14.6232 33.0888L21.9982 46.2585L43.8498 7.26968ZM4.99807 10.1134H24.2483L14.6232 27.2843L4.99807 10.1134ZM27.5044 10.1134H38.9982L21.9982 40.4582L16.2534 30.1929L27.5044 10.1134Z" fill="#042716"/>
<path id="Vector_2" d="M53.4273 34.5881H56.6359L61.1417 19.7396L65.6475 34.5881H68.8562L74.6931 15.8823H71.621L67.3883 31.6185L62.8484 15.8823H59.6739L55.0316 31.5843L50.7306 15.8823H47.5562L53.4273 34.5881Z" fill="#042716"/>
<path id="Vector_3" d="M76.0381 25.1673C76.0381 30.9702 79.8952 34.8957 84.8789 34.8957C88.3265 34.8957 90.7501 33.1207 91.8766 31.1068V34.5884H95.0168V15.8826H91.8766V19.2961C90.7842 17.3505 88.3948 15.5754 84.913 15.5754C79.8952 15.5754 76.0381 19.3302 76.0381 25.1673ZM91.8766 25.2014C91.8766 29.6048 88.941 32.165 85.5275 32.165C82.1139 32.165 79.2126 29.5706 79.2126 25.1673C79.2126 20.7639 82.1139 18.2721 85.5275 18.2721C88.941 18.2721 91.8766 20.8663 91.8766 25.2014Z" fill="#042716"/>
<path id="Vector_4" d="M98.7197 29.4673C98.7197 33.2221 100.597 34.5875 103.908 34.5875H106.707V31.9592H104.42C102.509 31.9592 101.826 31.3106 101.826 29.4673V18.4418H106.707V15.8817H101.826V11.1711H98.7197V15.8817V18.4418V29.4673Z" fill="#042716"/>
<path id="Vector_5" d="M113.577 24.416C113.577 20.0809 113.577 18.7496 113.577 18.7496H119.619V15.9127C117.594 15.9127 114.878 15.8823 114.878 15.9127L113.577 17.8091V15.8823H110.471V25.2353V34.5881H113.577V24.416Z" fill="#042716"/>
</g>
<defs>
<clipPath id="clip0_224_1876">
<rect width="120" height="46.8966" fill="white" transform="translate(0.146484 0.0517578)"/>
</clipPath>
</defs>
</svg>
