<svg width="80" height="80" viewBox="0 0 80 80" fill="none" xmlns="http://www.w3.org/2000/svg">
<g id="competence" clip-path="url(#clip0_1005_21471)">
<g id="competence_2">
<g id="Group">
<path id="Vector" d="M68.6961 42.9375H66.6523V49.925H68.6961V42.9375Z" fill="white"/>
</g>
<g id="Group_2">
<path id="Vector_2" d="M14.1375 42.9124H12.0938V48.8786H14.1375V42.9124Z" fill="white"/>
</g>
<g id="Group_3">
<path id="Vector_3" d="M49.2469 43.2549H47.2031V50.0886H49.2469V43.2549Z" fill="white"/>
</g>
<g id="Group_4">
<path id="Vector_4" d="M32.7781 43.2549H30.7344V50.0886H32.7781V43.2549Z" fill="white"/>
</g>
<g id="Group_5">
<path id="Vector_5" d="M55.9982 43.6112L55.9882 49.2525H53.9445L53.9545 43.6112C53.9545 37.6637 50.9395 34.6487 44.992 34.6487H35.0082C29.0607 34.6487 26.0457 37.6637 26.0457 43.6112V49.2525H24.002V43.6112C24.002 39.8612 25.157 36.9687 27.3032 35.0987C27.8445 34.6187 28.4482 34.21 29.112 33.8725C30.727 33.035 32.7095 32.605 35.0082 32.605H44.992C47.557 32.605 49.7232 33.1462 51.4307 34.1687C52.0445 34.5362 52.5957 34.9662 53.0857 35.4562C54.987 37.3362 55.9982 40.0962 55.9982 43.6112Z" fill="white"/>
</g>
<g id="Group_6">
<path id="Vector_6" d="M40.0001 32.2163C37.9314 32.2163 35.9201 31.3838 34.4826 29.9313C33.0689 28.5038 32.3026 26.5851 32.3226 24.5288V23.7688C32.3651 19.4588 35.7376 16.0913 40.0001 16.0913C42.0689 16.0913 44.0801 16.9238 45.5176 18.3763C46.9314 19.8038 47.6976 21.7226 47.6776 23.7788V24.5388C47.6351 28.8488 44.2626 32.2163 40.0001 32.2163ZM40.0001 18.1351C36.8726 18.1351 34.3976 20.6151 34.3664 23.7788V24.5388C34.3514 26.0563 34.9089 27.4563 35.9351 28.4938C36.9914 29.5613 38.4739 30.1738 40.0001 30.1738C43.1276 30.1738 45.6026 27.6938 45.6339 24.5301V23.7701C45.6489 22.2526 45.0914 20.8526 44.0651 19.8151C43.0089 18.7476 41.5276 18.1351 40.0001 18.1351Z" fill="white"/>
</g>
<g id="Group_7">
<path id="Vector_7" d="M75.5166 41.1887L75.4241 44.2037V49.2524H73.3804V44.1737L73.4829 41.1587C73.4729 36.4174 71.0604 33.9949 66.2891 33.9949H58.0729C56.5504 33.9949 54.5579 34.2712 53.0854 35.4562C52.8304 35.6499 52.5841 35.8849 52.3704 36.1412L50.8066 34.8224C51.0004 34.5874 51.2054 34.3724 51.4304 34.1687C53.0241 32.7174 55.2929 31.9512 58.0729 31.9512H66.2891C72.1554 31.9512 75.5166 35.3237 75.5166 41.1887Z" fill="white"/>
</g>
<g id="Group_8">
<path id="Vector_8" d="M62.1768 31.2924C60.4268 31.2924 58.7243 30.5874 57.5081 29.3586C56.3106 28.1486 55.6606 26.5249 55.6781 24.7836V24.1599C55.7143 20.5111 58.5693 17.6611 62.1768 17.6611C63.9268 17.6611 65.6293 18.3661 66.8456 19.5949C68.0431 20.8049 68.6931 22.4286 68.6756 24.1699V24.7936C68.6393 28.4424 65.7843 31.2924 62.1768 31.2924ZM62.1768 19.7049C59.7031 19.7049 57.7468 21.6661 57.7218 24.1699V24.7936C57.7068 26.3311 58.3868 27.3411 58.9606 27.9211C59.7968 28.7649 60.9693 29.2499 62.1781 29.2499C64.6518 29.2499 66.6081 27.2886 66.6331 24.7849V24.1611C66.6481 22.6236 65.9681 21.6136 65.3943 21.0349C64.5568 20.1886 63.3843 19.7049 62.1768 19.7049Z" fill="white"/>
</g>
<g id="Group_9">
<path id="Vector_9" d="M30.0813 34.8224L28.5176 36.1412C28.1601 35.7124 27.7413 35.3749 27.3013 35.0987C25.8913 34.2099 24.1638 33.9949 22.8151 33.9949H14.6001C9.82758 33.9949 7.40633 36.4174 7.40633 41.1899V49.2524H5.36133V41.1899C5.36133 35.3237 8.73383 31.9512 14.6001 31.9512H22.8163C25.3913 31.9512 27.5376 32.6049 29.1113 33.8724C29.4688 34.1587 29.7851 34.4749 30.0813 34.8224Z" fill="white"/>
</g>
<g id="Group_10">
<path id="Vector_10" d="M18.7081 31.2924C15.0993 31.2924 12.2456 28.4424 12.2093 24.8036V24.1599C12.1918 22.4299 12.8418 20.8049 14.0393 19.5949C15.2568 18.3661 16.9581 17.6611 18.7093 17.6611C22.3181 17.6611 25.1718 20.5111 25.2081 24.1499V24.7936C25.2256 26.5249 24.5756 28.1499 23.3781 29.3586C22.1593 30.5874 20.4581 31.2924 18.7081 31.2924ZM18.7081 19.7049C17.4993 19.7049 16.3268 20.1886 15.4906 21.0336C14.9168 21.6124 14.2368 22.6236 14.2518 24.1499V24.7936C14.2768 27.2874 16.2343 29.2486 18.7068 29.2486C19.9143 29.2486 21.0868 28.7649 21.9231 27.9199C22.4968 27.3411 23.1768 26.3299 23.1618 24.8024V24.1586C23.1381 21.6661 21.1818 19.7049 18.7081 19.7049Z" fill="white"/>
</g>
<g id="Group_11">
<path id="Vector_11" d="M78.9775 75.4175H1.0225C0.4575 75.4175 0 74.96 0 74.3963V49.2513C0 48.6875 0.4575 48.2288 1.0225 48.2288H78.9787C79.5425 48.2288 80.0013 48.6863 80.0013 49.2513V74.3963C80 74.96 79.5425 75.4175 78.9775 75.4175ZM2.04375 73.3738H77.9563V50.2725H2.04375V73.3738Z" fill="white"/>
</g>
<g id="Group_12">
<path id="Vector_12" d="M44.7609 69.3989C44.5984 69.3989 44.4347 69.3601 44.2859 69.2814L39.9996 67.0289L35.7134 69.2826C35.3696 69.4639 34.9521 69.4339 34.6371 69.2051C34.3234 68.9764 34.1646 68.5889 34.2309 68.2051L35.0496 63.4326L31.5821 60.0526C31.3034 59.7801 31.2034 59.3751 31.3234 59.0051C31.4434 58.6351 31.7634 58.3651 32.1484 58.3101L36.9409 57.6139L39.0834 53.2726C39.4284 52.5751 40.5709 52.5751 40.9172 53.2726L43.0597 57.6139L47.8522 58.3101C48.2372 58.3664 48.5572 58.6364 48.6772 59.0051C48.7972 59.3751 48.6971 59.7814 48.4184 60.0526L44.9509 63.4326L45.7697 68.2051C45.8347 68.5889 45.6771 68.9764 45.3634 69.2051C45.1834 69.3326 44.9721 69.3989 44.7609 69.3989ZM39.9996 64.8514C40.1634 64.8514 40.3259 64.8901 40.4747 64.9689L43.4034 66.5089L42.8447 63.2476C42.7884 62.9164 42.8984 62.5776 43.1384 62.3426L45.5084 60.0339L42.2334 59.5576C41.9009 59.5089 41.6134 59.3001 41.4634 58.9989L39.9996 56.0326L38.5359 58.9989C38.3871 59.3014 38.0996 59.5101 37.7659 59.5576L34.4909 60.0339L36.8609 62.3426C37.1009 62.5776 37.2109 62.9164 37.1546 63.2476L36.5959 66.5089L39.5246 64.9689C39.6734 64.8901 39.8359 64.8514 39.9996 64.8514Z" fill="white"/>
</g>
<g id="Group_13">
<path id="Vector_13" d="M16.215 69.3986C16.0037 69.3986 15.7925 69.3324 15.6137 69.2036C15.3 68.9749 15.1412 68.5874 15.2075 68.2036L16.0262 63.4311L12.5587 60.0511C12.28 59.7799 12.18 59.3749 12.3 59.0049C12.42 58.6349 12.74 58.3649 13.125 58.3099L17.9162 57.6136L20.0587 53.2724C20.4025 52.5749 21.5475 52.5736 21.8912 53.2724L24.035 57.6149L28.8262 58.3111C29.2112 58.3674 29.5312 58.6374 29.6512 59.0061C29.7712 59.3761 29.6712 59.7824 29.3925 60.0536L25.925 63.4336L26.7437 68.2061C26.8087 68.5899 26.6525 68.9774 26.3375 69.2061C26.0225 69.4349 25.6062 69.4649 25.2612 69.2836L20.975 67.0299L16.6887 69.2836C16.54 69.3599 16.3775 69.3986 16.215 69.3986ZM20.9762 64.8511C21.14 64.8511 21.3025 64.8899 21.4512 64.9686L24.38 66.5086L23.82 63.2474C23.7625 62.9161 23.8737 62.5774 24.1137 62.3424L26.4837 60.0336L23.21 59.5574C22.8775 59.5086 22.59 59.2999 22.4412 58.9986L20.9762 56.0311L19.5125 58.9986C19.3637 59.3011 19.0762 59.5099 18.7425 59.5574L15.4687 60.0336L17.8387 62.3424C18.0787 62.5774 18.19 62.9161 18.1325 63.2474L17.5725 66.5086L20.5012 64.9686C20.6487 64.8899 20.8125 64.8511 20.9762 64.8511Z" fill="white"/>
</g>
<g id="Group_14">
<path id="Vector_14" d="M63.7843 69.3987C63.6218 69.3987 63.4581 69.3599 63.3093 69.2812L59.0231 67.0274L54.7368 69.2812C54.3931 69.4624 53.9756 69.4324 53.6606 69.2037C53.3468 68.9749 53.1881 68.5874 53.2543 68.2037L54.0731 63.4312L50.6056 60.0512C50.3268 59.7787 50.2268 59.3737 50.3468 59.0037C50.4668 58.6337 50.7868 58.3637 51.1718 58.3087L55.9643 57.6124L58.1068 53.2712C58.4518 52.5737 59.5943 52.5737 59.9406 53.2712L62.0831 57.6124L66.8743 58.3087C67.2593 58.3649 67.5793 58.6349 67.6993 59.0037C67.8193 59.3737 67.7193 59.7799 67.4406 60.0512L63.9731 63.4312L64.7918 68.2037C64.8568 68.5874 64.6993 68.9749 64.3856 69.2037C64.2068 69.3324 63.9968 69.3987 63.7843 69.3987ZM59.0231 64.8512C59.1868 64.8512 59.3493 64.8899 59.4981 64.9687L62.4268 66.5087L61.8681 63.2474C61.8118 62.9162 61.9218 62.5774 62.1618 62.3437L64.5318 60.0337L61.2568 59.5574C60.9243 59.5087 60.6368 59.2999 60.4868 58.9987L59.0231 56.0324L57.5593 58.9987C57.4106 59.3012 57.1231 59.5099 56.7893 59.5574L53.5143 60.0337L55.8843 62.3424C56.1243 62.5774 56.2343 62.9162 56.1781 63.2474L55.6193 66.5087L58.5481 64.9687C58.6968 64.8899 58.8606 64.8512 59.0231 64.8512Z" fill="white"/>
</g>
<g id="Group_15">
<path id="Vector_15" d="M29.5948 17.4462C29.2661 17.4462 28.9536 17.2875 28.7611 17.0137L26.8623 14.33L23.5761 14.3725C23.1723 14.3775 22.8286 14.1612 22.6523 13.815C22.4761 13.4687 22.5111 13.0512 22.7436 12.74L24.7098 10.1062L23.6536 6.99371C23.5286 6.62496 23.6236 6.21746 23.8986 5.94246C24.1736 5.66621 24.5798 5.57246 24.9498 5.69746L28.0623 6.75371L30.6961 4.78746C31.0086 4.55371 31.4236 4.51871 31.7711 4.69621C32.1173 4.87246 32.3336 5.23121 32.3286 5.61996L32.2873 8.90496L34.9711 10.8037C35.2886 11.0287 35.4511 11.4137 35.3911 11.7975C35.3298 12.1812 35.0561 12.4975 34.6848 12.6137L31.5461 13.5887L30.5711 16.7275C30.4548 17.0987 30.1386 17.3725 29.7548 17.4337C29.7011 17.4425 29.6473 17.4462 29.5948 17.4462ZM27.3861 12.28C27.7173 12.28 28.0286 12.4412 28.2198 12.7125L29.2323 14.1437L29.7523 12.4687C29.8523 12.1475 30.1036 11.8962 30.4248 11.7962L32.0998 11.2762L30.6686 10.2637C30.3936 10.07 30.2323 9.75246 30.2361 9.41621L30.2586 7.66246L28.8536 8.71121C28.5848 8.91371 28.2336 8.96871 27.9136 8.85996L26.2523 8.29621L26.8161 9.95746C26.9236 10.2762 26.8686 10.6275 26.6673 10.8975L25.6186 12.3025L27.3723 12.28C27.3773 12.28 27.3823 12.28 27.3861 12.28Z" fill="white"/>
</g>
<g id="Group_16">
<path id="Vector_16" d="M53.1632 17.4462C52.8344 17.4462 52.5219 17.2875 52.3294 17.0137L50.4307 14.33L47.1444 14.3725C46.7682 14.3775 46.3969 14.1612 46.2207 13.815C46.0444 13.4687 46.0794 13.0512 46.3119 12.74L48.2782 10.1062L47.2219 6.99371C47.0969 6.62496 47.1919 6.21746 47.4669 5.94246C47.7419 5.66621 48.1482 5.57246 48.5182 5.69746L51.6307 6.75371L54.2644 4.78746C54.5769 4.55371 54.9932 4.51871 55.3394 4.69621C55.6857 4.87246 55.9019 5.23121 55.8969 5.61996L55.8544 8.90621L58.5382 10.805C58.8557 11.03 59.0182 11.415 58.9582 11.7987C58.8969 12.1825 58.6232 12.4987 58.2519 12.615L55.1132 13.59L54.1382 16.7287C54.0219 17.1 53.7057 17.3737 53.3219 17.435C53.2694 17.4425 53.2157 17.4462 53.1632 17.4462ZM50.9544 12.28C51.2857 12.28 51.5969 12.4412 51.7882 12.7125L52.8007 14.1437L53.3207 12.4687C53.4207 12.1475 53.6719 11.8962 53.9932 11.7962L55.6682 11.2762L54.2369 10.2637C53.9619 10.07 53.8007 9.75246 53.8044 9.41621L53.8269 7.66246L52.4219 8.71121C52.1519 8.91371 51.8019 8.96871 51.4819 8.85996L49.8207 8.29621L50.3844 9.95746C50.4919 10.2762 50.4369 10.6275 50.2357 10.8975L49.1882 12.3025L50.9419 12.28C50.9469 12.28 50.9507 12.28 50.9544 12.28Z" fill="white"/>
</g>
</g>
</g>
<defs>
<clipPath id="clip0_1005_21471">
<rect width="80" height="80" fill="white"/>
</clipPath>
</defs>
</svg>
