<svg width="121" height="43" viewBox="0 0 121 43" fill="none" xmlns="http://www.w3.org/2000/svg">
<g id="Group">
<path id="Vector" fill-rule="evenodd" clip-rule="evenodd" d="M13.2621 15.9108C13.8479 18.1 13.913 20.0952 13.913 20.0952C15.7367 17.5205 17.6581 15.2036 20.1001 13.2397C22.7699 11.1156 24.6262 9.82884 28.0458 8.31555C31.0749 6.96372 32.5394 6.57695 34.0376 6.09505C35.5612 5.61413 37.1038 5.19531 38.6614 4.83961C40.2573 4.48538 41.7881 4.19624 41.7881 4.58176C41.7881 4.83961 39.9982 5.48298 39.7366 5.6119C38.4987 6.15889 37.3271 6.57695 34.7211 7.76856C31.5956 9.21676 29.3163 10.8577 26.6777 13.0144C24.3008 14.9457 22.0214 17.5855 20.0025 20.2567C19.4818 20.9326 18.0811 22.541 16.9421 24.376C15.8994 26.0182 14.9557 27.7555 14.629 28.3025C14.0432 29.3652 12.9041 31.7784 12.9041 31.7784C12.9041 31.7784 13.9455 32.1327 15.8343 32.0363C17.9835 31.9074 19.6445 31.6821 22.3807 30.2989C25.441 28.7531 27.46 26.8868 29.6743 24.6013C31.7909 22.3808 33.3217 20.5783 35.2105 17.7783C36.4146 15.9433 37.3922 14.5915 38.9881 11.4373C39.9969 9.44207 40.42 7.25286 40.7129 7.18903C41.0383 7.09265 41.1372 9.18422 40.8443 11.0192C40.1596 15.5253 39.704 16.812 38.3359 19.7097C37.3596 21.8338 35.8939 24.0543 33.8098 26.1458C31.6607 28.335 29.8695 29.8483 27.0369 31.6821C24.9842 33.0013 23.5522 33.6772 21.3042 34.2893C18.7983 34.9978 15.8669 34.8689 14.7591 34.7725C13.7903 34.7085 12.8303 34.5466 11.894 34.2893C11.4384 35.0616 10.6561 37.6363 10.3958 38.699C10.1354 39.7605 9.64725 40.9195 9.3869 41.3701C8.99637 42.0786 8.44188 42.593 7.95372 42.4003C7.00995 42.0786 6.52054 41.2087 6.32652 40.0508C6.03238 38.2484 6.26018 36.3496 6.48924 35.2869C6.78214 33.7749 7.36793 31.8748 7.36793 31.8748C6.84723 31.3616 5.25132 29.8158 3.42761 26.5001C1.96314 23.8615 0.822852 20.3205 0.854145 16.812C0.886688 13.0795 1.70029 9.47461 3.39382 6.09505C4.20742 4.45284 4.89209 3.48779 5.47788 2.55403C6.09747 1.58898 6.84723 0.558838 6.91231 0.558838C7.00995 0.558838 8.73477 3.97094 10.4608 7.96132C12.1544 12.0819 12.6763 13.6265 13.2621 15.9108ZM17.7231 5.77212C16.877 6.38545 16.7781 6.61075 16.2249 7.18903C15.6391 7.8011 15.5415 8.283 15.6391 9.08784C15.6716 9.2806 15.8018 9.73121 15.8994 9.92522C16.3225 10.6011 16.9095 10.9228 17.6255 10.9228C18.0486 10.9228 18.8309 10.536 19.6119 9.5059C20.393 8.47702 20.5557 8.09024 20.5557 7.60709C20.5557 7.22157 20.4581 6.77097 19.9699 6.25527C19.4492 5.64445 18.3427 5.3528 17.7231 5.77212ZM6.81468 1.91066C6.81468 1.91066 6.39036 2.87571 5.9022 4.03478C5.15369 5.70828 4.17612 8.02641 3.59033 10.0541C2.80928 12.8542 2.25478 16.9735 3.03709 20.0301C3.36253 21.3193 3.72051 22.2518 4.17612 23.3471C4.98972 25.2446 6.22889 27.1447 8.47442 29.2363C8.47442 29.2363 9.22418 28.2387 9.51708 26.4688C9.6798 25.4386 9.6798 25.1808 9.74488 24.3434C9.84252 23.0567 9.84251 21.6723 9.87506 20.0952C9.94015 18.0362 9.74488 15.7506 9.22418 12.6602C8.93129 11.0192 8.41058 8.0577 8.01881 6.38419C7.59574 4.71069 6.81468 1.91066 6.81468 1.91066ZM76.4686 38.7629C74.874 40.2761 72.7561 41.1448 70.5744 41.1448C68.6856 41.1448 66.7968 40.4689 65.2998 39.3098C63.3459 37.7653 62.2707 35.5773 62.2707 33.099C62.2707 30.9098 63.1181 28.9146 64.7128 27.4013C66.289 25.8852 68.3874 25.0325 70.5744 25.0193C72.7236 25.0193 74.9053 25.8892 76.4699 27.4013C78.0645 28.9146 78.8794 30.9423 78.8794 33.099C78.8834 34.1573 78.6717 35.2054 78.2572 36.1792C77.8427 37.153 77.2341 38.0321 76.4686 38.7629ZM74.6449 33.0664C74.6449 30.5555 72.9526 28.5603 70.5744 28.5603C68.1649 28.5603 66.5039 30.5555 66.5039 33.0664C66.5039 35.6086 68.0998 37.5725 70.5744 37.5725C72.9852 37.5725 74.6449 35.5773 74.6449 33.0664ZM80.474 25.3423H85.1641C87.3132 25.3423 88.9742 25.3736 90.3085 26.3711C91.4476 27.2411 92.0359 28.5278 92.0359 30.1375C92.0359 32.5194 90.8292 34.064 88.5499 34.5146L92.7831 40.6942H87.9967L84.4143 34.6761V40.6942H80.4415V25.3423H80.474ZM85.2292 32.6146C87.0191 32.6146 87.8665 32.0688 87.8665 30.717C87.8665 29.1073 87.0529 28.5929 85.2943 28.5929H84.4469V32.6484H85.2292V32.6146ZM94.3139 40.7255V25.3423H99.0365C100.989 25.3423 102.554 25.3736 103.758 26.1458C105.126 27.0158 105.94 28.5929 105.94 30.5881C105.94 32.6484 105.191 34.1604 103.79 34.9652C102.715 35.5773 101.544 35.6411 100.078 35.6411H98.2868V40.7268L94.3139 40.7255ZM99.1016 32.2616C100.925 32.2616 101.837 31.9074 101.837 30.4266C101.837 28.9471 100.86 28.6242 99.1329 28.6242H98.2868V32.229H99.1004L99.1016 32.2616ZM112.062 37.8616C113.234 37.8616 113.983 37.1857 113.983 36.2845C113.983 35.0616 113.137 34.7074 111.378 34.2255C108.577 33.4845 107.21 32.3905 107.21 29.976C107.21 27.1121 109.325 24.988 112.582 24.988C114.31 24.988 115.839 25.4386 117.207 26.3711L115.872 29.3977C114.895 28.5929 113.853 28.1736 112.875 28.1736C111.834 28.1736 111.15 28.7218 111.15 29.4616C111.15 30.5555 112.224 30.7808 113.625 31.1676C116.392 31.9074 117.923 32.905 117.923 35.7375C117.923 38.9556 115.611 41.1448 111.964 41.1448C109.782 41.1448 108.121 40.4689 106.428 38.8918L108.349 35.7701C109.587 37.1219 110.824 37.8616 112.062 37.8616ZM54.5854 37.5712C52.1446 37.5712 50.5799 35.899 50.5149 33.0652C50.5799 30.2013 52.1758 28.5603 54.5854 28.5603C55.9534 28.5603 57.0612 29.1399 57.9073 30.3302L61.5873 28.5929C59.9914 26.2435 57.6144 25.0519 54.5854 25.0519C49.7989 25.0519 46.2817 28.4314 46.2817 33.099C46.2817 37.7653 49.7989 41.1448 54.5854 41.1448C57.6144 41.1448 59.9926 39.9545 61.5873 37.605L57.9073 35.8665C57.0612 36.993 55.986 37.5712 54.5854 37.5712ZM59.5358 21.6723V11.5987C59.308 12.9505 58.9825 13.8831 58.8186 14.4951L56.7032 21.7049H53.8694L51.7528 14.4951C51.5901 13.8831 51.2646 12.9831 51.0368 11.5987V21.6723H47.064V6.28781H52.4362L54.7806 14.2373C54.9433 14.7204 55.1399 15.3963 55.2688 16.3301C55.3485 15.6156 55.5128 14.9131 55.7582 14.2373L58.1364 6.32036H63.5086V21.7036H59.5358V21.6723ZM65.9181 6.28781H75.4597V9.66737H70.0537V12.3385H75.1669V15.6217H70.085V18.2289H75.491V21.6723H65.9494V6.28781H65.9181ZM77.6076 6.28781H82.2977C84.4469 6.28781 86.1079 6.32036 87.4422 7.31795C88.5825 8.18662 89.1695 9.47461 89.1695 11.083C89.1695 13.465 87.9641 15.0096 85.6848 15.4602L89.918 21.641H85.1315L81.5492 15.6217V21.641H77.5764V6.28781H77.6076ZM82.3953 13.5614C84.1865 13.5614 85.0339 13.0144 85.0339 11.6626C85.0339 10.0541 84.2203 9.53845 82.4604 9.53845H81.6143V13.5939H82.3953V13.5614ZM98.7424 18.4868C96.3016 18.4868 94.737 16.812 94.6719 13.9807C94.737 11.1156 96.3329 9.47461 98.7424 9.47461C100.11 9.47461 101.218 10.0541 102.064 11.2445L105.744 9.5059C104.148 7.15648 101.771 5.96613 98.7424 5.96613C93.9559 5.96613 90.4387 9.34569 90.4387 14.012C90.4387 18.6795 93.9559 22.0591 98.7424 22.0591C101.771 22.0591 104.15 20.8675 105.744 18.5181L102.064 16.7807C101.186 17.9072 100.112 18.4868 98.7424 18.4868Z" fill="#C8102E"/>
<path id="Vector_2" fill-rule="evenodd" clip-rule="evenodd" d="M106.673 21.9511H111.461L120.839 6.24243H116.02L113.22 10.9112L109.865 6.24368H105.209L111.071 14.5474L106.673 21.9511Z" fill="#C8102E"/>
</g>
</svg>
