<svg width="16" height="16" viewBox="0 0 16 16" fill="none" xmlns="http://www.w3.org/2000/svg">
<g id="Group">
<path id="Vector" d="M12.6344 8.24268C12.5777 10.8281 10.4641 12.9058 7.86484 12.9058C5.26558 12.9058 3.15195 10.8281 3.09529 8.24268H0C0.0578127 12.537 3.55664 16 7.86368 16C12.1707 16 15.6707 12.537 15.7285 8.24268H12.6332H12.6344Z" fill="white"/>
<path id="Vector_2" d="M15.7035 7.5619H0.00390625C0.197001 4.93026 1.36019 0 7.85602 0V0.0115625L14.4409 5.19389C15.1705 5.76739 15.6307 6.61955 15.7024 7.54571V7.5619H15.7035Z" fill="white"/>
<path id="Vector_3" d="M7.85913 0.00600439L8.27538 3.61698C8.31122 3.92339 8.45576 4.19511 8.66967 4.39167C8.9356 4.6368 9.30445 4.74086 9.66404 4.69692C10.1381 4.63911 11.4054 4.49805 12.4032 4.49805C13.6554 4.49805 14.0266 4.86805 14.0266 4.86805C14.0289 4.86805 14.0301 4.86574 14.0289 4.86458C13.8289 4.70502 8.04182 0.144755 7.86375 0.00484814C7.8626 0.00369188 7.86029 0.00484814 7.86029 0.00716064L7.85913 0.00600439Z" fill="#82BBFF"/>
</g>
</svg>
