<svg width="80" height="80" viewBox="0 0 80 80" fill="none" xmlns="http://www.w3.org/2000/svg">
<g id="documentation">
<g id="documentation_2">
<g id="Group">
<path id="Vector" d="M36.88 62.0325H0.80375C0.36 62.0325 0 61.6725 0 61.2288V21.8337C0 21.6062 0.09625 21.3888 0.26625 21.2363L8.14375 14.1437C8.29125 14.0112 8.4825 13.9375 8.68125 13.9375H36.88C37.3237 13.9375 37.6838 14.2975 37.6838 14.7413V61.2288C37.6838 61.6725 37.3237 62.0325 36.88 62.0325ZM1.6075 60.4238H36.075V15.545H8.99L1.6075 22.1913V60.4238Z" fill="#0073FF"/>
</g>
<g id="Group_2">
<path id="Vector_2" d="M8.68125 23.0539H1.1875V21.4464H7.8775V14.7427H9.485V22.2502C9.485 22.6939 9.125 23.0539 8.68125 23.0539Z" fill="#0073FF"/>
</g>
<g id="Group_3">
<path id="Vector_3" d="M20.566 29.7952H6.41602V31.4027H20.566V29.7952Z" fill="#0073FF"/>
</g>
<g id="Group_4">
<path id="Vector_4" d="M20.5652 25.7764H12.8477V27.3839H20.5652V25.7764Z" fill="#0073FF"/>
</g>
<g id="Group_5">
<path id="Vector_5" d="M20.5652 21.7563H12.8477V23.3638H20.5652V21.7563Z" fill="#0073FF"/>
</g>
<g id="Group_6">
<path id="Vector_6" d="M31.821 35.25H6.41602V36.8575H31.821V35.25Z" fill="#0073FF"/>
</g>
<g id="Group_7">
<path id="Vector_7" d="M31.821 40.7051H6.41602V42.3126H31.821V40.7051Z" fill="#0073FF"/>
</g>
<g id="Group_8">
<path id="Vector_8" d="M31.821 46.1602H6.41602V47.7677H31.821V46.1602Z" fill="#0073FF"/>
</g>
<g id="Group_9">
<path id="Vector_9" d="M31.821 51.7876H6.41602V53.3951H31.821V51.7876Z" fill="#0073FF"/>
</g>
<g id="Group_10">
<path id="Vector_10" d="M31.8209 31.6127H25.3721C24.9284 31.6127 24.5684 31.2527 24.5684 30.809V21.9202C24.5684 21.4765 24.9284 21.1165 25.3721 21.1165H31.8209C32.2646 21.1165 32.6246 21.4765 32.6246 21.9202V30.809C32.6246 31.2527 32.2646 31.6127 31.8209 31.6127ZM26.1759 30.004H31.0159V22.724H26.1759V30.004Z" fill="#0073FF"/>
</g>
<g id="Group_11">
<path id="Vector_11" d="M55.4105 67.9888C55.2705 67.9888 55.1293 67.9526 54.9993 67.8763L36.123 56.6363L36.9455 55.2551L55.1305 66.0851L78.093 27.5251L54.8218 13.6638L45.078 15.5976L37.5705 28.2051L36.1893 27.3826L43.8805 14.4676C43.9968 14.2713 44.1918 14.1351 44.4143 14.0901L54.8105 12.0263C55.0055 11.9888 55.208 12.0226 55.378 12.1238L79.6068 26.5513C79.988 26.7788 80.113 27.2726 79.8868 27.6538L56.103 67.5963C55.9518 67.8488 55.6855 67.9888 55.4105 67.9888Z" fill="#0073FF"/>
</g>
<g id="Group_12">
<path id="Vector_12" d="M51.1254 20.0702C50.9816 20.0702 50.8391 20.0315 50.7141 19.9577L44.2754 16.124L45.0979 14.7427L50.8454 18.1665L54.2754 12.4065L55.6566 13.229L51.8154 19.6802C51.7066 19.8627 51.5291 19.9965 51.3216 20.0477C51.2579 20.0627 51.1916 20.0702 51.1254 20.0702Z" fill="#0073FF"/>
</g>
<g id="Group_13">
<path id="Vector_13" d="M45.3172 24.5904L44.4941 25.9727L56.6518 33.2118L57.4749 31.8296L45.3172 24.5904Z" fill="#0073FF"/>
</g>
<g id="Group_14">
<path id="Vector_14" d="M52.8992 24.4276L52.0762 25.8098L58.707 29.7581L59.5301 28.3759L52.8992 24.4276Z" fill="#0073FF"/>
</g>
<g id="Group_15">
<path id="Vector_15" d="M54.9578 20.973L54.1348 22.3552L60.7656 26.3035L61.5887 24.9213L54.9578 20.973Z" fill="#0073FF"/>
</g>
<g id="Group_16">
<path id="Vector_16" d="M42.5262 29.2762L41.7031 30.6584L63.5311 43.6556L64.3541 42.2734L42.5262 29.2762Z" fill="#0073FF"/>
</g>
<g id="Group_17">
<path id="Vector_17" d="M39.7351 33.9627L38.9121 35.345L60.7401 48.3422L61.5631 46.9599L39.7351 33.9627Z" fill="#0073FF"/>
</g>
<g id="Group_18">
<path id="Vector_18" d="M40.1121 40.535L39.2891 41.9172L57.9498 53.0285L58.7728 51.6463L40.1121 40.535Z" fill="#0073FF"/>
</g>
<g id="Group_19">
<path id="Vector_19" d="M40.9441 47.5797L40.1211 48.9619L55.0701 57.8631L55.8931 56.4809L40.9441 47.5797Z" fill="#0073FF"/>
</g>
<g id="Group_20">
<path id="Vector_20" d="M66.6291 39.2639C66.4854 39.2639 66.3429 39.2252 66.2179 39.1514L60.6779 35.8514C60.2966 35.6239 60.1716 35.1302 60.3979 34.7489L64.9454 27.1127C65.1729 26.7314 65.6654 26.6064 66.0479 26.8327L71.5879 30.1314C71.9691 30.3589 72.0941 30.8527 71.8679 31.2339L67.3204 38.8714C67.2116 39.0552 67.0341 39.1877 66.8266 39.2389C66.7616 39.2552 66.6954 39.2639 66.6291 39.2639ZM62.1904 34.8802L66.3491 37.3564L70.0741 31.1014L65.9166 28.6252L62.1904 34.8802Z" fill="#0073FF"/>
</g>
</g>
</g>
</svg>
