<svg width="127" height="62" viewBox="0 0 127 62" fill="none" xmlns="http://www.w3.org/2000/svg">
<g id="download 1">
<path id="Vector" d="M9.44781 52.1477C9.38743 41.9607 9.31773 31.7737 9.27066 21.5866C9.24763 16.6019 9.26667 11.6169 9.26667 6.2677C10.5241 6.2677 11.5233 6.26769 12.5225 6.2677C26.9656 6.26771 41.4091 6.22271 55.8516 6.31183C58.2725 6.32676 60.6898 6.92287 63.4296 7.4568C63.9461 7.70286 64.1418 7.74254 64.3375 7.78223C64.7542 7.87174 65.1708 7.96124 65.7949 8.3473C66.3832 8.73275 66.764 8.82165 67.1449 8.91056C73.8408 11.8965 77.5322 17.3393 79.6134 24.6354C82.6809 19.6478 85.5444 15.0244 88.3746 10.3806C91.028 6.02687 91.1726 5.94871 96.7508 6.9896C94.8088 10.2933 92.9326 13.5138 91.0289 16.7179C86.1689 24.8982 81.3983 33.134 76.3997 41.2288C71.7022 48.8361 64.9141 52.9696 55.7661 52.8398C50.5809 52.7662 45.3941 52.8099 39.893 52.6097C39.4726 52.2595 39.3303 52.1476 39.1509 52.0827C39.1103 43.5583 39.0698 35.034 39.2066 26.201C39.5202 25.8004 39.6179 25.6778 39.6769 25.5244C40.8437 25.4808 42.0105 25.4372 43.481 25.5525C43.9959 25.811 44.207 25.9105 44.4182 26.0101C44.4962 31.943 44.5763 37.8759 44.6502 43.8089C44.6638 44.9083 44.6521 46.008 44.6521 47.6234C50.3589 47.3626 55.6948 47.1187 61.4172 46.8818C61.9822 46.7808 62.1606 46.6729 62.3391 46.5651C71.2519 42.3318 75.4471 35.5445 74.3153 27.189C73.1885 18.8698 66.3014 12.0651 57.8868 11.892C43.8253 11.6027 29.7534 11.8122 15.6859 11.821C15.5138 11.8211 15.3418 11.9425 14.764 12.1601C14.764 25.1904 14.764 38.3732 14.4558 51.8175C12.5811 52.1019 11.0144 52.1248 9.44781 52.1477Z" fill="#0D599F"/>
<path id="Vector_2" d="M44.7905 13.8241C48.9478 13.8244 52.8223 13.7774 56.6953 13.8343C65.7251 13.9667 72.5809 20.8192 72.5606 29.6348C72.5404 38.4183 65.615 45.2779 56.6266 45.3861C53.523 45.4235 50.4186 45.3921 47.1279 45.3921C47.1279 38.7556 47.1279 32.2832 47.1279 25.5918C48.7907 25.5918 50.5068 25.5918 52.4751 25.5918C52.4751 30.2734 52.4751 34.8689 52.4751 39.3959C58.0325 40.8253 62.9769 39.026 65.5107 34.8067C67.86 30.8948 67.4691 25.6665 63.9456 22.6147C62.0744 20.9941 59.3536 19.5315 56.9734 19.4618C45.7397 19.1329 34.4911 19.3086 23.2478 19.3168C22.9853 19.317 22.723 19.4648 22.2987 19.5924C22.2987 21.4211 22.2987 23.246 22.2987 25.3265C27.1153 25.3265 31.7997 25.3265 36.6866 25.3265C36.6866 27.2967 36.6866 29.0157 36.6866 30.8823C30.0157 30.8823 23.4554 30.8823 16.7295 30.8823C16.7295 25.2202 16.7295 19.6964 16.7295 13.824C26.0415 13.824 35.2742 13.824 44.7905 13.8241Z" fill="#0C589E"/>
<path id="Vector_3" d="M98.0156 24.3567C96.7245 22.0804 96.2856 23.7457 95.7787 24.6313C92.126 31.0126 88.4964 37.4072 84.8571 43.7961C83.6909 45.8434 82.3204 47.8022 81.3993 49.9539C80.3484 52.409 78.7491 53.3237 76.1678 52.9578C74.9976 52.7919 73.7844 52.9297 72.019 52.9297C80.4161 38.8888 88.5131 25.3497 96.9285 11.2783C103.831 22.7358 110.488 33.7847 117.376 45.2191C107.694 45.2191 98.5961 45.2191 89.2943 45.2191C89.2943 43.6637 89.2943 42.106 89.2943 40.2169C95.0735 40.2169 100.948 40.2169 107.477 40.2169C104.15 34.6397 101.136 29.5875 98.0156 24.3567Z" fill="#0B589E"/>
<path id="Vector_4" d="M119.514 44.8834C111.99 32.1601 104.573 19.6163 97.0811 6.94504C102.877 6.0278 102.876 6.02853 105.563 10.4254C111.27 19.7595 116.862 29.1663 122.757 38.38C124.446 41.0199 124.566 43.0559 122.601 45.3572C122.121 45.919 121.764 46.5854 121.179 47.4607C120.58 46.5383 120.101 45.8006 119.514 44.8834Z" fill="#0D599F"/>
<path id="Vector_5" d="M35.4561 33.1008C36.2725 34.7602 36.8311 36.4147 37.586 38.6508C31.9942 38.6508 27.244 38.6508 22.2335 38.6508C22.2335 43.5222 22.2335 48.0227 22.2335 52.7259C20.2401 52.7259 18.515 52.7259 16.707 52.7259C16.707 46.186 16.707 39.8072 16.707 33.0959C22.9628 33.0959 29.0805 33.0959 35.4561 33.1008Z" fill="#0C599F"/>
<path id="Vector_6" d="M116.569 52.8818C107.357 52.8829 98.4038 52.8829 89.2769 52.8829C89.2769 51.0973 89.2769 49.532 89.2769 47.7324C99.7049 47.7324 110.199 47.7324 121.7 47.7324C119.8 49.7405 118.314 51.3106 116.569 52.8818Z" fill="#05539C"/>
<path id="Vector_7" d="M9.49414 52.3683C11.0151 52.1248 12.5817 52.1019 14.4041 52.0786C12.9533 52.2485 11.2466 52.4187 9.49414 52.3683Z" fill="#0F5AA0"/>
<path id="Vector_8" d="M67.0202 8.76426C66.764 8.82168 66.3831 8.73277 65.9038 8.468C66.1688 8.40073 66.5322 8.50933 67.0202 8.76426Z" fill="#0F5AA0"/>
<path id="Vector_9" d="M44.4542 25.8617C44.2077 25.9107 43.9966 25.8112 43.7271 25.6069C43.9423 25.5725 44.2159 25.6428 44.4542 25.8617Z" fill="#0F5AA0"/>
<path id="Vector_10" d="M64.2313 7.6694C64.1417 7.74267 63.946 7.70299 63.6406 7.55969C63.729 7.48953 63.9271 7.52298 64.2313 7.6694Z" fill="#0F5AA0"/>
<path id="Vector_11" d="M39.5272 25.5061C39.6179 25.6778 39.5202 25.8004 39.276 25.9427C39.2379 25.8247 39.3077 25.6563 39.5272 25.5061Z" fill="#0F5AA0"/>
<path id="Vector_12" d="M62.1751 46.5513C62.1607 46.6729 61.9823 46.7808 61.6426 46.8959C61.6579 46.7812 61.8345 46.6594 62.1751 46.5513Z" fill="#0F5AA0"/>
<path id="Vector_13" d="M39.1421 52.2521C39.3301 52.1476 39.4725 52.2596 39.6341 52.5443C39.5047 52.5872 39.3191 52.5043 39.1421 52.2521Z" fill="#0F5AA0"/>
</g>
</svg>
