<svg width="173" height="47" viewBox="0 0 173 47" fill="none" xmlns="http://www.w3.org/2000/svg">
<g clip-path="url(#clip0_254_2944)">
<path d="M39.4376 18.5967V18.6176C39.4386 21.9792 39.4006 25.2372 39.2752 27.7316C39.2628 27.9747 39.2495 28.2103 39.2353 28.4383C39.1555 29.7434 39.0482 30.7901 38.9038 31.4617C38.8544 31.6868 38.8022 31.8701 38.7442 32.0079C37.385 37.0365 34.2048 40.6716 30.278 42.7955C28.0316 44.0123 25.5401 44.7323 23.0068 44.9384C20.6388 45.1303 18.2337 44.8719 15.9569 44.1443C11.9105 42.8525 8.26961 40.0818 5.95669 35.7342C5.22909 34.3854 4.68101 32.9473 4.32576 31.4617C4.08735 30.4757 3.93537 29.467 3.87078 28.4506C3.86223 28.3167 3.85558 28.1828 3.84988 28.0488C3.83943 27.8 3.83468 27.552 3.83468 27.3051C3.91542 25.9306 3.82803 23.5075 3.81378 21.0588C3.80998 20.2276 3.81378 19.3927 3.83658 18.5967C3.84323 18.3649 3.85083 18.137 3.86128 17.9118C3.86888 17.7295 3.87837 17.5499 3.88882 17.3742C3.91732 16.8955 3.95531 16.4414 4.00471 16.0216C4.08735 15.3368 4.20038 14.744 4.35616 14.2881C5.07521 11.5211 6.22265 9.36683 7.68924 7.69222C7.97135 7.37116 8.26391 7.06815 8.56882 6.78129C8.97061 6.4023 9.39236 6.05274 9.8312 5.73074C10.7402 5.06298 11.7243 4.51111 12.7691 4.05707C13.4378 3.76546 14.1322 3.51375 14.8465 3.29718L14.8588 3.29338C16.4774 2.8042 18.2014 2.49264 19.9862 2.30077C21.4652 2.14214 22.984 2.06615 24.518 2.0405C26.3418 2.00916 28.1845 2.0481 30.0035 2.1013C33.2939 2.19723 36.5054 2.34066 39.373 2.20103C39.3379 2.82984 39.3331 4.08177 39.3426 5.73074C39.3616 9.02678 39.4367 13.911 39.4376 18.5967Z" fill="#E6FFF1" stroke="#084F2C" stroke-width="0.613107" stroke-miterlimit="10"/>
<path fill-rule="evenodd" clip-rule="evenodd" d="M31.2705 42.099C32.5993 41.2403 33.8057 40.2088 34.8591 39.0357C35.0775 38.7916 35.0595 38.4154 34.8182 38.1941C30.8601 34.5675 22.0321 28.0049 9.8291 29.4724C18.5546 30.9913 25.3062 35.3208 30.4735 41.9632C30.6644 42.2092 31.0102 42.2681 31.2714 42.099H31.2705ZM36.3561 37.1179C36.964 36.2184 37.4921 35.26 37.929 34.2531C38.0478 33.9786 37.9499 33.6632 37.6954 33.5056C36.5166 32.7732 34.8306 31.8233 32.7551 30.9514C29.9501 29.7726 27.0407 28.5178 22.9629 28.5178H16.652C27.2164 29.8913 32.3761 34.5362 35.4651 37.2347C35.599 37.3516 35.7595 37.401 35.9362 37.3772C36.1129 37.3544 36.2554 37.2661 36.3551 37.1189L36.3561 37.1179ZM38.7573 31.848C38.9074 31.2971 39.0328 30.7357 39.1297 30.1649C39.1819 29.8562 38.99 29.5598 38.6861 29.4829C35.4328 28.6603 31.3474 28.4627 27.3057 28.5254C31.8765 28.9671 35.922 31.0065 37.8654 32.2004C38.0316 32.3021 38.2178 32.3192 38.3992 32.247C38.5806 32.1748 38.7051 32.0352 38.7564 31.848H38.7573Z" fill="#FFCE44"/>
<path fill-rule="evenodd" clip-rule="evenodd" d="M5.46082 32.6709C7.92193 31.8796 12.0738 31.2622 15.4202 31.9822C12.8755 30.32 7.58283 29.7937 4.86241 29.8441C4.68003 29.8479 4.52331 29.9239 4.40837 30.0654C4.29344 30.2069 4.25069 30.376 4.28489 30.5555C4.39602 31.1378 4.53565 31.7106 4.70283 32.2719C4.75032 32.4325 4.85006 32.5531 4.99729 32.631C5.14547 32.7089 5.30125 32.7222 5.45987 32.6718L5.46082 32.6709ZM5.62135 34.6903C6.12953 35.7798 6.746 36.8095 7.4565 37.7641C7.55718 37.899 7.69206 37.9787 7.85924 38.0006C8.02642 38.0224 8.17745 37.9806 8.30948 37.8762C11.1344 35.6402 15.8077 32.8618 18.3885 33.1962C14.6859 31.3012 10.1693 32.2216 5.94621 33.8782C5.78663 33.9409 5.67265 34.0539 5.609 34.2135C5.54536 34.373 5.55011 34.5336 5.6223 34.6893L5.62135 34.6903ZM9.49016 40.058C10.479 40.9974 11.577 41.8238 12.7625 42.5163C13.0237 42.6692 13.3533 42.6055 13.5385 42.3662C15.8866 39.3371 20.1068 34.9648 21.8888 35.453C21.4291 35.1225 21.0311 34.8489 20.5666 34.525C19.0069 33.4393 16.1174 34.1204 13.8377 35.6145C12.1279 36.7354 10.5217 38.1488 9.47782 39.2012C9.36003 39.32 9.30114 39.4653 9.30399 39.6325C9.30684 39.7996 9.36953 39.9431 9.49016 40.058ZM15.5655 43.8366C16.8497 44.3087 18.2033 44.6364 19.6072 44.7997C19.8779 44.8311 20.1277 44.6839 20.2313 44.4321C21.8783 40.4114 23.4874 36.8968 24.5484 37.4354C24.1115 37.0745 23.4665 36.5691 22.8804 36.2015C21.657 35.4331 20.4735 36.3915 18.8065 38.1402C17.4273 39.5869 16.2789 41.1133 15.2473 42.9845C15.1599 43.1432 15.1476 43.3141 15.2103 43.4832C15.2739 43.6532 15.3955 43.7739 15.5646 43.8356L15.5655 43.8366ZM22.7978 44.8862C25.0395 44.7465 27.1691 44.189 29.1078 43.2913C29.2788 43.2125 29.3927 43.0729 29.4383 42.8905C29.483 42.7072 29.4459 42.5315 29.331 42.3823C28.4543 41.2453 27.2783 39.9488 26.0568 38.7804C24.8429 37.6187 24.3917 37.31 23.4276 39.6068C22.8311 41.0288 22.377 42.7452 22.1671 44.2032C22.1405 44.3875 22.1937 44.5575 22.32 44.6953C22.4464 44.832 22.6116 44.8985 22.7978 44.8871V44.8862Z" fill="#084F2C"/>
<path d="M24.2464 14.4741L24.1856 28.5578L23.3089 28.555L22.8368 28.5531L21.9591 28.5502H21.487L20.5115 28.5455H20.0394L19.0639 28.5407H18.5918L17.6163 28.536H17.1442L16.1687 28.5322L15.6966 28.5303L14.7211 28.5274L14.249 28.5255L13.2735 28.5227L12.8014 28.5208H12.8005L12.3066 28.5189H11.8259L11.3538 28.516H11.1952L10.7032 28.5141H10.3783L9.90624 28.5113L8.93072 28.5084L8.45864 28.5065L7.63605 28.5037H7.48312L7.01104 28.5018L6.03552 28.498H6.02888L5.56344 28.4961L3.87078 28.4913C3.86223 28.3574 3.85558 28.2235 3.84988 28.0895C3.83943 27.8407 3.83468 27.5927 3.83468 27.3458C3.91542 25.9713 3.82803 23.5482 3.81378 21.0994C3.80998 20.2683 3.81378 19.4334 3.83658 18.6374C3.84323 18.4056 3.85083 18.1777 3.86128 17.9525L5.56344 17.6676L5.98613 17.5963L6.03552 17.5878L7.01104 17.4244L7.48312 17.3446L7.63605 17.319L8.45864 17.1812L8.93072 17.1024L9.90624 16.939L10.3783 16.8592L10.6576 16.8127L11.1534 16.7291L11.3538 16.6959L11.8259 16.6161L12.3066 16.5353L12.8005 16.4527H12.8014L13.2735 16.371L14.249 16.2019L14.7211 16.1202L15.6966 15.9521L16.1687 15.8704L17.1442 15.7014L17.6163 15.6206L18.5918 15.4515L19.0639 15.3698L20.0394 15.2017L20.5115 15.12L21.487 14.951L21.9591 14.8693L22.8368 14.7173L23.3089 14.6365L24.2464 14.4741Z" fill="#1C734A"/>
<path d="M39.2751 27.7314L28.6718 28.4932L27.0627 28.5017L24.1855 28.5568L24.2454 14.4731L27.0228 15.2055L28.6718 15.6586L39.4376 18.5965L39.2751 27.7314Z" fill="#084F2C" stroke="#084F2C" stroke-width="0.143585" stroke-miterlimit="10"/>
<path d="M39.4377 18.5961C39.4377 21.9653 39.4006 25.2329 39.2743 27.731C39.1926 29.3657 39.0729 30.6718 38.9029 31.4621C38.8544 31.6872 38.8012 31.8705 38.7443 32.0073C37.384 37.0359 34.2039 40.6711 30.2781 42.795C28.0307 44.0117 25.5401 44.7317 23.0068 44.9379C20.6379 45.1297 18.2338 44.8714 15.9569 44.1438C11.9105 42.852 8.26965 40.0812 5.95672 35.7336C5.22817 34.3848 4.68105 32.9467 4.32485 31.4611C4.05604 30.345 3.89646 29.2014 3.84991 28.0473C3.83947 27.7994 3.83472 27.5505 3.83472 27.3036C3.91546 25.9291 3.82807 23.506 3.81477 21.0572C3.81097 20.2261 3.81477 19.3921 3.83662 18.5952C3.88696 16.8332 4.02564 15.2526 4.35619 14.2866C5.07524 11.5206 6.22268 9.36626 7.69023 7.69165C7.97139 7.37059 8.2649 7.06759 8.56886 6.78073C8.97065 6.40173 9.39239 6.05218 9.83123 5.73017C17.3865 0.179144 30.1565 2.6488 39.3731 2.20046C39.337 2.82928 39.3322 4.0812 39.3417 5.73017C39.3607 9.02621 39.4367 13.9104 39.4367 18.5961H39.4377Z" stroke="#084F2C" stroke-width="2.53" stroke-miterlimit="10"/>
<path d="M24.3416 13.8451L23.2996 14.0199L22.8276 14.0997L21.9499 14.2469L21.4778 14.3267L20.5023 14.4901L20.0302 14.5699L19.0547 14.7333L18.5826 14.8131L17.6071 14.9764L17.135 15.0562L16.1595 15.2196L15.6874 15.2994L14.7119 15.4637L14.2398 15.5426L13.2643 15.7069L12.7922 15.7857L11.8167 15.95L11.3446 16.0289L10.3691 16.1932L9.89701 16.2721L8.92149 16.4364L8.44941 16.5152L7.47389 16.6795L7.00181 16.7593L6.0263 16.9227L5.55421 17.0025L4.51221 17.1773L4.5749 16.0222C4.65754 15.3374 4.77057 14.7447 4.92635 14.2887C5.10872 13.5877 5.31864 12.9257 5.55421 12.3016C5.70144 11.9093 5.85912 11.5332 6.0263 11.1703C6.32171 10.5282 6.64846 9.93168 7.00181 9.37506C7.15379 9.1357 7.31147 8.90393 7.47389 8.67976C7.72371 8.33306 7.98587 8.0044 8.25944 7.69285C8.32213 7.62161 8.38482 7.55132 8.44941 7.48198C8.60329 7.31385 8.76002 7.15047 8.92149 6.99184C8.99273 6.9206 9.06587 6.85126 9.13901 6.78192C9.38408 6.55016 9.63769 6.32979 9.89701 6.11987C10.0518 5.99448 10.2095 5.8729 10.3691 5.75512C10.3795 5.74752 10.3909 5.73897 10.4014 5.73137C10.7082 5.50625 11.0226 5.29538 11.3446 5.09591C11.5004 4.99997 11.6571 4.90689 11.8167 4.81665C12.1349 4.63522 12.4598 4.46615 12.7922 4.30752C12.948 4.23248 13.1057 4.16029 13.2643 4.09095C13.289 4.07955 13.3146 4.0691 13.3393 4.0577L14.2398 3.7281L14.7119 3.55522L15.4167 3.29781L15.6874 3.18952L16.1595 3.0005L17.135 2.61011L17.6071 2.42203L18.5826 2.03164L19.0547 1.84261L20.0302 1.45222L20.5023 1.26319L21.4778 0.872797L21.9499 0.684723L22.8276 0.333272L23.2996 0.144248L24.2809 -0.248047L24.3416 13.8451Z" fill="#1C734A"/>
<path d="M24.2454 13.8451L36.6535 17.2893L36.5585 4.91826L24.1855 -0.249023L24.2454 13.8451Z" fill="#084F2C" stroke="#084F2C" stroke-width="0.143585" stroke-miterlimit="10"/>
<path d="M6.02628 11.1694V16.9218L5.5542 17.0016V12.3007C5.70143 11.9084 5.85911 11.5323 6.02628 11.1694Z" fill="#084F2C"/>
<path d="M7.47404 8.68018V16.68L7.00195 16.7598V9.37548C7.15393 9.13611 7.31161 8.90434 7.47404 8.68018Z" fill="#084F2C"/>
<path d="M8.9213 6.99219V16.4367L8.44922 16.5156V7.48232C8.6031 7.31419 8.75983 7.15082 8.9213 6.99219Z" fill="#084F2C"/>
<path d="M10.3691 5.75537V16.1935L9.89697 16.2723V6.12012C10.0518 5.99474 10.2095 5.87315 10.3691 5.75537Z" fill="#084F2C"/>
<path d="M11.8168 4.81689V15.9503L11.3447 16.0291V5.09616C11.5005 5.00022 11.6572 4.90713 11.8168 4.81689Z" fill="#084F2C"/>
<path d="M13.2641 4.09079V15.7067L12.792 15.7856V4.30641C12.9478 4.23137 13.1054 4.15918 13.2641 4.08984V4.09079Z" fill="#084F2C"/>
<path d="M14.7118 3.55469V15.4641L14.2397 15.543V3.72851L14.7118 3.55469Z" fill="#084F2C"/>
<path d="M16.1596 3.00098V15.2201L15.6875 15.2999V3.19L16.1596 3.00098Z" fill="#084F2C"/>
<path d="M17.6068 2.42188V14.9763L17.1348 15.0561V2.60995L17.6068 2.42188Z" fill="#084F2C"/>
<path d="M19.0546 1.84277V14.7334L18.5825 14.8123V2.03085L19.0546 1.84277Z" fill="#084F2C"/>
<path d="M20.5024 1.26367V14.4906L20.0303 14.5694V1.4527L20.5024 1.26367Z" fill="#084F2C"/>
<path d="M21.9496 0.68457V14.2468L21.4775 14.3266V0.872644L21.9496 0.68457Z" fill="#084F2C"/>
<path d="M23.2997 0.144043V14.0188L22.8276 14.0995V0.333067L23.2997 0.144043Z" fill="#084F2C"/>
</g>
<path d="M45.9434 29L51.0634 15H54.1234L59.2234 29H56.3634L52.5834 18.08L48.7834 29H45.9434ZM48.2034 25.82L48.9234 23.72H56.0434L56.7434 25.82H48.2034ZM66.4023 29.24C65.069 29.24 63.909 28.9467 62.9223 28.36C61.9357 27.76 61.169 26.9267 60.6223 25.86C60.0757 24.78 59.8023 23.5267 59.8023 22.1C59.8023 20.66 60.0823 19.3933 60.6423 18.3C61.2023 17.1933 62.009 16.3267 63.0623 15.7C64.1157 15.0733 65.3757 14.76 66.8423 14.76C68.4823 14.76 69.8423 15.1533 70.9223 15.94C72.0157 16.7267 72.7223 17.82 73.0423 19.22H70.0223C69.8223 18.6067 69.449 18.1267 68.9023 17.78C68.369 17.42 67.6757 17.24 66.8223 17.24C65.9157 17.24 65.1423 17.44 64.5023 17.84C63.8623 18.24 63.3757 18.8 63.0423 19.52C62.709 20.24 62.5423 21.1 62.5423 22.1C62.5423 23.1133 62.709 23.9733 63.0423 24.68C63.3757 25.3867 63.849 25.9267 64.4623 26.3C65.089 26.66 65.8223 26.84 66.6623 26.84C67.889 26.84 68.8157 26.5133 69.4423 25.86C70.0823 25.1933 70.4623 24.3333 70.5823 23.28H67.1423V21.26H73.3023V29H70.8023L70.6023 27.22C70.309 27.66 69.9623 28.0333 69.5623 28.34C69.1757 28.6333 68.7223 28.8533 68.2023 29C67.6823 29.16 67.0823 29.24 66.4023 29.24ZM75.8287 29V15H80.5087C82.1354 15 83.4754 15.2933 84.5287 15.88C85.5954 16.4533 86.3821 17.2667 86.8887 18.32C87.4087 19.36 87.6687 20.5867 87.6687 22C87.6687 23.4133 87.4087 24.6467 86.8887 25.7C86.3821 26.74 85.6021 27.5533 84.5487 28.14C83.4954 28.7133 82.1487 29 80.5087 29H75.8287ZM78.5287 26.68H80.3687C81.5154 26.68 82.4154 26.4933 83.0687 26.12C83.7354 25.7467 84.2087 25.2133 84.4887 24.52C84.7687 23.8133 84.9087 22.9733 84.9087 22C84.9087 21.0133 84.7687 20.1733 84.4887 19.48C84.2087 18.7733 83.7354 18.2333 83.0687 17.86C82.4154 17.4867 81.5154 17.3 80.3687 17.3H78.5287V26.68ZM91.1894 33.4L93.6294 27.88H93.0294L88.9894 18.92H91.9294L94.8094 25.42L97.4094 18.92H100.269L94.0494 33.4H91.1894ZM101.98 29V18.92H104.36L104.56 20.56C104.866 20 105.3 19.5467 105.86 19.2C106.433 18.8533 107.113 18.68 107.9 18.68C108.74 18.68 109.446 18.8533 110.02 19.2C110.593 19.5467 111.026 20.0533 111.32 20.72C111.626 21.3867 111.78 22.2067 111.78 23.18V29H109.1V23.44C109.1 22.64 108.926 22.0267 108.58 21.6C108.246 21.1733 107.726 20.96 107.02 20.96C106.566 20.96 106.16 21.0667 105.8 21.28C105.453 21.4933 105.18 21.8 104.98 22.2C104.78 22.5867 104.68 23.06 104.68 23.62V29H101.98ZM117.723 29.24C116.883 29.24 116.19 29.1067 115.643 28.84C115.097 28.56 114.69 28.1933 114.423 27.74C114.17 27.2733 114.043 26.76 114.043 26.2C114.043 25.5867 114.197 25.0467 114.503 24.58C114.823 24.1133 115.297 23.7467 115.923 23.48C116.563 23.2133 117.363 23.08 118.323 23.08H120.823C120.823 22.5867 120.757 22.18 120.623 21.86C120.49 21.5267 120.283 21.28 120.003 21.12C119.723 20.96 119.35 20.88 118.883 20.88C118.377 20.88 117.943 20.9933 117.583 21.22C117.237 21.4333 117.023 21.7667 116.943 22.22H114.323C114.39 21.5 114.623 20.88 115.023 20.36C115.437 19.8267 115.977 19.4133 116.643 19.12C117.323 18.8267 118.077 18.68 118.903 18.68C119.85 18.68 120.67 18.84 121.363 19.16C122.057 19.48 122.59 19.94 122.963 20.54C123.337 21.14 123.523 21.88 123.523 22.76V29H121.243L120.943 27.46C120.797 27.7267 120.623 27.9667 120.423 28.18C120.223 28.3933 119.99 28.58 119.723 28.74C119.457 28.9 119.157 29.02 118.823 29.1C118.49 29.1933 118.123 29.24 117.723 29.24ZM118.363 27.16C118.71 27.16 119.017 27.1 119.283 26.98C119.563 26.8467 119.803 26.6733 120.003 26.46C120.203 26.2333 120.357 25.98 120.463 25.7C120.583 25.4067 120.663 25.0933 120.703 24.76V24.74H118.643C118.23 24.74 117.89 24.7933 117.623 24.9C117.37 24.9933 117.183 25.1333 117.063 25.32C116.943 25.5067 116.883 25.72 116.883 25.96C116.883 26.2267 116.943 26.4467 117.063 26.62C117.183 26.7933 117.357 26.9267 117.583 27.02C117.81 27.1133 118.07 27.16 118.363 27.16ZM126.042 29V18.92H128.422L128.642 20.26C128.962 19.78 129.382 19.4 129.902 19.12C130.436 18.8267 131.042 18.68 131.722 18.68C132.229 18.68 132.682 18.7467 133.082 18.88C133.482 19.0133 133.836 19.2067 134.142 19.46C134.462 19.7133 134.722 20.0333 134.922 20.42C135.296 19.8733 135.782 19.4467 136.382 19.14C136.982 18.8333 137.636 18.68 138.342 18.68C139.222 18.68 139.956 18.86 140.542 19.22C141.129 19.5667 141.569 20.0733 141.862 20.74C142.169 21.4067 142.322 22.2267 142.322 23.2V29H139.642V23.44C139.642 22.64 139.482 22.0267 139.162 21.6C138.856 21.1733 138.376 20.96 137.722 20.96C137.296 20.96 136.916 21.0667 136.582 21.28C136.249 21.4933 135.989 21.8 135.802 22.2C135.629 22.6 135.542 23.08 135.542 23.64V29H132.842V23.44C132.842 22.64 132.682 22.0267 132.362 21.6C132.042 21.1733 131.549 20.96 130.882 20.96C130.469 20.96 130.096 21.0667 129.762 21.28C129.442 21.4933 129.189 21.8 129.002 22.2C128.829 22.6 128.742 23.08 128.742 23.64V29H126.042ZM144.93 29V18.92H147.63V29H144.93ZM146.29 17.54C145.81 17.54 145.41 17.4 145.09 17.12C144.784 16.8267 144.63 16.46 144.63 16.02C144.63 15.58 144.784 15.22 145.09 14.94C145.41 14.6467 145.81 14.5 146.29 14.5C146.784 14.5 147.184 14.6467 147.49 14.94C147.81 15.22 147.97 15.58 147.97 16.02C147.97 16.46 147.81 16.8267 147.49 17.12C147.184 17.4 146.784 17.54 146.29 17.54ZM155.239 29.24C154.225 29.24 153.325 29.0133 152.539 28.56C151.752 28.1067 151.139 27.4867 150.699 26.7C150.259 25.9133 150.039 25.0133 150.039 24C150.039 22.96 150.259 22.0467 150.699 21.26C151.139 20.46 151.752 19.8333 152.539 19.38C153.325 18.9133 154.225 18.68 155.239 18.68C156.532 18.68 157.619 19.02 158.499 19.7C159.379 20.38 159.939 21.3133 160.179 22.5H157.319C157.199 22.0333 156.945 21.6667 156.559 21.4C156.185 21.1333 155.739 21 155.219 21C154.752 21 154.332 21.12 153.959 21.36C153.599 21.5867 153.312 21.9267 153.099 22.38C152.899 22.82 152.799 23.3467 152.799 23.96C152.799 24.4267 152.859 24.8467 152.979 25.22C153.099 25.58 153.265 25.8933 153.479 26.16C153.692 26.4133 153.945 26.6067 154.239 26.74C154.545 26.8733 154.872 26.94 155.219 26.94C155.565 26.94 155.879 26.88 156.159 26.76C156.452 26.64 156.699 26.4733 156.899 26.26C157.099 26.0333 157.239 25.76 157.319 25.44H160.179C159.939 26.6 159.372 27.5267 158.479 28.22C157.599 28.9 156.519 29.24 155.239 29.24ZM166.627 29.24C165.707 29.24 164.907 29.0933 164.227 28.8C163.547 28.5067 163.014 28.1 162.627 27.58C162.24 27.06 162.02 26.4733 161.967 25.82H164.647C164.714 26.0733 164.827 26.3067 164.987 26.52C165.147 26.72 165.36 26.88 165.627 27C165.894 27.12 166.214 27.18 166.587 27.18C166.947 27.18 167.24 27.1333 167.467 27.04C167.694 26.9333 167.86 26.7933 167.967 26.62C168.087 26.4467 168.147 26.2667 168.147 26.08C168.147 25.8 168.067 25.5867 167.907 25.44C167.747 25.28 167.514 25.1533 167.207 25.06C166.9 24.9667 166.527 24.8733 166.087 24.78C165.607 24.6867 165.134 24.5733 164.667 24.44C164.214 24.2933 163.807 24.1133 163.447 23.9C163.087 23.6867 162.8 23.4133 162.587 23.08C162.374 22.7467 162.267 22.3333 162.267 21.84C162.267 21.24 162.427 20.7067 162.747 20.24C163.067 19.76 163.534 19.38 164.147 19.1C164.76 18.82 165.5 18.68 166.367 18.68C167.58 18.68 168.54 18.9533 169.247 19.5C169.954 20.0467 170.374 20.8 170.507 21.76H167.967C167.887 21.4533 167.707 21.2133 167.427 21.04C167.16 20.8533 166.8 20.76 166.347 20.76C165.867 20.76 165.5 20.8467 165.247 21.02C164.994 21.1933 164.867 21.42 164.867 21.7C164.867 21.8867 164.947 22.0533 165.107 22.2C165.28 22.3467 165.52 22.4733 165.827 22.58C166.134 22.6733 166.507 22.7667 166.947 22.86C167.72 23.02 168.4 23.2067 168.987 23.42C169.574 23.62 170.034 23.9133 170.367 24.3C170.7 24.6733 170.867 25.22 170.867 25.94C170.867 26.58 170.694 27.1533 170.347 27.66C170 28.1533 169.507 28.54 168.867 28.82C168.24 29.1 167.494 29.24 166.627 29.24Z" fill="white"/>
<defs>
<clipPath id="clip0_254_2944">
<rect width="43" height="46.9692" fill="white"/>
</clipPath>
</defs>
</svg>
