<svg width="16" height="16" viewBox="0 0 16 16" fill="none" xmlns="http://www.w3.org/2000/svg">
<g id="search" clip-path="url(#clip0_0_7523)">
<path id="Vector" d="M4.05012 9.6908L3.54023 11.5943L1.67658 11.6337C1.11963 10.6007 0.803711 9.41877 0.803711 8.16278C0.803711 6.94824 1.09908 5.80292 1.62265 4.79443H1.62305L3.28222 5.09862L4.00903 6.74783C3.85691 7.19132 3.774 7.66739 3.774 8.16278C3.77406 8.70042 3.87145 9.21555 4.05012 9.6908Z" fill="#FBBB00"/>
<path id="Vector_2" d="M15.3238 6.79492C15.4079 7.23798 15.4518 7.69554 15.4518 8.16318C15.4518 8.68755 15.3967 9.19904 15.2916 9.69243C14.9351 11.3714 14.0035 12.8374 12.7129 13.8749L12.7125 13.8745L10.6227 13.7678L10.3269 11.9215C11.1832 11.4193 11.8525 10.6333 12.205 9.69243H8.28857V6.79492H12.2622H15.3238Z" fill="#518EF8"/>
<path id="Vector_3" d="M12.7145 13.8742L12.7149 13.8746C11.4597 14.8835 9.86525 15.4871 8.12958 15.4871C5.34034 15.4871 2.9153 13.9281 1.67822 11.6338L4.05176 9.69092C4.67029 11.3417 6.2627 12.5168 8.12958 12.5168C8.93201 12.5168 9.68378 12.2999 10.3289 11.9212L12.7145 13.8742Z" fill="#28B446"/>
<path id="Vector_4" d="M12.8053 2.52504L10.4326 4.46757C9.76497 4.05026 8.97578 3.80919 8.13029 3.80919C6.22115 3.80919 4.59895 5.0382 4.01141 6.74815L1.6254 4.79475H1.625C2.84397 2.44456 5.29959 0.838867 8.13029 0.838867C9.90742 0.838867 11.5369 1.4719 12.8053 2.52504Z" fill="#F14336"/>
</g>
<defs>
<clipPath id="clip0_0_7523">
<rect width="14.6485" height="14.6485" fill="white" transform="translate(0.803711 0.838867)"/>
</clipPath>
</defs>
</svg>
