<svg width="25" height="25" viewBox="0 0 25 25" fill="none" xmlns="http://www.w3.org/2000/svg">
<g id="ph:hand-tap-light">
<path id="Vector" d="M17.3379 4.94422C18.78 4.94422 20.1631 5.5171 21.1828 6.53683C22.2025 7.55655 22.7754 8.9396 22.7754 10.3817C22.7754 11.8238 22.2025 13.2069 21.1828 14.2266C20.1631 15.2463 18.78 15.8192 17.3379 15.8192C17.1887 15.8192 17.0456 15.76 16.9401 15.6545C16.8347 15.549 16.7754 15.4059 16.7754 15.2567C16.7754 15.1075 16.8347 14.9645 16.9401 14.859C17.0456 14.7535 17.1887 14.6942 17.3379 14.6942C18.4816 14.6942 19.5785 14.2399 20.3873 13.4311C21.196 12.6224 21.6504 11.5255 21.6504 10.3817C21.6504 9.23797 21.196 8.14107 20.3873 7.33232C19.5785 6.52357 18.4816 6.06922 17.3379 6.06922C17.1887 6.06922 17.0456 6.00995 16.9401 5.90447C16.8347 5.79898 16.7754 5.6559 16.7754 5.50672C16.7754 5.35753 16.8347 5.21446 16.9401 5.10897C17.0456 5.00348 17.1887 4.94422 17.3379 4.94422ZM13.0254 17.8817C13.0259 17.3938 12.8792 16.9171 12.6045 16.5139C12.9886 16.4305 13.3468 16.2554 13.6486 16.0037C13.9504 15.7519 14.1869 15.4308 14.3378 15.0679C14.4887 14.705 14.5497 14.311 14.5154 13.9194C14.4811 13.5279 14.3527 13.1504 14.141 12.8192L17.3379 12.8192C17.9844 12.8192 18.6043 12.5624 19.0615 12.1053C19.5186 11.6482 19.7754 11.0282 19.7754 10.3817C19.7754 9.73525 19.5186 9.11527 19.0615 8.65815C18.6043 8.20103 17.9844 7.94422 17.3379 7.94422L9.18164 7.94422L10.316 7.23828C10.8755 6.91343 11.2829 6.37965 11.4488 5.75436C11.6147 5.12908 11.5254 4.4635 11.2005 3.90406C10.8757 3.34462 10.3419 2.93714 9.71663 2.77126C9.09134 2.60537 8.42577 2.69468 7.86633 3.01953L3.17883 5.76828C3.05411 5.84532 2.9644 5.968 2.92879 6.11019C2.89318 6.25239 2.91449 6.40287 2.98817 6.5296C3.06186 6.65632 3.18211 6.74927 3.3233 6.78866C3.4645 6.82804 3.6155 6.81075 3.74414 6.74047L8.43164 3.99453C8.58092 3.90835 8.74571 3.85242 8.9166 3.82992C9.08749 3.80743 9.26114 3.81881 9.42763 3.86343C9.76388 3.95353 10.0506 4.17352 10.2246 4.475C10.3987 4.77648 10.4458 5.13474 10.3557 5.47099C10.3111 5.63748 10.2341 5.79356 10.1292 5.9303C10.0243 6.06705 9.89342 6.18179 9.74414 6.26797C9.73853 6.27056 9.73319 6.2737 9.7282 6.27734L6.9157 8.02859C6.81166 8.09307 6.7315 8.18972 6.68736 8.30388C6.64322 8.41805 6.63753 8.54349 6.67114 8.66118C6.70475 8.77888 6.77584 8.88239 6.8736 8.95603C6.97137 9.02967 7.09049 9.06941 7.21289 9.06922L17.3379 9.06922C17.686 9.06922 18.0198 9.2075 18.266 9.45364C18.5121 9.69978 18.6504 10.0336 18.6504 10.3817C18.6504 10.7298 18.5121 11.0637 18.266 11.3098C18.0198 11.5559 17.686 11.6942 17.3379 11.6942L10.9629 11.6942C10.8137 11.6942 10.6706 11.7535 10.5651 11.859C10.4597 11.9645 10.4004 12.1075 10.4004 12.2567C10.4004 12.4059 10.4597 12.549 10.5651 12.6545C10.6706 12.76 10.8137 12.8192 10.9629 12.8192L12.0879 12.8192C12.436 12.8192 12.7698 12.9575 13.016 13.2036C13.2621 13.4498 13.4004 13.7836 13.4004 14.1317C13.4004 14.4798 13.2621 14.8137 13.016 15.0598C12.7698 15.3059 12.436 15.4442 12.0879 15.4442L10.2129 15.4442C10.0637 15.4442 9.92063 15.5035 9.81514 15.609C9.70965 15.7145 9.65039 15.8575 9.65039 16.0067C9.65039 16.1559 9.70965 16.299 9.81514 16.4045C9.92063 16.51 10.0637 16.5692 10.2129 16.5692L10.5879 16.5692C10.936 16.5692 11.2698 16.7075 11.516 16.9536C11.7621 17.1998 11.9004 17.5336 11.9004 17.8817C11.9004 18.2298 11.7621 18.5637 11.516 18.8098C11.2698 19.0559 10.936 19.1942 10.5879 19.1942L7.21289 19.1942C5.1382 19.1942 3.72726 18.5098 3.71414 18.5033C3.58111 18.4381 3.42773 18.428 3.2873 18.4752C3.14688 18.5224 3.03075 18.6231 2.96414 18.7555C2.92305 18.8329 2.90119 18.9191 2.90039 19.0067C2.90018 19.1114 2.92921 19.2141 2.9842 19.3032C3.03919 19.3923 3.11796 19.4643 3.21164 19.5111C3.27726 19.5439 4.85695 20.3202 7.21289 20.3202L10.5879 20.3202C10.9081 20.3202 11.2251 20.2571 11.5209 20.1345C11.8167 20.012 12.0854 19.8323 12.3118 19.6059C12.5381 19.3795 12.7177 19.1106 12.8401 18.8148C12.9626 18.519 13.0255 18.2019 13.0254 17.8817Z" fill="#0F9D58"/>
</g>
</svg>
