<svg width="108" height="74" viewBox="0 0 108 74" fill="none" xmlns="http://www.w3.org/2000/svg">
<path d="M0 34.4248C0 15.5492 15.3017 0.247559 34.1772 0.247559H73.8228C92.6983 0.247559 108 15.5492 108 34.4248V73.3868H34.1772C15.3017 73.3868 0 58.0851 0 39.2096V34.4248Z" fill="#0F9D58"/>
<path d="M52.1773 25.8811H57.6457L63.6426 19.866C63.8121 19.6951 64.0137 19.5595 64.2358 19.467C64.4579 19.3744 64.6962 19.3268 64.9368 19.3268C65.1774 19.3268 65.4157 19.3744 65.6378 19.467C65.8599 19.5595 66.0615 19.6951 66.231 19.866L70.9338 24.587C71.2733 24.9285 71.4638 25.3905 71.4638 25.872C71.4638 26.3536 71.2733 26.8156 70.9338 27.1571L66.7596 31.3495H52.1773V34.9951C52.1773 35.4785 51.9853 35.9421 51.6434 36.284C51.3016 36.6258 50.838 36.8179 50.3545 36.8179C49.8711 36.8179 49.4075 36.6258 49.0656 36.284C48.7238 35.9421 48.5317 35.4785 48.5317 34.9951V29.5267C48.5317 28.5599 48.9158 27.6326 49.5995 26.9489C50.2832 26.2652 51.2104 25.8811 52.1773 25.8811ZM41.2406 34.9951V42.2862L37.0664 46.4604C36.7269 46.8019 36.5364 47.2639 36.5364 47.7455C36.5364 48.227 36.7269 48.689 37.0664 49.0305L41.7692 53.7515C41.9387 53.9224 42.1403 54.058 42.3624 54.1505C42.5845 54.2431 42.8228 54.2907 43.0634 54.2907C43.304 54.2907 43.5423 54.2431 43.7644 54.1505C43.9865 54.058 44.1881 53.9224 44.3576 53.7515L52.1773 45.9318H59.4685C59.9519 45.9318 60.4155 45.7397 60.7574 45.3979C61.0992 45.0561 61.2912 44.5924 61.2912 44.109V42.2862H63.114C63.5975 42.2862 64.0611 42.0942 64.4029 41.7523C64.7448 41.4105 64.9368 40.9469 64.9368 40.4634V38.6406H66.7596C67.243 38.6406 67.7067 38.4486 68.0485 38.1068C68.3903 37.7649 68.5824 37.3013 68.5824 36.8179V34.9951H55.8229V36.8179C55.8229 37.7847 55.4388 38.712 54.7551 39.3957C54.0714 40.0793 53.1442 40.4634 52.1773 40.4634H48.5317C47.5649 40.4634 46.6376 40.0793 45.9539 39.3957C45.2703 38.712 44.8862 37.7847 44.8862 36.8179V31.3495L41.2406 34.9951Z" fill="white"/>
</svg>
