<svg width="107" height="14" viewBox="0 0 107 14" fill="none" xmlns="http://www.w3.org/2000/svg">
<g id="industrious 1" clip-path="url(#clip0_0_7459)">
<path id="Vector" d="M7.8522 1.79844L8.16232 1.39187C8.2158 1.32768 8.25858 1.25279 8.32274 1.18859C8.25858 1.0495 8.19441 0.889017 8.08746 0.707132C7.87358 0.653636 7.71316 0.632238 7.54206 0.61084C7.49928 0.685733 7.43511 0.749928 7.39233 0.814122L7.08219 1.22069L6.77207 1.62726L6.63303 1.80914C6.96456 1.85193 7.28539 1.96962 7.58483 2.16221L7.8522 1.79844ZM10.8253 7.60805C10.3547 6.59164 9.32799 5.74641 8.80398 5.55382C8.72913 3.40331 7.4565 2.60087 6.22665 2.60087H5.96999H5.71332C4.48348 2.60087 3.22154 3.40331 3.13598 5.56453C2.62265 5.7571 1.596 6.67723 1.11476 7.69364C0.558647 8.88125 0.751145 11.3848 0.772534 11.6309L0.815312 12.3049H2.50502C3.74556 12.3049 4.13056 11.0639 4.2482 10.1651C4.6225 10.9141 5.22138 12.0589 5.7561 13.2358L5.96999 13.6745L6.18387 13.1822C6.71859 12.0161 7.31747 10.9355 7.69178 10.1758C7.80941 11.0746 8.19441 12.3049 9.43492 12.3049H11.1247L11.1675 11.5988C11.1888 11.3421 11.3813 8.80635 10.8253 7.60805ZM3.30709 8.95614C3.30709 10.3149 3.07181 11.0852 2.51572 11.0852H1.7778C1.74572 10.24 1.75642 8.89195 2.05585 8.2607C2.28044 7.77924 2.63335 7.22288 2.93279 6.93401L3.17876 8.31419L3.30709 8.95614ZM5.71332 3.69218H5.96999H6.22665C6.93248 3.69218 7.649 4.05595 7.79872 5.39333H5.98068H4.14125C4.30167 4.05595 5.0075 3.69218 5.71332 3.69218ZM5.96999 11.2778C5.73471 10.7108 5.41388 10.2294 5.1893 9.74792H6.76136C6.52609 10.24 6.20526 10.7215 5.96999 11.2778ZM7.80942 6.83772C7.76663 7.20149 7.68108 7.92903 7.60622 8.2928H4.34444C4.26958 7.92903 4.18403 7.20149 4.14125 6.83772H7.80942ZM10.1728 11.0852H9.44568C8.88951 11.0852 8.65427 10.3149 8.65427 8.95614L8.7826 8.28209L9.02855 6.92331C9.32799 7.21219 9.68089 7.76854 9.90551 8.2607C10.1943 8.90264 10.2049 10.24 10.1728 11.0852ZM4.09848 1.79844L4.36584 2.14082C4.66527 1.94823 4.9861 1.83054 5.31763 1.78774L5.17861 1.60585L4.85777 1.22069L4.54764 0.814122C4.49417 0.749928 4.4407 0.685733 4.39791 0.61084C4.2375 0.632238 4.06639 0.653636 3.85251 0.707132C3.74556 0.899716 3.6814 1.0495 3.61723 1.20999C3.6814 1.27418 3.72418 1.33838 3.77765 1.41327L4.09848 1.79844Z" fill="#9CA0AC"/>
<path id="Vector_2" d="M16.4512 3.4458H18.3654V10.7961H16.4512V3.4458Z" fill="#9CA0AC"/>
<path id="Vector_3" d="M24.3435 7.95022C23.7981 7.46876 23.2847 6.84821 23.2847 6.84821C23.2847 6.84821 23.4238 7.78973 23.4238 8.39958V10.7962H21.6592V3.34961H21.8089L25.199 6.28116C25.7872 6.80542 26.2577 7.39387 26.2577 7.39387C26.2577 7.39387 26.1401 6.44165 26.1401 5.8318V3.4459H27.9047V10.9031H27.755L24.3435 7.95022Z" fill="#9CA0AC"/>
<path id="Vector_4" d="M31.1772 3.4458H33.8188C35.9897 3.4458 37.6473 4.85808 37.6473 7.11559C37.6473 9.3517 36.0004 10.7854 33.8188 10.7854H31.1772V3.4458ZM33.7332 9.13772C35.1021 9.13772 35.701 8.36739 35.701 7.12629C35.701 5.90659 35.0913 5.11486 33.7332 5.11486H33.1022V9.13772H33.7332Z" fill="#9CA0AC"/>
<path id="Vector_5" d="M40.6948 7.89663V3.4458H42.6091V7.86453C42.6091 8.76325 43.0048 9.21262 43.8603 9.21262C44.7159 9.21262 45.1116 8.77395 45.1116 7.86453V3.4458H47.0259V7.89663C47.0259 9.8867 45.6998 10.9245 43.8711 10.9245C41.9888 10.9245 40.6948 9.87594 40.6948 7.89663Z" fill="#9CA0AC"/>
<path id="Vector_6" d="M49.6455 9.22324L51.1427 8.34592C51.4528 8.88088 51.9127 9.29814 52.672 9.29814C53.196 9.29814 53.5703 9.10556 53.5703 8.76319C53.5703 8.41012 53.303 8.26033 52.5757 7.96075L52.2656 7.83236C51.0571 7.34021 50.2337 6.75175 50.2337 5.43576C50.2337 4.15187 51.2175 3.30664 52.6399 3.30664C53.6987 3.30664 54.4259 3.61692 55.0354 4.56914L53.581 5.40367C53.3243 4.9971 53.057 4.87941 52.6933 4.87941C52.3084 4.87941 52.0624 5.072 52.0624 5.40367C52.0624 5.79953 52.3832 5.93862 52.8217 6.12051L53.1318 6.2489C54.4794 6.79455 55.4632 7.35091 55.4632 8.74179C55.4632 10.1113 54.4259 10.9137 52.6933 10.9137C51.2068 10.9244 50.1267 10.2075 49.6455 9.22324Z" fill="#9CA0AC"/>
<path id="Vector_7" d="M59.8593 5.10416H57.7739V3.4458H63.8697V5.10416H61.7843V10.7961H59.8593V5.10416Z" fill="#9CA0AC"/>
<path id="Vector_8" d="M72.8205 10.7961H70.671L69.6443 9.02003C69.548 9.03073 69.4518 9.03073 69.3449 9.03073H68.7673V10.7854H66.853V3.4458H69.3449C71.2912 3.4458 72.7135 4.32313 72.7135 6.25967C72.7135 7.36167 72.2109 8.0892 71.4196 8.49577L72.8205 10.7961ZM69.3021 7.41517C70.2966 7.41517 70.7565 7.09419 70.7565 6.25967C70.7565 5.42513 70.3073 5.09346 69.3021 5.09346H68.7673V7.41517H69.3021Z" fill="#9CA0AC"/>
<path id="Vector_9" d="M75.8472 3.4458H77.7615V10.7961H75.8472V3.4458Z" fill="#9CA0AC"/>
<path id="Vector_10" d="M80.8735 7.11556C80.8735 4.85806 82.6701 3.31738 84.8304 3.31738C86.9799 3.31738 88.7871 4.86876 88.7871 7.11556C88.7871 9.34097 86.9907 10.9138 84.8304 10.9138C82.6701 10.9244 80.8735 9.34097 80.8735 7.11556ZM86.8302 7.11556C86.8302 5.87447 86.0175 5.00784 84.8304 5.00784C83.6434 5.00784 82.8305 5.88517 82.8305 7.11556C82.8305 8.37806 83.6434 9.22329 84.8304 9.22329C86.0175 9.22329 86.8302 8.38876 86.8302 7.11556Z" fill="#9CA0AC"/>
<path id="Vector_11" d="M91.8247 7.89663V3.4458H93.7392V7.86453C93.7392 8.76325 94.1344 9.21262 94.9902 9.21262C95.846 9.21262 96.2412 8.77395 96.2412 7.86453V3.4458H98.1557V7.89663C98.1557 9.8867 96.8297 10.9245 95.0008 10.9245C93.119 10.9245 91.8247 9.87594 91.8247 7.89663Z" fill="#9CA0AC"/>
<path id="Vector_12" d="M100.776 9.22324L102.273 8.34592C102.583 8.88088 103.042 9.29814 103.802 9.29814C104.326 9.29814 104.7 9.10556 104.7 8.76319C104.7 8.41012 104.433 8.26033 103.706 7.96075L103.395 7.83236C102.187 7.34021 101.363 6.75175 101.363 5.43576C101.363 4.15187 102.347 3.30664 103.77 3.30664C104.829 3.30664 105.556 3.61692 106.166 4.56914L104.711 5.40367C104.454 4.9971 104.187 4.87941 103.823 4.87941C103.439 4.87941 103.192 5.072 103.192 5.40367C103.192 5.79953 103.513 5.93862 103.952 6.12051L104.262 6.2489C105.61 6.79455 106.593 7.35091 106.593 8.74179C106.593 10.1113 105.556 10.9137 103.823 10.9137C102.337 10.9244 101.257 10.2075 100.776 9.22324Z" fill="#9CA0AC"/>
</g>
<defs>
<clipPath id="clip0_0_7459">
<rect width="106.752" height="13.2337" fill="white" transform="translate(0.0371094 0.484863)"/>
</clipPath>
</defs>
</svg>
