<svg width="134" height="134" viewBox="0 0 134 134" fill="none" xmlns="http://www.w3.org/2000/svg">
<g id="Icon">
<g id="Group">
<g id="Group_2">
<path id="Vector" d="M134 83.5019C128.42 94.7267 116.835 102.442 103.444 102.442C84.7696 102.442 69.5994 87.4273 69.3438 68.813H82.7643C82.8295 71.851 83.5564 75.0345 85.0654 78.2279C86.8251 81.9428 89.818 84.9608 93.5329 86.7154C102.657 91.0269 111.661 88.9413 117.516 83.5019H134Z" fill="white"/>
<path id="Vector_2" d="M134 52.0076H117.516C113.821 48.5785 108.878 46.4829 103.444 46.4829C92.4594 46.4829 83.4756 55.0456 82.7988 65.8593H69.3682C69.5186 61.8236 70.3708 57.6375 72.0403 53.4163C75.2137 45.38 81.5856 38.988 89.6118 35.7996C108.442 28.3148 126.56 37.0479 134 52.0126V52.0076Z" fill="white"/>
</g>
<g id="Group_3">
<path id="Vector_3" d="M54.7802 68.8076C54.5346 80.0173 45.3703 89.0262 34.1004 89.0262C22.8305 89.0262 13.6662 80.0173 13.4206 68.8076H0C0.250664 87.427 15.4209 102.442 34.0954 102.442C52.7699 102.442 67.9451 87.427 68.1958 68.8076H54.7752H54.7802Z" fill="white"/>
<path id="Vector_4" d="M68.0948 65.8553H0.0244141C0.861633 54.445 5.90499 33.0684 34.0696 33.0684V33.1185L62.6203 55.5881C65.7837 58.0746 67.779 61.7694 68.0898 65.7851V65.8553H68.0948Z" fill="white"/>
<path id="Vector_5" d="M34.0757 33.0939L35.8805 48.7504C36.0359 50.0789 36.6625 51.257 37.59 52.1093C38.7431 53.1721 40.3423 53.6233 41.9014 53.4328C43.9569 53.1821 49.4514 52.5705 53.7779 52.5705C59.2073 52.5705 60.8165 54.1748 60.8165 54.1748C60.8266 54.1748 60.8316 54.1647 60.8266 54.1597C59.9593 53.4679 34.8678 33.6955 34.0957 33.0889C34.0907 33.0839 34.0807 33.0889 34.0807 33.0989L34.0757 33.0939Z" fill="#82BBFF"/>
</g>
</g>
</g>
</svg>
