<svg width="324" height="116" viewBox="0 0 324 116" fill="none" xmlns="http://www.w3.org/2000/svg">
<g clip-path="url(#clip0_272_17739)">
<path d="M93.4376 55.5969V55.6178C93.4386 58.9794 93.4006 62.2375 93.2752 64.7318C93.2628 64.975 93.2495 65.2106 93.2353 65.4385C93.1555 66.7436 93.0482 67.7904 92.9038 68.462C92.8544 68.6871 92.8022 68.8704 92.7442 69.0081C91.385 74.0367 88.2048 77.6719 84.278 79.7958C82.0316 81.0126 79.5401 81.7326 77.0068 81.9387C74.6388 82.1305 72.2337 81.8722 69.9569 81.1446C65.9105 79.8528 62.2696 77.082 59.9567 72.7345C59.2291 71.3856 58.681 69.9475 58.3258 68.462C58.0873 67.476 57.9354 66.4672 57.8708 65.4509C57.8622 65.3169 57.8556 65.183 57.8499 65.0491C57.8394 64.8002 57.8347 64.5523 57.8347 64.3053C57.9154 62.9309 57.828 60.5078 57.8138 58.059C57.81 57.2279 57.8138 56.3929 57.8366 55.5969C57.8432 55.3652 57.8508 55.1372 57.8613 54.9121C57.8689 54.7297 57.8784 54.5502 57.8888 54.3745C57.9173 53.8957 57.9553 53.4417 58.0047 53.0218C58.0873 52.337 58.2004 51.7443 58.3562 51.2883C59.0752 48.5214 60.2226 46.3671 61.6892 44.6925C61.9714 44.3714 62.2639 44.0684 62.5688 43.7815C62.9706 43.4025 63.3924 43.053 63.8312 42.731C64.7402 42.0632 65.7243 41.5114 66.7691 41.0573C67.4378 40.7657 68.1322 40.514 68.8465 40.2974L68.8588 40.2936C70.4774 39.8044 72.2014 39.4929 73.9862 39.301C75.4652 39.1424 76.984 39.0664 78.518 39.0407C80.3418 39.0094 82.1845 39.0483 84.0035 39.1015C87.2939 39.1975 90.5054 39.3409 93.373 39.2013C93.3379 39.8301 93.3331 41.082 93.3426 42.731C93.3616 46.027 93.4367 50.9112 93.4376 55.5969Z" fill="#E6FFF1" stroke="#084F2C" stroke-width="0.613107" stroke-miterlimit="10"/>
<path fill-rule="evenodd" clip-rule="evenodd" d="M85.2705 79.099C86.5993 78.2403 87.8057 77.2088 88.8591 76.0357C89.0775 75.7916 89.0595 75.4154 88.8182 75.1941C84.8601 71.5675 76.0321 65.0049 63.8291 66.4724C72.5546 67.9913 79.3062 72.3208 84.4735 78.9632C84.6644 79.2092 85.0102 79.2681 85.2714 79.099H85.2705ZM90.3561 74.1179C90.964 73.2184 91.4921 72.26 91.929 71.2531C92.0478 70.9786 91.9499 70.6632 91.6954 70.5056C90.5166 69.7732 88.8306 68.8233 86.7551 67.9514C83.9501 66.7726 81.0407 65.5178 76.9629 65.5178H70.652C81.2164 66.8913 86.3761 71.5362 89.4651 74.2347C89.599 74.3516 89.7595 74.401 89.9362 74.3772C90.1129 74.3544 90.2554 74.2661 90.3551 74.1189L90.3561 74.1179ZM92.7573 68.848C92.9074 68.2971 93.0328 67.7357 93.1297 67.1649C93.1819 66.8562 92.99 66.5598 92.6861 66.4829C89.4328 65.6603 85.3474 65.4627 81.3057 65.5254C85.8765 65.9671 89.922 68.0065 91.8654 69.2004C92.0316 69.3021 92.2178 69.3192 92.3992 69.247C92.5806 69.1748 92.7051 69.0352 92.7564 68.848H92.7573Z" fill="#FFCE44"/>
<path fill-rule="evenodd" clip-rule="evenodd" d="M59.4608 69.6706C61.9219 68.8794 66.0738 68.262 69.4202 68.982C66.8755 67.3197 61.5828 66.7935 58.8624 66.8438C58.68 66.8476 58.5233 66.9236 58.4084 67.0651C58.2934 67.2067 58.2507 67.3758 58.2849 67.5553C58.396 68.1375 58.5357 68.7103 58.7028 69.2717C58.7503 69.4322 58.8501 69.5529 58.9973 69.6307C59.1455 69.7086 59.3012 69.7219 59.4599 69.6716L59.4608 69.6706ZM59.6214 71.6901C60.1295 72.7796 60.746 73.8092 61.4565 74.7638C61.5572 74.8987 61.6921 74.9785 61.8592 75.0003C62.0264 75.0222 62.1774 74.9804 62.3095 74.8759C65.1344 72.6399 69.8077 69.8616 72.3885 70.1959C68.6859 68.3009 64.1693 69.2213 59.9462 70.8779C59.7866 70.9406 59.6726 71.0536 59.609 71.2132C59.5454 71.3728 59.5501 71.5333 59.6223 71.6891L59.6214 71.6901ZM63.4902 77.0578C64.479 77.9972 65.577 78.8236 66.7625 79.516C67.0237 79.6689 67.3533 79.6053 67.5385 79.3659C69.8866 76.3368 74.1068 71.9646 75.8888 72.4528C75.4291 72.1222 75.0311 71.8487 74.5666 71.5248C73.0069 70.4391 70.1174 71.1201 67.8377 72.6143C66.1279 73.7351 64.5217 75.1485 63.4778 76.201C63.36 76.3197 63.3011 76.465 63.304 76.6322C63.3068 76.7994 63.3695 76.9428 63.4902 77.0578ZM69.5655 80.8363C70.8497 81.3084 72.2033 81.6361 73.6072 81.7995C73.8779 81.8308 74.1277 81.6836 74.2313 81.4319C75.8783 77.4111 77.4874 73.8966 78.5484 74.4352C78.1115 74.0742 77.4665 73.5689 76.8804 73.2013C75.657 72.4328 74.4735 73.3913 72.8065 75.14C71.4273 76.5866 70.2789 78.1131 69.2473 79.9843C69.1599 80.1429 69.1476 80.3139 69.2103 80.483C69.2739 80.653 69.3955 80.7736 69.5646 80.8354L69.5655 80.8363ZM76.7978 81.8859C79.0395 81.7463 81.1691 81.1887 83.1078 80.2911C83.2788 80.2123 83.3927 80.0726 83.4383 79.8903C83.483 79.7069 83.4459 79.5312 83.331 79.3821C82.4543 78.2451 81.2783 76.9485 80.0568 75.7802C78.8429 74.6185 78.3917 74.3098 77.4276 76.6066C76.8311 78.0285 76.377 79.7449 76.1671 81.203C76.1405 81.3873 76.1937 81.5573 76.32 81.695C76.4464 81.8318 76.6116 81.8983 76.7978 81.8869V81.8859Z" fill="#084F2C"/>
<path d="M78.2464 51.4741L78.1856 65.5578L77.3089 65.555L76.8368 65.5531L75.9591 65.5502H75.487L74.5115 65.5455H74.0394L73.0639 65.5407H72.5918L71.6163 65.536H71.1442L70.1687 65.5322L69.6966 65.5303L68.7211 65.5274L68.249 65.5255L67.2735 65.5227L66.8014 65.5208H66.8005L66.3066 65.5189H65.8259L65.3538 65.516H65.1952L64.7032 65.5141H64.3783L63.9062 65.5113L62.9307 65.5084L62.4586 65.5065L61.6361 65.5037H61.4831L61.011 65.5018L60.0355 65.498H60.0289L59.5634 65.4961L57.8708 65.4913C57.8622 65.3574 57.8556 65.2235 57.8499 65.0895C57.8394 64.8407 57.8347 64.5927 57.8347 64.3458C57.9154 62.9713 57.828 60.5482 57.8138 58.0994C57.81 57.2683 57.8138 56.4334 57.8366 55.6374C57.8432 55.4056 57.8508 55.1777 57.8613 54.9525L59.5634 54.6676L59.9861 54.5963L60.0355 54.5878L61.011 54.4244L61.4831 54.3446L61.6361 54.319L62.4586 54.1812L62.9307 54.1024L63.9062 53.939L64.3783 53.8592L64.6576 53.8127L65.1534 53.7291L65.3538 53.6959L65.8259 53.6161L66.3066 53.5353L66.8005 53.4527H66.8014L67.2735 53.371L68.249 53.2019L68.7211 53.1202L69.6966 52.9521L70.1687 52.8704L71.1442 52.7014L71.6163 52.6206L72.5918 52.4515L73.0639 52.3698L74.0394 52.2017L74.5115 52.12L75.487 51.951L75.9591 51.8693L76.8368 51.7173L77.3089 51.6365L78.2464 51.4741Z" fill="#1C734A"/>
<path d="M93.2751 64.7314L82.6718 65.4932L81.0627 65.5017L78.1855 65.5568L78.2454 51.4731L81.0228 52.2055L82.6718 52.6586L93.4376 55.5965L93.2751 64.7314Z" fill="#084F2C" stroke="#084F2C" stroke-width="0.143585" stroke-miterlimit="10"/>
<path d="M93.4377 55.5964C93.4377 58.9656 93.4006 62.2331 93.2743 64.7313C93.1926 66.366 93.0729 67.672 92.9029 68.4623C92.8544 68.6875 92.8012 68.8708 92.7443 69.0076C91.384 74.0362 88.2039 77.6713 84.2781 79.7952C82.0307 81.012 79.5401 81.732 77.0068 81.9381C74.6379 82.13 72.2338 81.8716 69.9569 81.144C65.9105 79.8522 62.2696 77.0814 59.9567 72.7339C59.2282 71.3851 58.681 69.947 58.3248 68.4614C58.056 67.3453 57.8965 66.2016 57.8499 65.0476C57.8395 64.7996 57.8347 64.5508 57.8347 64.3038C57.9155 62.9294 57.8281 60.5062 57.8148 58.0575C57.811 57.2263 57.8148 56.3924 57.8366 55.5954C57.887 53.8334 58.0256 52.2528 58.3562 51.2868C59.0752 48.5208 60.2227 46.3665 61.6902 44.6919C61.9714 44.3708 62.2649 44.0678 62.5689 43.781C62.9707 43.402 63.3924 43.0524 63.8312 42.7304C71.3865 37.1794 84.1565 39.649 93.3731 39.2007C93.337 39.8295 93.3322 41.0814 93.3417 42.7304C93.3607 46.0265 93.4367 50.9107 93.4367 55.5964H93.4377Z" stroke="#084F2C" stroke-width="2.53" stroke-miterlimit="10"/>
<path d="M78.3416 50.8451L77.2996 51.0199L76.8276 51.0997L75.9499 51.2469L75.4778 51.3267L74.5023 51.4901L74.0302 51.5699L73.0547 51.7333L72.5826 51.8131L71.6071 51.9764L71.135 52.0562L70.1595 52.2196L69.6874 52.2994L68.7119 52.4637L68.2398 52.5426L67.2643 52.7069L66.7922 52.7857L65.8167 52.95L65.3446 53.0289L64.3691 53.1932L63.897 53.2721L62.9215 53.4364L62.4494 53.5152L61.4739 53.6795L61.0018 53.7593L60.0263 53.9227L59.5542 54.0025L58.5122 54.1773L58.5749 53.0222C58.6575 52.3374 58.7706 51.7447 58.9263 51.2887C59.1087 50.5877 59.3186 49.9257 59.5542 49.3016C59.7014 48.9093 59.8591 48.5332 60.0263 48.1703C60.3217 47.5282 60.6485 46.9317 61.0018 46.3751C61.1538 46.1357 61.3115 45.9039 61.4739 45.6798C61.7237 45.3331 61.9859 45.0044 62.2594 44.6928C62.3221 44.6216 62.3848 44.5513 62.4494 44.482C62.6033 44.3138 62.76 44.1505 62.9215 43.9918C62.9927 43.9206 63.0659 43.8513 63.139 43.7819C63.3841 43.5502 63.6377 43.3298 63.897 43.1199C64.0518 42.9945 64.2095 42.8729 64.3691 42.7551C64.3795 42.7475 64.3909 42.739 64.4014 42.7314C64.7082 42.5063 65.0226 42.2954 65.3446 42.0959C65.5004 42 65.6571 41.9069 65.8167 41.8166C66.1349 41.6352 66.4598 41.4661 66.7922 41.3075C66.948 41.2325 67.1057 41.1603 67.2643 41.0909C67.289 41.0796 67.3146 41.0691 67.3393 41.0577L68.2398 40.7281L68.7119 40.5552L69.4167 40.2978L69.6874 40.1895L70.1595 40.0005L71.135 39.6101L71.6071 39.422L72.5826 39.0316L73.0547 38.8426L74.0302 38.4522L74.5023 38.2632L75.4778 37.8728L75.9499 37.6847L76.8276 37.3333L77.2996 37.1442L78.2809 36.752L78.3416 50.8451Z" fill="#1C734A"/>
<path d="M78.2454 50.8451L90.6535 54.2893L90.5585 41.9183L78.1855 36.751L78.2454 50.8451Z" fill="#084F2C" stroke="#084F2C" stroke-width="0.143585" stroke-miterlimit="10"/>
<path d="M60.0263 48.1692V53.9216L59.5542 54.0014V49.3005C59.7014 48.9082 59.8591 48.532 60.0263 48.1692Z" fill="#084F2C"/>
<path d="M61.474 45.6802V53.68L61.002 53.7598V46.3755C61.1539 46.1361 61.3116 45.9043 61.474 45.6802Z" fill="#084F2C"/>
<path d="M62.9213 43.9919V53.4365L62.4492 53.5153V44.4821C62.6031 44.3139 62.7598 44.1506 62.9213 43.9919Z" fill="#084F2C"/>
<path d="M64.3691 42.7551V53.1932L63.897 53.2721V43.1199C64.0518 42.9945 64.2095 42.8729 64.3691 42.7551Z" fill="#084F2C"/>
<path d="M65.8168 41.8169V52.9503L65.3447 53.0291V42.0962C65.5005 42.0002 65.6572 41.9071 65.8168 41.8169Z" fill="#084F2C"/>
<path d="M67.2641 41.091V52.707L66.792 52.7858V41.3067C66.9478 41.2316 67.1054 41.1594 67.2641 41.0901V41.091Z" fill="#084F2C"/>
<path d="M68.7118 40.5544V52.4639L68.2397 52.5427V40.7283L68.7118 40.5544Z" fill="#084F2C"/>
<path d="M70.1596 40.0007V52.2198L69.6875 52.2996V40.1898L70.1596 40.0007Z" fill="#084F2C"/>
<path d="M71.6068 39.4219V51.9763L71.1348 52.0561V39.6099L71.6068 39.4219Z" fill="#084F2C"/>
<path d="M73.0546 38.8428V51.7334L72.5825 51.8123V39.0308L73.0546 38.8428Z" fill="#084F2C"/>
<path d="M74.5024 38.2637V51.4906L74.0303 51.5694V38.4527L74.5024 38.2637Z" fill="#084F2C"/>
<path d="M75.9496 37.6848V51.247L75.4775 51.3268V37.8729L75.9496 37.6848Z" fill="#084F2C"/>
<path d="M77.2997 37.144V51.0188L76.8276 51.0995V37.3331L77.2997 37.144Z" fill="#084F2C"/>
</g>
<path d="M99.9434 66L105.063 52H108.123L113.223 66H110.363L106.583 55.08L102.783 66H99.9434ZM102.203 62.82L102.923 60.72H110.043L110.743 62.82H102.203ZM120.402 66.24C119.069 66.24 117.909 65.9467 116.922 65.36C115.936 64.76 115.169 63.9267 114.622 62.86C114.076 61.78 113.802 60.5267 113.802 59.1C113.802 57.66 114.082 56.3933 114.642 55.3C115.202 54.1933 116.009 53.3267 117.062 52.7C118.116 52.0733 119.376 51.76 120.842 51.76C122.482 51.76 123.842 52.1533 124.922 52.94C126.016 53.7267 126.722 54.82 127.042 56.22H124.022C123.822 55.6067 123.449 55.1267 122.902 54.78C122.369 54.42 121.676 54.24 120.822 54.24C119.916 54.24 119.142 54.44 118.502 54.84C117.862 55.24 117.376 55.8 117.042 56.52C116.709 57.24 116.542 58.1 116.542 59.1C116.542 60.1133 116.709 60.9733 117.042 61.68C117.376 62.3867 117.849 62.9267 118.462 63.3C119.089 63.66 119.822 63.84 120.662 63.84C121.889 63.84 122.816 63.5133 123.442 62.86C124.082 62.1933 124.462 61.3333 124.582 60.28H121.142V58.26H127.302V66H124.802L124.602 64.22C124.309 64.66 123.962 65.0333 123.562 65.34C123.176 65.6333 122.722 65.8533 122.202 66C121.682 66.16 121.082 66.24 120.402 66.24ZM129.829 66V52H134.509C136.135 52 137.475 52.2933 138.529 52.88C139.595 53.4533 140.382 54.2667 140.889 55.32C141.409 56.36 141.669 57.5867 141.669 59C141.669 60.4133 141.409 61.6467 140.889 62.7C140.382 63.74 139.602 64.5533 138.549 65.14C137.495 65.7133 136.149 66 134.509 66H129.829ZM132.529 63.68H134.369C135.515 63.68 136.415 63.4933 137.069 63.12C137.735 62.7467 138.209 62.2133 138.489 61.52C138.769 60.8133 138.909 59.9733 138.909 59C138.909 58.0133 138.769 57.1733 138.489 56.48C138.209 55.7733 137.735 55.2333 137.069 54.86C136.415 54.4867 135.515 54.3 134.369 54.3H132.529V63.68ZM145.189 70.4L147.629 64.88H147.029L142.989 55.92H145.929L148.809 62.42L151.409 55.92H154.269L148.049 70.4H145.189ZM155.98 66V55.92H158.36L158.56 57.56C158.866 57 159.3 56.5467 159.86 56.2C160.433 55.8533 161.113 55.68 161.9 55.68C162.74 55.68 163.446 55.8533 164.02 56.2C164.593 56.5467 165.026 57.0533 165.32 57.72C165.626 58.3867 165.78 59.2067 165.78 60.18V66H163.1V60.44C163.1 59.64 162.926 59.0267 162.58 58.6C162.246 58.1733 161.726 57.96 161.02 57.96C160.566 57.96 160.16 58.0667 159.8 58.28C159.453 58.4933 159.18 58.8 158.98 59.2C158.78 59.5867 158.68 60.06 158.68 60.62V66H155.98ZM171.723 66.24C170.883 66.24 170.19 66.1067 169.643 65.84C169.097 65.56 168.69 65.1933 168.423 64.74C168.17 64.2733 168.043 63.76 168.043 63.2C168.043 62.5867 168.197 62.0467 168.503 61.58C168.823 61.1133 169.297 60.7467 169.923 60.48C170.563 60.2133 171.363 60.08 172.323 60.08H174.823C174.823 59.5867 174.757 59.18 174.623 58.86C174.49 58.5267 174.283 58.28 174.003 58.12C173.723 57.96 173.35 57.88 172.883 57.88C172.377 57.88 171.943 57.9933 171.583 58.22C171.237 58.4333 171.023 58.7667 170.943 59.22H168.323C168.39 58.5 168.623 57.88 169.023 57.36C169.437 56.8267 169.977 56.4133 170.643 56.12C171.323 55.8267 172.077 55.68 172.903 55.68C173.85 55.68 174.67 55.84 175.363 56.16C176.057 56.48 176.59 56.94 176.963 57.54C177.337 58.14 177.523 58.88 177.523 59.76V66H175.243L174.943 64.46C174.797 64.7267 174.623 64.9667 174.423 65.18C174.223 65.3933 173.99 65.58 173.723 65.74C173.457 65.9 173.157 66.02 172.823 66.1C172.49 66.1933 172.123 66.24 171.723 66.24ZM172.363 64.16C172.71 64.16 173.017 64.1 173.283 63.98C173.563 63.8467 173.803 63.6733 174.003 63.46C174.203 63.2333 174.357 62.98 174.463 62.7C174.583 62.4067 174.663 62.0933 174.703 61.76V61.74H172.643C172.23 61.74 171.89 61.7933 171.623 61.9C171.37 61.9933 171.183 62.1333 171.063 62.32C170.943 62.5067 170.883 62.72 170.883 62.96C170.883 63.2267 170.943 63.4467 171.063 63.62C171.183 63.7933 171.357 63.9267 171.583 64.02C171.81 64.1133 172.07 64.16 172.363 64.16ZM180.042 66V55.92H182.422L182.642 57.26C182.962 56.78 183.382 56.4 183.902 56.12C184.436 55.8267 185.042 55.68 185.722 55.68C186.229 55.68 186.682 55.7467 187.082 55.88C187.482 56.0133 187.836 56.2067 188.142 56.46C188.462 56.7133 188.722 57.0333 188.922 57.42C189.296 56.8733 189.782 56.4467 190.382 56.14C190.982 55.8333 191.636 55.68 192.342 55.68C193.222 55.68 193.956 55.86 194.542 56.22C195.129 56.5667 195.569 57.0733 195.862 57.74C196.169 58.4067 196.322 59.2267 196.322 60.2V66H193.642V60.44C193.642 59.64 193.482 59.0267 193.162 58.6C192.856 58.1733 192.376 57.96 191.722 57.96C191.296 57.96 190.916 58.0667 190.582 58.28C190.249 58.4933 189.989 58.8 189.802 59.2C189.629 59.6 189.542 60.08 189.542 60.64V66H186.842V60.44C186.842 59.64 186.682 59.0267 186.362 58.6C186.042 58.1733 185.549 57.96 184.882 57.96C184.469 57.96 184.096 58.0667 183.762 58.28C183.442 58.4933 183.189 58.8 183.002 59.2C182.829 59.6 182.742 60.08 182.742 60.64V66H180.042ZM198.93 66V55.92H201.63V66H198.93ZM200.29 54.54C199.81 54.54 199.41 54.4 199.09 54.12C198.784 53.8267 198.63 53.46 198.63 53.02C198.63 52.58 198.784 52.22 199.09 51.94C199.41 51.6467 199.81 51.5 200.29 51.5C200.784 51.5 201.184 51.6467 201.49 51.94C201.81 52.22 201.97 52.58 201.97 53.02C201.97 53.46 201.81 53.8267 201.49 54.12C201.184 54.4 200.784 54.54 200.29 54.54ZM209.239 66.24C208.225 66.24 207.325 66.0133 206.539 65.56C205.752 65.1067 205.139 64.4867 204.699 63.7C204.259 62.9133 204.039 62.0133 204.039 61C204.039 59.96 204.259 59.0467 204.699 58.26C205.139 57.46 205.752 56.8333 206.539 56.38C207.325 55.9133 208.225 55.68 209.239 55.68C210.532 55.68 211.619 56.02 212.499 56.7C213.379 57.38 213.939 58.3133 214.179 59.5H211.319C211.199 59.0333 210.945 58.6667 210.559 58.4C210.185 58.1333 209.739 58 209.219 58C208.752 58 208.332 58.12 207.959 58.36C207.599 58.5867 207.312 58.9267 207.099 59.38C206.899 59.82 206.799 60.3467 206.799 60.96C206.799 61.4267 206.859 61.8467 206.979 62.22C207.099 62.58 207.265 62.8933 207.479 63.16C207.692 63.4133 207.945 63.6067 208.239 63.74C208.545 63.8733 208.872 63.94 209.219 63.94C209.565 63.94 209.879 63.88 210.159 63.76C210.452 63.64 210.699 63.4733 210.899 63.26C211.099 63.0333 211.239 62.76 211.319 62.44H214.179C213.939 63.6 213.372 64.5267 212.479 65.22C211.599 65.9 210.519 66.24 209.239 66.24ZM220.627 66.24C219.707 66.24 218.907 66.0933 218.227 65.8C217.547 65.5067 217.014 65.1 216.627 64.58C216.24 64.06 216.02 63.4733 215.967 62.82H218.647C218.714 63.0733 218.827 63.3067 218.987 63.52C219.147 63.72 219.36 63.88 219.627 64C219.894 64.12 220.214 64.18 220.587 64.18C220.947 64.18 221.24 64.1333 221.467 64.04C221.694 63.9333 221.86 63.7933 221.967 63.62C222.087 63.4467 222.147 63.2667 222.147 63.08C222.147 62.8 222.067 62.5867 221.907 62.44C221.747 62.28 221.514 62.1533 221.207 62.06C220.9 61.9667 220.527 61.8733 220.087 61.78C219.607 61.6867 219.134 61.5733 218.667 61.44C218.214 61.2933 217.807 61.1133 217.447 60.9C217.087 60.6867 216.8 60.4133 216.587 60.08C216.374 59.7467 216.267 59.3333 216.267 58.84C216.267 58.24 216.427 57.7067 216.747 57.24C217.067 56.76 217.534 56.38 218.147 56.1C218.76 55.82 219.5 55.68 220.367 55.68C221.58 55.68 222.54 55.9533 223.247 56.5C223.954 57.0467 224.374 57.8 224.507 58.76H221.967C221.887 58.4533 221.707 58.2133 221.427 58.04C221.16 57.8533 220.8 57.76 220.347 57.76C219.867 57.76 219.5 57.8467 219.247 58.02C218.994 58.1933 218.867 58.42 218.867 58.7C218.867 58.8867 218.947 59.0533 219.107 59.2C219.28 59.3467 219.52 59.4733 219.827 59.58C220.134 59.6733 220.507 59.7667 220.947 59.86C221.72 60.02 222.4 60.2067 222.987 60.42C223.574 60.62 224.034 60.9133 224.367 61.3C224.7 61.6733 224.867 62.22 224.867 62.94C224.867 63.58 224.694 64.1533 224.347 64.66C224 65.1533 223.507 65.54 222.867 65.82C222.24 66.1 221.494 66.24 220.627 66.24Z" fill="#1C734A"/>
<defs>
<clipPath id="clip0_272_17739">
<rect width="43" height="46.9692" fill="white" transform="translate(54 37)"/>
</clipPath>
</defs>
</svg>
