<svg width="80" height="80" viewBox="0 0 80 80" fill="none" xmlns="http://www.w3.org/2000/svg">
<g id="Icon">
<g id="Group">
<g id="Group_2">
<path id="Vector" d="M75.0102 48.8266C72.0422 54.7973 65.8795 58.9013 58.7568 58.9013C48.8235 58.9013 40.7542 50.9146 40.6182 41.0133H47.7568C47.7915 42.6293 48.1782 44.3226 48.9808 46.0213C49.9168 47.9973 51.5088 49.6026 53.4848 50.536C58.3382 52.8293 63.1275 51.72 66.2422 48.8266H75.0102Z" fill="#0073FF"/>
<path id="Vector_2" d="M75.0105 32.0745H66.2425C64.2772 30.2505 61.6478 29.1359 58.7572 29.1359C52.9145 29.1359 48.1358 33.6905 47.7758 39.4425H40.6318C40.7118 37.2959 41.1652 35.0692 42.0532 32.8239C43.7412 28.5492 47.1305 25.1492 51.3998 23.4532C61.4158 19.4719 71.0532 24.1172 75.0105 32.0772V32.0745Z" fill="#0073FF"/>
</g>
<g id="Group_3">
<path id="Vector_3" d="M32.8721 41.0107C32.7414 46.9734 27.8667 51.7654 21.8721 51.7654C15.8774 51.7654 11.0027 46.9734 10.8721 41.0107H3.7334C3.86673 50.9147 11.9361 58.9014 21.8694 58.9014C31.8027 58.9014 39.8747 50.9147 40.0081 41.0107H32.8694H32.8721Z" fill="#0073FF"/>
<path id="Vector_4" d="M39.9546 39.44H3.74658C4.19192 33.3707 6.87457 22 21.8559 22V22.0267L37.0426 33.9787C38.7252 35.3013 39.7866 37.2667 39.9519 39.4027V39.44H39.9546Z" fill="#0073FF"/>
<path id="Vector_5" d="M21.8584 22.0134L22.8184 30.3414C22.9011 31.048 23.2344 31.6747 23.7277 32.128C24.3411 32.6934 25.1917 32.9334 26.0211 32.832C27.1144 32.6987 30.0371 32.3734 32.3384 32.3734C35.2264 32.3734 36.0824 33.2267 36.0824 33.2267C36.0877 33.2267 36.0904 33.2214 36.0877 33.2187C35.6264 32.8507 22.2797 22.3334 21.8691 22.0107C21.8664 22.008 21.8611 22.0107 21.8611 22.016L21.8584 22.0134Z" fill="#82BBFF"/>
</g>
</g>
</g>
</svg>
