<svg width="16" height="16" viewBox="0 0 16 16" fill="none" xmlns="http://www.w3.org/2000/svg">
<g id="Group">
<path id="Vector" d="M12.6344 8.24268C12.5777 10.8281 10.4641 12.9058 7.86484 12.9058C5.26558 12.9058 3.15195 10.8281 3.09529 8.24268H0C0.0578127 12.537 3.55664 16 7.86368 16C12.1707 16 15.6707 12.537 15.7285 8.24268H12.6332H12.6344Z" fill="#00092C"/>
<path id="Vector_2" d="M15.7035 7.5619H0.00390625C0.197001 4.93026 1.36019 0 7.85602 0V0.0115625L14.4409 5.19389C15.1705 5.76739 15.6307 6.61955 15.7024 7.54571V7.5619H15.7035Z" fill="#00092C"/>
<path id="Vector_3" d="M7.85938 0.00579493L8.27562 3.61677C8.31147 3.92318 8.456 4.1949 8.66991 4.39146C8.93585 4.63659 9.30469 4.74065 9.66428 4.69672C10.1383 4.6389 11.4056 4.49784 12.4034 4.49784C13.6557 4.49784 14.0268 4.86784 14.0268 4.86784C14.0291 4.86784 14.0291 4.86437 14.0291 4.86437C13.8291 4.70481 8.04206 0.144545 7.864 0.00463867C7.864 0.00463867 7.86053 0.00463867 7.86053 0.00695118L7.85938 0.00579493Z" fill="#82BBFF"/>
</g>
</svg>
