<svg width="80" height="80" viewBox="0 0 80 80" fill="none" xmlns="http://www.w3.org/2000/svg">
<g id="Icon">
<g id="Group">
<g id="Group_2">
<path id="Vector" d="M75.0107 48.8266C72.0427 54.7973 65.88 58.9013 58.7573 58.9013C48.824 58.9013 40.7547 50.9146 40.6187 41.0133H47.7573C47.792 42.6293 48.1786 44.3226 48.9813 46.0213C49.9173 47.9973 51.5093 49.6026 53.4853 50.536C58.3387 52.8293 63.128 51.72 66.2427 48.8266H75.0107Z" fill="white"/>
<path id="Vector_2" d="M75.0105 32.0745H66.2425C64.2772 30.2505 61.6478 29.1359 58.7572 29.1359C52.9145 29.1359 48.1358 33.6905 47.7758 39.4425H40.6318C40.7118 37.2959 41.1652 35.0692 42.0532 32.8239C43.7412 28.5492 47.1305 25.1492 51.3998 23.4532C61.4158 19.4719 71.0532 24.1172 75.0105 32.0772V32.0745Z" fill="white"/>
</g>
<g id="Group_3">
<path id="Vector_3" d="M32.8721 41.0107C32.7414 46.9734 27.8667 51.7654 21.8721 51.7654C15.8774 51.7654 11.0027 46.9734 10.8721 41.0107H3.7334C3.86673 50.9147 11.9361 58.9014 21.8694 58.9014C31.8027 58.9014 39.8747 50.9147 40.0081 41.0107H32.8694H32.8721Z" fill="white"/>
<path id="Vector_4" d="M39.9546 39.44H3.74658C4.19192 33.3707 6.87457 22 21.8559 22V22.0267L37.0426 33.9787C38.7252 35.3013 39.7866 37.2667 39.9519 39.4027V39.44H39.9546Z" fill="white"/>
<path id="Vector_5" d="M21.8589 22.0134L22.8189 30.3414C22.9015 31.048 23.2349 31.6747 23.7282 32.128C24.3416 32.6934 25.1922 32.9334 26.0215 32.832C27.1149 32.6987 30.0376 32.3734 32.3389 32.3734C35.2269 32.3734 36.0829 33.2267 36.0829 33.2267C36.0882 33.2267 36.0909 33.2214 36.0882 33.2187C35.6269 32.8507 22.2802 22.3334 21.8695 22.0107C21.8669 22.008 21.8616 22.0107 21.8616 22.016L21.8589 22.0134Z" fill="#82BBFF"/>
</g>
</g>
</g>
</svg>
