<svg width="106" height="99" viewBox="0 0 106 99" fill="none" xmlns="http://www.w3.org/2000/svg">
<path id="Frame 17 --&#62; Link" d="M5.5 0C4.94772 0 4.5 0.447715 4.5 1C4.5 1.55228 4.94772 2 5.5 2V0ZM1.5 0C0.947715 0 0.5 0.447715 0.5 1C0.5 1.55228 0.947715 2 1.5 2V0ZM6.5 1C6.5 0.447715 6.05228 0 5.5 0C4.94772 0 4.5 0.447715 4.5 1H6.5ZM5.5 2H7.5V0H5.5V2ZM1.5 2H3.5V0H1.5V2ZM5.5 1C4.5 1 4.5 1.0001 4.5 1.00021C4.5 1.00025 4.5 1.00036 4.5 1.00045C4.5 1.00062 4.5 1.00082 4.5 1.00103C4.5 1.00146 4.5 1.00198 4.5 1.00259C4.5 1.0038 4.50001 1.00536 4.50001 1.00728C4.50003 1.0111 4.50005 1.01632 4.50009 1.02292C4.50017 1.03612 4.50033 1.05486 4.50063 1.07905C4.50123 1.12744 4.50241 1.19764 4.50473 1.28901C4.50936 1.47175 4.51851 1.73918 4.53662 2.08606C4.57285 2.77978 4.6449 3.7915 4.78825 5.07932L6.77598 4.85807C6.63721 3.61139 6.56821 2.63876 6.5339 1.98177C6.51675 1.65328 6.50828 1.40375 6.50409 1.23838C6.50199 1.15569 6.50097 1.09405 6.50047 1.0541C6.50022 1.03413 6.50011 1.01958 6.50005 1.01053C6.50002 1.00601 6.50001 1.00287 6.5 1.00111C6.5 1.00023 6.5 0.999695 6.5 0.99951C6.5 0.999417 6.5 0.999412 6.5 0.999493C6.5 0.999534 6.5 0.999597 6.5 0.999681C6.5 0.999723 6.5 0.999803 6.5 0.999824C6.5 0.999909 6.5 1 5.5 1ZM6.15617 13.1522C6.68161 15.5063 7.37385 18.1343 8.28589 20.9736L10.1901 20.362C9.29778 17.5841 8.62118 15.015 8.10814 12.7165L6.15617 13.1522ZM11.1084 28.6049C12.1026 30.9751 13.2465 33.4348 14.5625 35.9574L16.3357 35.0324C15.0465 32.5611 13.9262 30.152 12.9528 27.8313L11.1084 28.6049ZM18.6113 42.9988C20.0077 45.2135 21.5421 47.4556 23.2283 49.7091L24.8296 48.5109C23.176 46.301 21.6717 44.1028 20.3032 41.9321L18.6113 42.9988ZM28.3242 55.9977C30.0584 57.9782 31.9186 59.9556 33.914 61.9191L35.3168 60.4936C33.357 58.5651 31.5308 56.6237 29.8289 54.6802L28.3242 55.9977ZM39.8764 67.3845C41.873 69.0907 43.982 70.7778 46.2095 72.4384L47.4049 70.835C45.2128 69.2008 43.1386 67.5413 41.1757 65.864L39.8764 67.3845ZM52.8641 77.0797C55.0703 78.5191 57.3768 79.9314 59.788 81.3111L60.7813 79.5752C58.4035 78.2147 56.1303 76.8227 53.957 75.4047L52.8641 77.0797ZM66.9335 85.1435C69.286 86.3252 71.7267 87.4764 74.259 88.5931L75.066 86.7631C72.5639 85.6597 70.1534 84.5228 67.8312 83.3563L66.9335 85.1435ZM81.7303 91.6802C84.1819 92.6282 86.7112 93.5449 89.3203 94.4273L89.9611 92.5328C87.3785 91.6593 84.8762 90.7523 82.4515 89.8148L81.7303 91.6802ZM97.0099 96.8575C99.533 97.6011 102.125 98.3138 104.787 98.9935L105.281 97.0557C102.643 96.3819 100.075 95.6756 97.5753 94.9391L97.0099 96.8575Z" fill="#001D40"/>
</svg>
