<svg width="68" height="112" viewBox="0 0 68 112" fill="none" xmlns="http://www.w3.org/2000/svg">
<path id="Frame 17 --&#62; Link" d="M65.5 0C64.9477 0 64.5 0.447715 64.5 1C64.5 1.55228 64.9477 2 65.5 2V0ZM61.5 0C60.9477 0 60.5 0.447715 60.5 1C60.5 1.55228 60.9477 2 61.5 2V0ZM0.0772234 106.615C-0.135591 107.124 0.105029 107.71 0.614665 107.923L8.91965 111.391C9.42929 111.604 10.015 111.363 10.2278 110.853C10.4406 110.344 10.2 109.758 9.69032 109.545L2.30811 106.463L5.39079 99.0803C5.60361 98.5707 5.36299 97.985 4.85335 97.7722C4.34372 97.5594 3.75806 97.8 3.54524 98.3097L0.0772234 106.615ZM66.5 1C66.5 0.447715 66.0523 0 65.5 0C64.9477 0 64.5 0.447715 64.5 1H66.5ZM65.5 2H67.5V0H65.5V2ZM61.5 2H63.5V0H61.5V2ZM1.38003 107.925C2.67924 107.391 3.9527 106.836 5.20093 106.261L4.36361 104.444C3.14094 105.008 1.89324 105.552 0.619972 106.075L1.38003 107.925ZM12.552 102.481C15.0008 101.085 17.3389 99.6056 19.5711 98.0543L18.4298 96.412C16.2458 97.9297 13.9579 99.3771 11.5612 100.744L12.552 102.481ZM26.1568 93.0262C28.3058 91.2278 30.3404 89.3601 32.2665 87.4357L30.8529 86.0208C28.9673 87.9049 26.9761 89.7327 24.8733 91.4923L26.1568 93.0262ZM37.872 81.3312C39.6734 79.1942 41.3611 77.0088 42.9424 74.7894L41.3136 73.6289C39.7624 75.8058 38.1078 77.9483 36.3428 80.0421L37.872 81.3312ZM47.4812 67.8675C48.9261 65.4709 50.2609 63.0532 51.4941 60.6318L49.7119 59.7242C48.4992 62.1053 47.1874 64.4811 45.7684 66.8349L47.4812 67.8675ZM54.9917 53.1531C56.101 50.5631 57.1032 47.9887 58.0086 45.4511L56.1249 44.779C55.2326 47.2799 54.2453 49.8158 53.1532 52.3657L54.9917 53.1531ZM60.5571 37.5889C61.3613 34.8418 62.0565 32.1692 62.6576 29.6013L60.7102 29.1455C60.117 31.6801 59.4309 34.3172 58.6376 37.027L60.5571 37.5889ZM64.3244 21.5177C64.8555 18.5471 65.2569 15.8059 65.5602 13.3589L63.5754 13.1128C63.2761 15.5272 62.8799 18.233 62.3556 21.1657L64.3244 21.5177ZM66.3372 5.11804C66.4184 3.80952 66.4591 2.78454 66.4795 2.08449C66.4897 1.73445 66.4948 1.46562 66.4974 1.28315C66.4987 1.19192 66.4993 1.12228 66.4997 1.07487C66.4998 1.05117 66.4999 1.03302 66.5 1.02052C66.5 1.01426 66.5 1.00942 66.5 1.006C66.5 1.00429 66.5 1.00293 66.5 1.00193C66.5 1.00143 66.5 1.00102 66.5 1.0007C66.5 1.00054 66.5 1.0004 66.5 1.00028C66.5 1.00022 66.5 1.00015 66.5 1.00012C66.5 1.00006 66.5 1 65.5 1C64.5 1 64.5 0.999952 64.5 0.999909C64.5 0.999902 64.5 0.999865 64.5 0.999852C64.5 0.999825 64.5 0.99982 64.5 0.999837C64.5 0.999872 64.5 0.999996 64.5 1.00021C64.5 1.00063 64.5 1.00141 64.5 1.00255C64.5 1.00482 64.5 1.0085 64.5 1.01359C64.4999 1.02377 64.4999 1.03958 64.4997 1.06092C64.4994 1.10361 64.4988 1.16847 64.4976 1.25485C64.4951 1.42761 64.4902 1.68645 64.4803 2.0262C64.4605 2.70574 64.4208 3.70882 64.341 4.99422L66.3372 5.11804Z" fill="#001D40"/>
</svg>
