<svg width="396" height="55" viewBox="0 0 396 55" fill="none" xmlns="http://www.w3.org/2000/svg">
<path d="M2 5.5C2 4.94772 1.55228 4.5 1 4.5C0.447715 4.5 0 4.94772 0 5.5H2ZM2 1.5C2 0.947715 1.55228 0.5 1 0.5C0.447715 0.5 0 0.947715 0 1.5H2ZM395.669 47.7433C396.079 47.3739 396.113 46.7416 395.743 46.3311L389.723 39.6412C389.353 39.2307 388.721 39.1974 388.311 39.5668C387.9 39.9363 387.867 40.5686 388.236 40.9791L393.588 46.9256L387.641 52.2771C387.231 52.6466 387.197 53.2789 387.567 53.6894C387.936 54.0999 388.569 54.1332 388.979 53.7638L395.669 47.7433ZM1 4.5C0.447715 4.5 0 4.94772 0 5.5C0 6.05228 0.447715 6.5 1 6.5V4.5ZM0 1.5V3.5H2V1.5H0ZM0 5.5V7.5H2V5.5H0ZM1 6.5C2.36359 6.5 3.71773 6.50149 5.06255 6.50446L5.06696 4.50446C3.72066 4.50149 2.36505 4.5 1 4.5V6.5ZM13.0206 6.53982C15.6776 6.55769 18.2973 6.5815 20.8807 6.61111L20.9036 4.61124C18.317 4.58159 15.6942 4.55775 13.034 4.53986L13.0206 6.53982ZM28.883 6.72311C31.5321 6.76705 34.1421 6.81728 36.7141 6.87363L36.7579 4.87411C34.1823 4.81768 31.5688 4.76738 28.9162 4.72339L28.883 6.72311ZM44.7319 7.07232C47.3848 7.14584 49.9964 7.22609 52.5681 7.31286L52.6356 5.314C50.0597 5.22709 47.4442 5.14672 44.7873 5.07309L44.7319 7.07232ZM60.5692 7.60875C63.2342 7.71612 65.8554 7.83072 68.4348 7.95229L68.529 5.95451C65.945 5.83272 63.3192 5.71792 60.6497 5.61037L60.5692 7.60875ZM76.3856 8.35596C79.0669 8.50205 81.7022 8.65589 84.2938 8.81718L84.4181 6.82104C81.8212 6.65943 79.1808 6.50529 76.4944 6.35893L76.3856 8.35596ZM92.162 9.33868C94.8598 9.52861 97.5099 9.7268 100.115 9.93288L100.273 7.93911C97.6618 7.73257 95.006 7.53395 92.3024 7.34362L92.162 9.33868ZM107.971 10.5895C110.648 10.8255 113.279 11.0699 115.865 11.3223L116.059 9.33179C113.467 9.07875 110.83 8.83374 108.147 8.59723L107.971 10.5895ZM123.773 12.1328C126.434 12.4187 129.049 12.713 131.624 13.0154L131.857 11.029C129.276 10.7259 126.654 10.4308 123.986 10.1442L123.773 12.1328ZM139.459 13.9749C142.127 14.3153 144.754 14.6641 147.345 15.0206L147.617 13.0393C145.021 12.6819 142.387 12.3322 139.712 11.991L139.459 13.9749ZM155.192 16.1393C157.832 16.5285 160.438 16.9254 163.015 17.3292L163.325 15.3533C160.742 14.9486 158.13 14.5508 155.484 14.1607L155.192 16.1393ZM170.825 18.5863C173.451 19.0199 176.054 19.46 178.64 19.9059L178.979 17.935C176.389 17.4884 173.782 17.0474 171.151 16.613L170.825 18.5863ZM186.453 21.2778C189.061 21.7431 191.658 22.2135 194.253 22.688L194.613 20.7206C192.016 20.2457 189.415 19.7748 186.804 19.3089L186.453 21.2778ZM202.046 24.1249C204.638 24.6058 207.234 25.0899 209.841 25.5761L210.208 23.6101C207.601 23.1238 205.004 22.6396 202.411 22.1585L202.046 24.1249ZM217.644 27.0295C220.228 27.5093 222.83 27.9904 225.456 28.4718L225.817 26.5046C223.193 26.0235 220.592 25.5428 218.009 25.0631L217.644 27.0295ZM233.249 29.8862C235.819 30.3475 238.418 30.8083 241.051 31.2678L241.395 29.2975C238.766 28.8387 236.17 28.3784 233.602 27.9176L233.249 29.8862ZM248.875 32.6102C251.457 33.0454 254.076 33.4787 256.736 33.9094L257.055 31.9351C254.4 31.5051 251.786 31.0726 249.208 30.6381L248.875 32.6102ZM264.563 35.1491C267.128 35.5462 269.735 35.9406 272.386 36.3315L272.678 34.3529C270.031 33.9627 267.43 33.5691 264.869 33.1726L264.563 35.1491ZM280.266 37.4638C282.849 37.8252 285.476 38.1832 288.149 38.5371L288.412 36.5545C285.743 36.2011 283.121 35.8438 280.543 35.4831L280.266 37.4638ZM295.978 39.5447C298.576 39.8694 301.217 40.1902 303.906 40.5068L304.14 38.5205C301.456 38.2045 298.819 37.8843 296.227 37.5602L295.978 39.5447ZM311.764 41.4042C314.348 41.6904 316.976 41.9725 319.65 42.2504L319.856 40.2611C317.187 39.9837 314.564 39.702 311.984 39.4163L311.764 41.4042ZM327.59 43.0495C330.164 43.3001 332.779 43.5467 335.437 43.7891L335.619 41.7974C332.965 41.5554 330.353 41.3091 327.784 41.0589L327.59 43.0495ZM343.429 44.4935C345.996 44.7121 348.603 44.9268 351.251 45.1374L351.41 43.1437C348.765 42.9334 346.162 42.719 343.598 42.5007L343.429 44.4935ZM359.261 45.7521C361.83 45.9423 364.437 46.1287 367.082 46.3111L367.22 44.3158C364.577 44.1337 361.974 43.9475 359.408 43.7576L359.261 45.7521ZM375.078 46.8422C377.66 47.0074 380.278 47.1688 382.933 47.3263L383.051 45.3298C380.399 45.1725 377.785 45.0113 375.206 44.8463L375.078 46.8422ZM390.887 47.7803C392.231 47.8541 393.585 47.9268 394.947 47.9986L395.053 46.0014C393.691 45.9297 392.339 45.857 390.997 45.7833L390.887 47.7803Z" fill="#001D40"/>
</svg>
