<svg width="67" height="290" viewBox="0 0 67 290" fill="none" xmlns="http://www.w3.org/2000/svg">
<path d="M64.5 0C63.9477 0 63.5 0.447715 63.5 1C63.5 1.55228 63.9477 2 64.5 2V0ZM60.5 0C59.9477 0 59.5 0.447715 59.5 1C59.5 1.55228 59.9477 2 60.5 2V0ZM7.28949 289.704C7.67813 290.096 8.31129 290.099 8.70369 289.711L15.0983 283.377C15.4907 282.989 15.4937 282.356 15.1051 281.963C14.7164 281.571 14.0833 281.568 13.6909 281.956L8.00682 287.586L2.37731 281.902C1.98868 281.509 1.35552 281.506 0.963114 281.895C0.570712 282.284 0.567658 282.917 0.956295 283.309L7.28949 289.704ZM64.5 2H66.5V0H64.5V2ZM60.5 2H62.5V0H60.5V2ZM8.99999 289.005C9.0066 287.634 9.01822 286.276 9.03474 284.931L7.03489 284.906C7.01831 286.256 7.00665 287.619 7.00001 288.995L8.99999 289.005ZM9.19202 277.013C9.26747 274.282 9.36391 271.606 9.48042 268.983L7.48239 268.894C7.36537 271.529 7.26854 274.216 7.19278 276.958L9.19202 277.013ZM9.90261 261.054C10.0706 258.358 10.2605 255.72 10.4713 253.136L8.47793 252.973C8.2661 255.57 8.07524 258.221 7.90648 260.93L9.90261 261.054ZM11.205 245.155C11.4816 242.457 11.7817 239.82 12.1038 237.242L10.1193 236.994C9.79533 239.587 9.49357 242.238 9.21542 244.951L11.205 245.155ZM13.1787 229.379C13.5762 226.707 13.9978 224.099 14.4416 221.55L12.4713 221.207C12.0246 223.772 11.6004 226.397 11.2005 229.085L13.1787 229.379ZM15.9137 213.696C16.4485 211.036 17.0076 208.439 17.5886 205.901L15.6391 205.455C15.0541 208.01 14.4912 210.624 13.953 213.302L15.9137 213.696ZM19.47 198.163C20.1437 195.546 20.8402 192.988 21.5565 190.482L19.6335 189.932C18.9126 192.455 18.2114 195.03 17.5331 197.665L19.47 198.163ZM23.8405 182.857C24.645 180.288 25.4684 177.768 26.3072 175.288L24.4126 174.647C23.5694 177.14 22.7413 179.675 21.9319 182.26L23.8405 182.857ZM28.9334 167.769C29.8404 165.248 30.76 162.759 31.6883 160.292L29.8164 159.587C28.8854 162.062 27.9623 164.56 27.0514 167.092L28.9334 167.769ZM34.5342 152.841C35.4959 150.353 36.4619 147.877 37.4281 145.399L35.5648 144.673C34.5988 147.15 33.6318 149.629 32.6688 152.12L34.5342 152.841ZM40.3225 137.951C41.2774 135.477 42.2278 132.99 43.1693 130.48L41.2967 129.778C40.3581 132.28 39.41 134.761 38.4567 137.23L40.3225 137.951ZM45.9249 122.971C46.8139 120.487 47.6905 117.971 48.5504 115.411L46.6546 114.774C45.7992 117.32 44.927 119.824 44.0419 122.297L45.9249 122.971ZM51.0141 107.793C51.793 105.284 52.5535 102.727 53.2921 100.114L51.3675 99.5696C50.6337 102.165 49.8781 104.706 49.104 107.2L51.0141 107.793ZM55.3686 92.3744C56.0138 89.8336 56.6371 87.237 57.2358 84.5773L55.2847 84.138C54.69 86.7796 54.0709 89.3586 53.4301 91.8821L55.3686 92.3744ZM58.8925 76.7238C59.3998 74.148 59.8838 71.5128 60.3425 68.8125L58.3707 68.4776C57.915 71.1607 57.4341 73.7787 56.9302 76.3373L58.8925 76.7238ZM61.5798 60.9298C61.9519 58.3515 62.3013 55.7149 62.6262 53.0157L60.6405 52.7766C60.3175 55.4604 59.9702 58.0815 59.6003 60.6441L61.5798 60.9298ZM63.494 45.0545C63.7502 42.4375 63.984 39.7633 64.1942 37.0285L62.2001 36.8752C61.991 39.5963 61.7583 42.2567 61.5035 44.8596L63.494 45.0545ZM64.7282 29.0697C64.8779 26.4681 65.0069 23.8134 65.1143 21.1032L63.1159 21.024C63.009 23.7225 62.8805 26.3653 62.7315 28.9548L64.7282 29.0697ZM65.3652 13.0384C65.4246 10.4387 65.4647 7.78965 65.4848 5.08928L63.4849 5.07435C63.4648 7.76468 63.4248 10.4035 63.3658 12.9928L65.3652 13.0384Z" fill="#001D40"/>
</svg>
