<svg width="80" height="20" viewBox="0 0 80 20" fill="none" xmlns="http://www.w3.org/2000/svg">
<path id="Frame 63 --&#62; Frame 61" d="M2.5 18C2.5 17.4477 2.05228 17 1.5 17C0.947715 17 0.5 17.4477 0.5 18H2.5ZM2.5 14C2.5 13.4477 2.05228 13 1.5 13C0.947715 13 0.5 13.4477 0.5 14H2.5ZM1.5 17C0.947715 17 0.5 17.4477 0.5 18C0.5 18.5523 0.947715 19 1.5 19V17ZM0.5 14V16H2.5V14H0.5ZM0.5 18V20H2.5V18H0.5ZM1.5 19C2.83083 19 4.11935 18.9848 5.36829 18.9554L5.32112 16.9559C4.08842 16.985 2.81563 17 1.5 17V19ZM13.115 18.5585C15.8804 18.3333 18.4282 18.028 20.8034 17.6572L20.4948 15.6811C18.1701 16.0441 15.6711 16.3437 12.9527 16.5651L13.115 18.5585ZM28.4178 16.1306C31.0815 15.4724 33.5325 14.7321 35.8712 13.9443L35.2328 12.049C32.9364 12.8225 30.539 13.5463 27.938 14.189L28.4178 16.1306ZM43.1211 11.2926C45.4786 10.3871 47.8187 9.47426 50.2849 8.58553L49.6069 6.70397C47.1155 7.60178 44.7486 8.52507 42.404 9.42553L43.1211 11.2926ZM57.5257 6.22058C59.8054 5.56232 62.2432 4.94492 64.9066 4.38986L64.4986 2.43193C61.7831 2.99785 59.2962 3.62762 56.9709 4.29908L57.5257 6.22058ZM72.3992 3.09893C74.7571 2.77199 77.28 2.49158 79.9971 2.26734L79.8326 0.274118C77.0804 0.50126 74.5207 0.785643 72.1245 1.11788L72.3992 3.09893Z" fill="#001D40"/>
</svg>
