<svg width="155" height="213" viewBox="0 0 155 213" fill="none" xmlns="http://www.w3.org/2000/svg">
<path id="Frame 17 --&#62; Link" d="M152.5 0C151.948 0 151.5 0.447715 151.5 1C151.5 1.55228 151.948 2 152.5 2V0ZM148.5 0C147.948 0 147.5 0.447715 147.5 1C147.5 1.55228 147.948 2 148.5 2V0ZM0.120825 206.523C-0.142338 207.009 0.0379458 207.616 0.523501 207.879L8.43607 212.168C8.92163 212.431 9.52859 212.251 9.79175 211.765C10.0549 211.279 9.87463 210.672 9.38907 210.409L2.35567 206.597L6.16767 199.564C6.43083 199.078 6.25055 198.471 5.76499 198.208C5.27944 197.945 4.67248 198.125 4.40932 198.611L0.120825 206.523ZM153.5 1C153.5 0.447715 153.052 0 152.5 0C151.948 0 151.5 0.447715 151.5 1H153.5ZM152.5 2H154.5V0H152.5V2ZM148.5 2H150.5V0H148.5V2ZM1.28473 207.959C2.60504 207.566 3.91393 207.165 5.21152 206.756L4.60952 204.849C3.32279 205.255 2.02474 205.652 0.715265 206.041L1.28473 207.959ZM12.8621 204.197C15.4422 203.284 17.9752 202.336 20.4618 201.354L19.7276 199.494C17.2633 200.467 14.7527 201.406 12.1949 202.311L12.8621 204.197ZM27.8729 198.273C30.3898 197.171 32.8564 196.035 35.2738 194.865L34.4027 193.065C32.0083 194.224 29.5648 195.349 27.0712 196.44L27.8729 198.273ZM42.4659 191.212C44.872 189.93 47.226 188.614 49.5292 187.267L48.5192 185.541C46.239 186.875 43.9081 188.177 41.5255 189.447L42.4659 191.212ZM56.445 183.03C58.7305 181.565 60.9622 180.068 63.1415 178.541L61.994 176.903C59.837 178.414 57.628 179.896 55.3657 181.346L56.445 183.03ZM69.6841 173.751C71.8503 172.095 73.9606 170.409 76.0164 168.695L74.736 167.159C72.7015 168.854 70.6131 170.523 68.4692 172.163L69.6841 173.751ZM82.108 163.398C84.1251 161.568 86.0851 159.712 87.9898 157.833L86.5852 156.409C84.7002 158.269 82.7604 160.106 80.7643 161.916L82.108 163.398ZM93.6415 152.02C95.4955 150.031 97.2921 148.021 99.0331 145.993L97.5154 144.69C95.7921 146.698 94.0138 148.688 92.1787 150.656L93.6415 152.02ZM104.164 139.764C105.854 137.624 107.487 135.468 109.064 133.299L107.447 132.123C105.885 134.27 104.268 136.405 102.594 138.524L104.164 139.764ZM113.699 126.656C115.211 124.395 116.666 122.125 118.065 119.849L116.362 118.802C114.975 121.056 113.534 123.305 112.036 125.544L113.699 126.656ZM122.166 112.893C123.506 110.521 124.788 108.149 126.015 105.779L124.239 104.859C123.022 107.208 121.752 109.559 120.425 111.909L122.166 112.893ZM129.612 98.5181C130.781 96.0498 131.893 93.5898 132.951 91.1431L131.115 90.3497C130.066 92.7758 128.964 95.215 127.805 97.6619L129.612 98.5181ZM136.034 83.665C137.035 81.1186 137.979 78.5928 138.868 76.0936L136.984 75.4231C136.101 77.9024 135.166 80.4078 134.173 82.9335L136.034 83.665ZM141.455 68.4374C142.294 65.819 143.075 63.2384 143.801 60.7032L141.878 60.1525C141.158 62.6684 140.383 65.2291 139.551 67.8272L141.455 68.4374ZM145.908 52.8963C146.59 50.2033 147.212 47.5753 147.777 45.0225L145.825 44.59C145.263 47.1238 144.647 49.732 143.969 52.4048L145.908 52.8963ZM149.408 37.0914C149.936 34.3145 150.395 31.6543 150.795 29.127L148.82 28.8143C148.423 31.3222 147.967 33.9622 147.443 36.7182L149.408 37.0914ZM151.927 21.1764C152.304 18.1878 152.59 15.4743 152.808 13.0754L150.816 12.8945C150.6 15.2714 150.316 17.9618 149.942 20.9262L151.927 21.1764ZM153.374 5.0711C153.437 3.75952 153.468 2.74541 153.484 2.05738C153.492 1.71336 153.496 1.45085 153.498 1.27343C153.499 1.18472 153.499 1.11728 153.5 1.07156C153.5 1.0487 153.5 1.03127 153.5 1.01933C153.5 1.01335 153.5 1.00875 153.5 1.00553C153.5 1.00392 153.5 1.00265 153.5 1.00173C153.5 1.00127 153.5 1.00089 153.5 1.0006C153.5 1.00046 153.5 1.00034 153.5 1.00024C153.5 1.00019 153.5 1.00013 153.5 1.0001C153.5 1.00005 153.5 1 152.5 1C151.5 1 151.5 0.999962 151.5 0.99993C151.5 0.999926 151.5 0.9999 151.5 0.999892C151.5 0.999878 151.5 0.999885 151.5 0.999914C151.5 0.999972 151.5 1.00012 151.5 1.00035C151.5 1.00081 151.5 1.00161 151.5 1.00276C151.5 1.00506 151.5 1.00874 151.5 1.01378C151.5 1.02387 151.5 1.03943 151.5 1.06042C151.5 1.10238 151.499 1.16603 151.498 1.25091C151.496 1.42067 151.492 1.67535 151.485 2.01139C151.469 2.68347 151.438 3.68092 151.376 4.97517L153.374 5.0711Z" fill="#001D40"/>
</svg>
