<svg width="81" height="23" viewBox="0 0 81 23" fill="none" xmlns="http://www.w3.org/2000/svg">
<path id="Frame 61 --&#62; Frame 64" d="M2.75 5C2.75 4.44772 2.30228 4 1.75 4C1.19772 4 0.75 4.44772 0.75 5H2.75ZM2.75 1C2.75 0.447715 2.30228 0 1.75 0C1.19772 0 0.75 0.447715 0.75 1H2.75ZM1.75 4C1.19772 4 0.75 4.44772 0.75 5C0.75 5.55228 1.19772 6 1.75 6V4ZM0.75 1V3H2.75V1H0.75ZM0.75 5V7H2.75V5H0.75ZM1.75 6C3.0654 6 4.33804 6.01311 5.57067 6.03861L5.61203 4.03904C4.36512 4.01324 3.07868 4 1.75 4V6ZM13.2047 6.38271C15.9275 6.5785 18.4303 6.84433 20.7586 7.16832L21.0342 5.1874C18.6599 4.857 16.1129 4.58667 13.3482 4.38786L13.2047 6.38271ZM28.229 8.51251C30.8476 9.09715 33.2593 9.76036 35.5684 10.4766L36.1609 8.56636C33.808 7.83655 31.3436 7.15865 28.6648 6.56057L28.229 8.51251ZM42.784 12.9369C45.131 13.7876 47.5102 14.6753 50.0075 15.5539L50.6712 13.6673C48.1845 12.7924 45.8368 11.9161 43.4656 11.0566L42.784 12.9369ZM57.3497 17.9489C59.6608 18.6341 62.1325 19.2964 64.8305 19.9186L65.2799 17.9698C62.6247 17.3575 60.1928 16.7058 57.9182 16.0314L57.3497 17.9489ZM72.4037 21.4356C74.7847 21.8447 77.3275 22.222 80.0609 22.56L80.3064 20.5751C77.603 20.2408 75.0913 19.8681 72.7424 19.4645L72.4037 21.4356Z" fill="#001D40"/>
</svg>
