<svg width="80" height="37" viewBox="0 0 80 37" fill="none" xmlns="http://www.w3.org/2000/svg">
<path id="Frame 56 --&#62; Frame 62" d="M2 35C2 34.4477 1.55228 34 1 34C0.447715 34 0 34.4477 0 35H2ZM2 31C2 30.4477 1.55228 30 1 30C0.447715 30 0 30.4477 0 31H2ZM1 34C0.447715 34 0 34.4477 0 35C0 35.5523 0.447715 36 1 36V34ZM0 31V33H2V31H0ZM0 35V37H2V35H0ZM1 36C2.44838 36 3.84762 35.9613 5.20113 35.8864L5.09063 33.8895C3.77513 33.9623 2.41276 34 1 34V36ZM13.5523 34.8836C16.4856 34.323 19.1738 33.5689 21.6715 32.662L20.989 30.7821C18.5909 31.6528 16.0054 32.3786 13.1769 32.9192L13.5523 34.8836ZM29.3259 29.1521C31.8317 27.7555 34.1511 26.2167 36.3711 24.6071L35.1972 22.9879C33.0222 24.5648 30.7709 26.0571 28.3522 27.4051L29.3259 29.1521ZM42.9572 19.5272C45.1017 17.817 47.2302 16.1111 49.4524 14.4633L48.2611 12.8568C46.0049 14.5299 43.8466 16.2598 41.7102 17.9636L42.9572 19.5272ZM56.2325 9.91628C58.4826 8.58647 60.8802 7.36 63.4952 6.28582L62.7352 4.43582C60.0215 5.55055 57.5381 6.82154 55.2149 8.19448L56.2325 9.91628ZM71.2074 3.77337C73.6829 3.16221 76.3455 2.67823 79.232 2.34887L79.0053 0.361763C76.0366 0.70049 73.2896 1.19928 70.728 1.83167L71.2074 3.77337Z" fill="#001D40"/>
</svg>
