<svg width="645" height="40" viewBox="0 0 645 40" fill="none" xmlns="http://www.w3.org/2000/svg">
<path d="M5.5 37.5C4.94772 37.5 4.5 37.9477 4.5 38.5C4.5 39.0523 4.94772 39.5 5.5 39.5V37.5ZM1.5 37.5C0.947715 37.5 0.5 37.9477 0.5 38.5C0.5 39.0523 0.947715 39.5 1.5 39.5V37.5ZM644.707 8.70676C645.098 8.31604 645.097 7.68288 644.707 7.29255L638.34 0.931708C637.949 0.541376 637.316 0.541686 636.925 0.932402C636.535 1.32312 636.535 1.95628 636.926 2.34662L642.586 8.00069L636.932 13.6603C636.541 14.051 636.542 14.6842 636.932 15.0745C637.323 15.4649 637.956 15.4646 638.347 15.0738L644.707 8.70676ZM4.5 38.5C4.5 39.0523 4.94772 39.5 5.5 39.5C6.05228 39.5 6.5 39.0523 6.5 38.5H4.5ZM5.5 39.5H7.5V37.5H5.5V39.5ZM1.5 39.5H3.5V37.5H1.5V39.5ZM5.5 38.5C6.5 38.5 6.5 38.5017 6.49999 38.5035C6.49999 38.5041 6.49998 38.5058 6.49998 38.507C6.49996 38.5093 6.49994 38.5115 6.4999 38.5138C6.49984 38.5184 6.49974 38.5229 6.49962 38.5274C6.49937 38.5363 6.499 38.545 6.49852 38.5536C6.49756 38.5706 6.49617 38.5869 6.49443 38.6022C6.49096 38.633 6.48617 38.6598 6.48094 38.6827C6.4704 38.7289 6.45865 38.7565 6.4544 38.7656C6.44623 38.7831 6.47105 38.7211 6.60145 38.5875C6.86989 38.3125 7.52217 37.7992 9.00905 37.1076L8.16561 35.2942C6.56516 36.0385 5.67378 36.6747 5.17038 37.1903C4.91487 37.4521 4.74673 37.6955 4.64207 37.9198C4.58959 38.0322 4.55372 38.1385 4.53112 38.2375C4.51986 38.2868 4.51205 38.3336 4.50707 38.3777C4.50459 38.3997 4.50282 38.421 4.50167 38.4414C4.5011 38.4516 4.50068 38.4616 4.5004 38.4714C4.50027 38.4762 4.50017 38.4811 4.5001 38.4859C4.50007 38.4882 4.50004 38.4906 4.50002 38.493C4.50002 38.4941 4.50001 38.4959 4.50001 38.4965C4.5 38.4982 4.5 38.5 5.5 38.5ZM16.4249 34.5514C18.5388 33.9681 21.0831 33.3445 24.1446 32.6889L23.7258 30.7332C20.633 31.3955 18.0503 32.0282 15.893 32.6234L16.4249 34.5514ZM32.0216 31.149C34.4185 30.7186 37.0355 30.2786 39.8927 29.8309L39.5831 27.855C36.7125 28.3048 34.0808 28.7472 31.6681 29.1805L32.0216 31.149ZM47.8021 28.6612C50.2578 28.3177 52.8573 27.9709 55.6089 27.6215L55.357 25.6375C52.5974 25.9878 49.9896 26.3358 47.5251 26.6805L47.8021 28.6612ZM63.5238 26.6598C66.116 26.3581 68.8247 26.0551 71.655 25.7512L71.4415 23.7626C68.6055 24.0671 65.8909 24.3708 63.2925 24.6732L63.5238 26.6598ZM79.4185 24.9468C82.0168 24.6869 84.7068 24.4267 87.4916 24.1665L87.3056 22.1752C84.5165 22.4358 81.8222 22.6964 79.2194 22.9568L79.4185 24.9468ZM95.3575 23.4543C97.9765 23.2244 100.672 22.9948 103.446 22.7656L103.282 20.7724C100.504 21.0019 97.8051 21.2318 95.1826 21.462L95.3575 23.4543ZM111.29 22.1355C113.961 21.9267 116.7 21.7186 119.508 21.5111L119.36 19.5165C116.549 19.7242 113.808 19.9326 111.134 20.1415L111.29 22.1355ZM127.251 20.9532C129.889 20.7679 132.584 20.5833 135.338 20.3995L135.205 18.4039C132.449 18.5879 129.751 18.7727 127.111 18.9582L127.251 20.9532ZM143.318 19.8795C145.899 19.7154 148.528 19.5521 151.207 19.3895L151.086 17.3932C148.405 17.5558 145.774 17.7193 143.191 17.8836L143.318 19.8795ZM159.391 18.9044C161.97 18.7551 164.593 18.6065 167.26 18.4588L167.149 16.4619C164.481 16.6097 161.857 16.7583 159.276 16.9077L159.391 18.9044ZM175.185 18.0293C177.87 17.887 180.596 17.7456 183.366 17.605L183.265 15.6076C180.493 15.7482 177.765 15.8897 175.079 16.0321L175.185 18.0293ZM191.276 17.2121C193.869 17.086 196.499 16.9606 199.165 16.8362L199.072 14.8384C196.404 14.9629 193.773 15.0883 191.179 15.2145L191.276 17.2121ZM207.275 16.4655C209.942 16.3461 212.645 16.2275 215.384 16.1099L215.298 14.1117C212.558 14.2294 209.854 14.348 207.186 14.4675L207.275 16.4655ZM223.187 15.7812C225.82 15.6725 228.485 15.5646 231.182 15.4576L231.103 13.4592C228.405 13.5662 225.739 13.6742 223.105 13.7829L223.187 15.7812ZM239.37 15.1392C241.992 15.0394 244.644 14.9403 247.325 14.8421L247.252 12.8434C244.569 12.9417 241.917 13.0408 239.294 13.1407L239.37 15.1392ZM255.177 14.5599C257.823 14.4667 260.496 14.3743 263.198 14.2827L263.13 12.2838C260.427 12.3754 257.753 12.4679 255.107 12.5612L255.177 14.5599ZM271.389 14.0106C274.02 13.9249 276.678 13.84 279.362 13.756L279.299 11.7569C276.614 11.841 273.956 11.9259 271.324 12.0117L271.389 14.0106ZM287.203 13.515C289.841 13.4355 292.505 13.3567 295.193 13.2788L295.135 11.2796C292.446 11.3576 289.782 11.4364 287.143 11.5159L287.203 13.515ZM303.332 13.0474C306.029 12.9723 308.75 12.898 311.497 12.8245L311.443 10.8252C308.696 10.8987 305.974 10.973 303.276 11.0482L303.332 13.0474ZM319.284 12.62C321.901 12.5525 324.541 12.4859 327.202 12.4199L327.153 10.4206C324.491 10.4865 321.851 10.5532 319.232 10.6206L319.284 12.62ZM335.253 12.2245C337.958 12.1601 340.686 12.0965 343.436 12.0337L343.391 10.0343C340.64 10.0971 337.911 10.1607 335.205 10.2251L335.253 12.2245ZM351.476 11.8539C354.063 11.7972 356.67 11.7412 359.296 11.6859L359.253 9.68629C356.627 9.74161 354.02 9.79763 351.432 9.85435L351.476 11.8539ZM367.232 11.5221C369.897 11.4682 372.582 11.4151 375.287 11.3627L375.248 9.36307C372.543 9.41548 369.857 9.46863 367.192 9.52251L367.232 11.5221ZM383.46 11.2077C386.141 11.158 388.84 11.109 391.559 11.0607L391.524 9.06102C388.804 9.10931 386.104 9.15833 383.423 9.20807L383.46 11.2077ZM399.366 10.925C401.985 10.8804 404.622 10.8365 407.277 10.7933L407.244 8.79358C404.589 8.8368 401.952 8.88071 399.332 8.92528L399.366 10.925ZM415.293 10.6657C417.983 10.6239 420.69 10.5827 423.416 10.5423L423.386 8.54252C420.66 8.58297 417.952 8.62412 415.262 8.66597L415.293 10.6657ZM431.645 10.4231C434.252 10.3862 436.876 10.35 439.516 10.3144L439.489 8.31462C436.849 8.3502 434.224 8.38643 431.616 8.42329L431.645 10.4231ZM447.369 10.2111C450.003 10.1773 452.652 10.1442 455.317 10.1116L455.293 8.11179C452.627 8.14431 449.978 8.17748 447.344 8.21129L447.369 10.2111ZM463.359 10.016C466.056 9.98481 468.769 9.95425 471.497 9.92435L471.476 7.92447C468.747 7.95437 466.034 7.98494 463.336 8.01616L463.359 10.016ZM479.731 9.83665C482.33 9.80976 484.944 9.78347 487.572 9.75777L487.552 7.75787C484.924 7.78357 482.31 7.80986 479.71 7.83676L479.731 9.83665ZM495.429 9.68315C498.062 9.65888 500.71 9.6352 503.372 9.61213L503.354 7.61221C500.692 7.63528 498.044 7.65896 495.411 7.68324L495.429 9.68315ZM511.399 9.54476C514.09 9.52291 516.794 9.50168 519.513 9.48107L519.498 7.48113C516.779 7.50174 514.074 7.52298 511.383 7.54482L511.399 9.54476ZM527.713 9.42112C530.368 9.40242 533.035 9.38431 535.717 9.36679L535.704 7.36683C533.022 7.38435 530.354 7.40247 527.699 7.42117L527.713 9.42112ZM543.545 9.31757C546.168 9.30172 548.803 9.28644 551.451 9.27172L551.44 7.27175C548.791 7.28647 546.156 7.30176 543.533 7.3176L543.545 9.31757ZM559.433 9.22928C562.107 9.21571 564.794 9.20271 567.493 9.19029L567.484 7.19031C564.784 7.20273 562.097 7.21573 559.423 7.22931L559.433 9.22928ZM575.631 9.15478C578.357 9.14353 581.095 9.13286 583.847 9.12278L583.84 7.1228C581.088 7.13287 578.349 7.14354 575.623 7.1548L575.631 9.15478ZM591.756 9.09557C594.36 9.08719 596.974 9.07933 599.601 9.07201L599.595 7.07201C596.969 7.07934 594.353 7.0872 591.75 7.09559L591.756 9.09557ZM607.515 9.05162C610.165 9.04536 612.826 9.03963 615.5 9.03444L615.496 7.03444C612.822 7.03963 610.161 7.04536 607.51 7.05163L607.515 9.05162ZM623.554 9.0205C626.251 9.01639 628.959 9.01283 631.679 9.00982L631.677 7.00983C628.957 7.01284 626.248 7.0164 623.551 7.0205L623.554 9.0205ZM639.876 9.00244C641.248 9.00149 642.623 9.00068 644 9L644 7C642.621 7.00068 641.246 7.00149 639.874 7.00245L639.876 9.00244Z" fill="#001D40"/>
</svg>
