<svg width="383" height="162" viewBox="0 0 383 162" fill="none" xmlns="http://www.w3.org/2000/svg">
<path d="M2 5.5C2 4.94772 1.55228 4.5 1 4.5C0.447715 4.5 0 4.94772 0 5.5H2ZM2 1.5C2 0.947715 1.55228 0.5 1 0.5C0.447715 0.5 0 0.947715 0 1.5H2ZM376.517 161.876C377.001 162.142 377.609 161.966 377.876 161.483L382.22 153.6C382.486 153.117 382.31 152.509 381.827 152.242C381.343 151.975 380.735 152.151 380.468 152.635L376.607 159.642L369.6 155.78C369.117 155.514 368.509 155.69 368.242 156.173C367.975 156.657 368.151 157.265 368.635 157.532L376.517 161.876ZM1 4.5C0.447715 4.5 0 4.94772 0 5.5C0 6.05228 0.447715 6.5 1 6.5V4.5ZM0 1.5V3.5H2V1.5H0ZM0 5.5V7.5H2V5.5H0ZM1 5.5C1 6.5 0.99999 6.5 0.999986 6.5C0.999992 6.5 0.999993 6.5 1 6.5C1.00003 6.5 1.00007 6.5 1.00013 6.5C1.00026 6.5 1.00047 6.5 1.00076 6.5C1.00135 6.5 1.00227 6.5 1.00353 6.5C1.00603 6.5 1.00987 6.5 1.01503 6.50001C1.02536 6.50002 1.04098 6.50004 1.06186 6.50008C1.10362 6.50016 1.16642 6.50032 1.24993 6.50064C1.41695 6.50128 1.66684 6.50256 1.99703 6.50513C2.6574 6.51027 3.63898 6.52055 4.92129 6.54114L4.9534 4.5414C3.6654 4.52072 2.67831 4.51037 2.01259 4.50519C1.67973 4.5026 1.42721 4.5013 1.25759 4.50065C1.17278 4.50033 1.1087 4.50016 1.06566 4.50008C1.04414 4.50004 1.02788 4.50002 1.01693 4.50001C1.01145 4.50001 1.0073 4.5 1.00447 4.5C1.00306 4.5 1.00198 4.5 1.00124 4.5C1.00086 4.5 1.00057 4.5 1.00037 4.5C1.00027 4.5 1.00018 4.5 1.00012 4.5C1.00009 4.5 1.00006 4.5 1.00005 4.5C1.00002 4.5 1 4.5 1 5.5ZM12.7314 6.72309C15.0814 6.79271 17.755 6.88406 20.7255 7.0039L20.8061 5.00553C17.8282 4.88538 15.1474 4.79379 12.7907 4.72397L12.7314 6.72309ZM28.6638 7.36231C31.1681 7.48707 33.8178 7.62988 36.6024 7.79335L36.7197 5.79678C33.9289 5.63296 31.2733 5.48983 28.7634 5.36478L28.6638 7.36231ZM44.5932 8.29701C47.1721 8.47063 49.8424 8.66101 52.5975 8.86979L52.7486 6.87551C49.9878 6.6663 47.3119 6.47551 44.7275 6.30153L44.5932 8.29701ZM60.4402 9.49634C63.0362 9.71438 65.6952 9.9483 68.4125 10.1992L68.5964 8.2077C65.8734 7.95625 63.209 7.72185 60.6076 7.50335L60.4402 9.49634ZM76.3359 10.964C78.922 11.2244 81.5533 11.5 84.2264 11.7916L84.4434 9.80345C81.7646 9.51116 79.1277 9.23497 76.5363 8.97402L76.3359 10.964ZM92.1995 12.696C94.7792 12.9998 97.3925 13.3184 100.037 13.6527L100.287 11.6685C97.6376 11.3335 95.0186 11.0141 92.4334 10.7097L92.1995 12.696ZM108.008 14.6964C110.586 15.0456 113.19 15.4098 115.817 15.7894L116.103 13.81C113.47 13.4295 110.86 13.0645 108.276 12.7145L108.008 14.6964ZM123.749 16.9735C126.333 17.3715 128.935 17.7845 131.554 18.2132L131.877 16.2395C129.252 15.8097 126.643 15.3957 124.054 14.9969L123.749 16.9735ZM139.453 19.546C142.036 19.9949 144.632 20.4592 147.24 20.9396L147.602 18.9726C144.987 18.4911 142.385 18.0256 139.795 17.5755L139.453 19.546ZM155.097 22.4289C157.678 22.9323 160.268 23.4516 162.865 23.9873L163.269 22.0285C160.665 21.4914 158.068 20.9707 155.48 20.4659L155.097 22.4289ZM170.67 25.6426C173.248 26.2047 175.832 26.7833 178.418 27.3789L178.867 25.4299C176.273 24.8326 173.682 24.2523 171.096 23.6885L170.67 25.6426ZM186.168 29.213C188.739 29.8382 191.311 30.4805 193.883 31.1406L194.38 29.2034C191.8 28.5412 189.22 27.8968 186.641 27.2697L186.168 29.213ZM201.574 33.1691C204.133 33.8621 206.688 34.5732 209.24 35.3027L209.789 33.3797C207.229 32.6476 204.664 31.9341 202.097 31.2387L201.574 33.1691ZM216.868 37.5441C219.408 38.3105 221.941 39.0959 224.465 39.9006L225.073 37.9951C222.538 37.1871 219.995 36.3988 217.446 35.6294L216.868 37.5441ZM232.023 42.3766C234.536 43.2228 237.039 44.089 239.53 44.9755L240.201 43.0913C237.699 42.2008 235.185 41.3309 232.661 40.4811L232.023 42.3766ZM247.004 47.7111C249.484 48.6446 251.95 49.5992 254.4 50.5753L255.14 48.7173C252.678 47.7364 250.2 46.7772 247.709 45.8394L247.004 47.7111ZM261.771 53.5994C264.211 54.6298 266.632 55.6826 269.034 56.7584L269.851 54.9332C267.437 53.8513 265.002 52.7928 262.549 51.757L261.771 53.5994ZM276.271 60.1009C278.663 61.24 281.032 62.4031 283.377 63.5908L284.281 61.8067C281.921 60.6114 279.537 59.441 277.131 58.2952L276.271 60.1009ZM290.436 67.2839C292.768 68.5438 295.072 69.8298 297.346 71.1423L298.346 69.4102C296.055 68.088 293.735 66.7929 291.387 65.5243L290.436 67.2839ZM304.18 75.2247C306.434 76.6188 308.655 78.0411 310.84 79.4921L311.946 77.826C309.743 76.3627 307.504 74.9288 305.232 73.5236L304.18 75.2247ZM317.389 84.0061C319.544 85.548 321.658 87.1204 323.73 88.7239L324.954 87.1421C322.862 85.5229 320.727 83.9357 318.553 82.3797L317.389 84.0061ZM329.918 93.7124C331.944 95.4149 333.923 97.1503 335.853 98.9194L337.204 97.4451C335.253 95.6561 333.252 93.9017 331.205 92.1814L329.918 93.7124ZM341.583 104.419C343.445 106.293 345.253 108.202 347.005 110.147L348.491 108.808C346.717 106.838 344.886 104.905 343.001 103.009L341.583 104.419ZM352.159 116.179C353.819 118.23 355.418 120.319 356.953 122.447L358.575 121.277C357.018 119.118 355.396 117 353.714 114.92L352.159 116.179ZM361.394 128.996C362.807 131.218 364.153 133.48 365.428 135.783L367.178 134.815C365.883 132.475 364.516 130.178 363.082 127.923L361.394 128.996ZM369.035 142.808C370.16 145.179 371.212 147.591 372.189 150.045L374.047 149.305C373.054 146.811 371.985 144.36 370.842 141.951L369.035 142.808ZM374.87 157.471C375.279 158.729 375.669 159.998 376.039 161.278L377.961 160.722C377.584 159.421 377.188 158.132 376.772 156.853L374.87 157.471Z" fill="#001D40"/>
</svg>
