<svg width="21" height="192" viewBox="0 0 21 192" fill="none" xmlns="http://www.w3.org/2000/svg">
<path id="Frame 17 --&#62; Link" d="M5.5 0C4.94772 0 4.5 0.447715 4.5 1C4.5 1.55228 4.94772 2 5.5 2V0ZM1.5 0C0.947715 0 0.5 0.447715 0.5 1C0.5 1.55228 0.947715 2 1.5 2V0ZM13.4364 191.826C13.8926 192.137 14.5148 192.02 14.8261 191.564L19.8983 184.129C20.2095 183.673 20.092 183.051 19.6358 182.739C19.1795 182.428 18.5574 182.546 18.2461 183.002L13.7375 189.61L7.129 185.102C6.67278 184.79 6.05061 184.908 5.73936 185.364C5.42811 185.82 5.54563 186.443 6.00185 186.754L13.4364 191.826ZM6.5 1C6.5 0.447715 6.05228 0 5.5 0C4.94772 0 4.5 0.447715 4.5 1H6.5ZM5.5 2H7.5V0H5.5V2ZM1.5 2H3.5V0H1.5V2ZM5.5 1C4.5 1 4.5 1.00001 4.5 1.00002C4.5 1.00003 4.5 1.00005 4.5 1.00007C4.5 1.00012 4.5 1.00019 4.5 1.00028C4.5 1.00045 4.5 1.00071 4.5 1.00106C4.5 1.00175 4.5 1.00278 4.5 1.00414C4.5 1.00687 4.5 1.01094 4.5 1.01636C4.5 1.02718 4.50001 1.04336 4.50002 1.06484C4.50003 1.1078 4.50006 1.17195 4.50012 1.25686C4.50025 1.42667 4.5005 1.67947 4.50099 2.01171C4.50199 2.67617 4.50397 3.65833 4.50794 4.9296L6.50793 4.92336C6.50396 3.65322 6.50198 2.67214 6.50099 2.00872C6.5005 1.67701 6.50025 1.42471 6.50012 1.2554C6.50006 1.17074 6.50003 1.10683 6.50002 1.06412C6.50001 1.04276 6.5 1.0267 6.5 1.016C6.5 1.01064 6.5 1.00663 6.5 1.00396C6.5 1.00263 6.5 1.00163 6.5 1.00097C6.5 1.00064 6.5 1.00039 6.5 1.00023C6.5 1.00015 6.5 1.00009 6.5 1.00005C6.5 1.00003 6.5 1.00002 6.5 1.00001C6.5 1 6.5 1 5.5 1ZM4.54445 12.8275C4.55849 15.1835 4.57697 17.8476 4.60129 20.7796L6.60123 20.763C6.57692 17.8327 6.55845 15.1701 6.54441 12.8155L4.54445 12.8275ZM4.67595 28.728C4.70239 31.2524 4.73282 33.9092 4.76781 36.6812L6.76765 36.656C6.73268 33.8855 6.70227 31.2301 6.67584 28.7071L4.67595 28.728ZM4.87624 44.595C4.91429 47.1682 4.95618 49.8161 5.00231 52.5274L7.00202 52.4934C6.95592 49.7836 6.91405 47.1372 6.87603 44.5654L4.87624 44.595ZM5.14652 60.4651C5.19688 63.0691 5.25116 65.718 5.30967 68.4031L7.3092 68.3595C7.25072 65.6762 7.19648 63.0289 7.14614 60.4264L5.14652 60.4651ZM5.49289 76.3402C5.55689 78.963 5.62503 81.6109 5.69755 84.2763L7.69681 84.2219C7.62434 81.5585 7.55625 78.9124 7.49229 76.2914L5.49289 76.3402ZM5.92539 92.2118C6.0052 94.8497 6.08948 97.4971 6.17848 100.147L8.17735 100.08C8.08843 97.4323 8.00422 94.7871 7.92447 92.1513L5.92539 92.2118ZM6.45937 108.081C6.55822 110.733 6.66207 113.38 6.77116 116.015L8.76945 115.933C8.66048 113.301 8.55674 110.656 8.45798 108.007L6.45937 108.081ZM7.11772 123.948C7.24059 126.615 7.36923 129.262 7.50392 131.88L9.50128 131.777C9.36679 129.163 9.23832 126.52 9.1156 123.856L7.11772 123.948ZM7.936 139.81C8.09095 142.494 8.2529 145.139 8.42216 147.735L10.4179 147.605C10.249 145.014 10.0874 142.374 9.93268 139.694L7.936 139.81ZM8.97338 155.651C9.17464 158.357 9.38498 160.993 9.60483 163.549L11.5975 163.377C11.3784 160.83 11.1686 158.202 10.9679 155.503L8.97338 155.651ZM10.3474 171.497C10.6295 174.271 10.9253 176.918 11.2355 179.418L13.2202 179.172C12.9121 176.688 12.618 174.057 12.3372 171.295L10.3474 171.497ZM12.3397 187.282C12.5591 188.652 12.7849 189.955 13.0174 191.186L14.9826 190.814C14.7541 189.605 14.5314 188.32 14.3146 186.966L12.3397 187.282Z" fill="#001D40"/>
</svg>
