<svg width="103" height="87" viewBox="0 0 103 87" fill="none" xmlns="http://www.w3.org/2000/svg">
<path id="Frame 17 --&#62; Link" d="M2 5.5C2 4.94772 1.55228 4.5 1 4.5C0.447715 4.5 0 4.94772 0 5.5H2ZM2 1.5C2 0.947715 1.55228 0.5 1 0.5C0.447715 0.5 0 0.947715 0 1.5H2ZM1 4.5C0.447715 4.5 0 4.94772 0 5.5C0 6.05228 0.447715 6.5 1 6.5V4.5ZM0 1.5V3.5H2V1.5H0ZM0 5.5V7.5H2V5.5H0ZM1 6.5C2.3692 6.5 3.70101 6.5422 4.99743 6.6246L5.12429 4.62862C3.78445 4.54347 2.41032 4.5 1 4.5V6.5ZM12.8669 7.68896C15.5479 8.25944 18.0645 9.0244 20.4416 9.96029L21.1743 8.09933C18.6943 7.12292 16.0718 6.32614 13.2831 5.73276L12.8669 7.68896ZM27.5286 13.4655C29.801 14.8334 31.9466 16.3734 33.9955 18.0587L35.266 16.5141C33.1496 14.7732 30.9244 13.1753 28.56 11.752L27.5286 13.4655ZM39.8397 23.4806C41.6713 25.3717 43.4386 27.3735 45.1693 29.4613L46.7091 28.1849C44.9527 26.0662 43.1509 24.0246 41.2763 22.0891L39.8397 23.4806ZM50.1458 35.7803C51.7466 37.899 53.3361 40.0694 54.9405 42.272L56.5571 41.0944C54.9516 38.8904 53.3535 36.7082 51.7415 34.5746L50.1458 35.7803ZM59.715 48.8082C61.3071 50.9645 62.9337 53.1285 64.6152 55.2778L66.1904 54.0455C64.5243 51.9158 62.9095 49.7677 61.324 47.6203L59.715 48.8082ZM69.769 61.5722C71.5282 63.6129 73.3598 65.621 75.2832 67.577L76.7092 66.1747C74.8205 64.254 73.0185 62.2786 71.2838 60.2663L69.769 61.5722ZM81.236 73.1714C83.2709 74.9299 85.4078 76.6227 87.6638 78.2324L88.8255 76.6044C86.6231 75.0329 84.5348 73.3789 82.5437 71.6582L81.236 73.1714ZM94.5442 82.6456C96.858 83.9712 99.2869 85.211 101.845 86.3518L102.659 84.5252C100.164 83.4122 97.7949 82.2029 95.5384 80.9102L94.5442 82.6456Z" fill="#001D40"/>
</svg>
