<svg width="171" height="53" viewBox="0 0 171 53" fill="none" xmlns="http://www.w3.org/2000/svg">
<path id="Frame 17 --&#62; Link" d="M2 50.5C2 49.9477 1.55228 49.5 1 49.5C0.447715 49.5 0 49.9477 0 50.5H2ZM2 46.5C2 45.9477 1.55228 45.5 1 45.5C0.447715 45.5 0 45.9477 0 46.5H2ZM170.717 8.69714C171.102 8.30118 171.093 7.66808 170.697 7.28306L164.245 1.00884C163.849 0.623826 163.216 0.632692 162.831 1.02865C162.446 1.4246 162.454 2.0577 162.85 2.44272L168.586 8.0198L163.009 13.7553C162.624 14.1513 162.633 14.7844 163.029 15.1694C163.425 15.5544 164.058 15.5455 164.443 15.1496L170.717 8.69714ZM1 49.5C0.447715 49.5 0 49.9477 0 50.5C0 51.0523 0.447715 51.5 1 51.5V49.5ZM0 46.5V48.5H2V46.5H0ZM0 50.5V52.5H2V50.5H0ZM1 51.5C2.38209 51.5 3.74183 51.489 5.07995 51.4673L5.04756 49.4676C3.72041 49.4891 2.37146 49.5 1 49.5V51.5ZM13.1124 51.1991C15.879 51.057 18.5473 50.8663 21.1253 50.6309L20.9434 48.6392C18.3926 48.8721 15.7507 49.0609 13.0098 49.2017L13.1124 51.1991ZM29.0933 49.7267C31.8601 49.3488 34.5172 48.9164 37.0766 48.4354L36.7072 46.4698C34.181 46.9446 31.5569 47.3716 28.8226 47.7451L29.0933 49.7267ZM44.9506 46.737C47.6457 46.0783 50.23 45.3647 52.7217 44.6051L52.1385 42.692C49.6818 43.441 47.1335 44.1446 44.4758 44.7942L44.9506 46.737ZM60.3575 42.0437C62.941 41.0982 65.4319 40.1074 67.8551 39.0837L67.0768 37.2414C64.6801 38.2538 62.2197 39.2325 59.6702 40.1655L60.3575 42.0437ZM75.1973 35.8096C77.6445 34.6669 80.0451 33.5016 82.4272 32.3291L81.544 30.5347C79.1679 31.7042 76.7809 32.8628 74.3511 33.9974L75.1973 35.8096ZM89.6049 28.7766C91.9787 27.6052 94.3639 26.4411 96.7923 25.2977L95.9404 23.4882C93.4958 24.6392 91.0982 25.8094 88.7198 26.9832L89.6049 28.7766ZM104.054 22.0217C106.445 20.9964 108.9 20.0018 111.443 19.0492L110.741 17.1763C108.166 18.141 105.682 19.1475 103.266 20.1835L104.054 22.0217ZM118.957 16.4576C121.407 15.6854 123.948 14.9558 126.598 14.2772L126.102 12.3397C123.415 13.0276 120.839 13.7673 118.356 14.5501L118.957 16.4576ZM134.349 12.5108C136.87 12.0052 139.488 11.5451 142.216 11.1362L141.92 9.15828C139.16 9.57196 136.509 10.0378 133.955 10.5499L134.349 12.5108ZM150.084 10.1371C152.632 9.86951 155.272 9.64444 158.01 9.46575L157.879 7.47C155.116 7.65035 152.45 7.87763 149.875 8.14808L150.084 10.1371ZM165.968 9.08896C167.294 9.04891 168.643 9.0191 170.014 8.9999L169.986 7.0001C168.604 7.01945 167.245 7.04949 165.907 7.08987L165.968 9.08896Z" fill="#001D40"/>
</svg>
