<svg width="108" height="74" viewBox="0 0 108 74" fill="none" xmlns="http://www.w3.org/2000/svg">
<path d="M0 34.4248C0 15.5492 15.3017 0.247559 34.1772 0.247559H73.8228C92.6983 0.247559 108 15.5492 108 34.4248V73.3868H34.1772C15.3017 73.3868 0 58.0851 0 39.2096V34.4248Z" fill="#0F9D58"/>
<path d="M67.4375 32.7859C68.8625 32.7841 70.2286 32.2172 71.2362 31.2096C72.2439 30.202 72.8107 28.8359 72.8125 27.4109V23.3796H68.7812C67.4054 23.3817 66.0834 23.914 65.09 24.8658C64.3938 23.6027 63.3719 22.5493 62.1304 21.8153C60.889 21.0813 59.4735 20.6934 58.0312 20.6921H54V24.7234C54.0025 26.8609 54.8527 28.9102 56.3642 30.4217C57.8757 31.9332 59.925 32.7834 62.0625 32.7859H63.4062V50.2546H47.2812V43.5359H48.625C50.05 43.5341 51.4161 42.9672 52.4237 41.9596C53.4314 40.952 53.9982 39.5859 54 38.1609V34.1296H49.9688C48.5929 34.1317 47.2709 34.664 46.2775 35.6158C45.5813 34.3527 44.5594 33.2993 43.3179 32.5653C42.0765 31.8313 40.661 31.4434 39.2188 31.4421H35.1875V35.4734C35.19 37.6109 36.0402 39.6602 37.5517 41.1717C39.0632 42.6832 41.1125 43.5334 43.25 43.5359H44.5938V50.2546H35.1875V52.9421H72.8125V50.2546H66.0938V32.7859H67.4375ZM66.0938 28.7546C66.0945 28.0421 66.3778 27.3589 66.8817 26.8551C67.3855 26.3512 68.0687 26.0679 68.7812 26.0671H70.125V27.4109C70.1243 28.1234 69.8409 28.8066 69.3371 29.3105C68.8332 29.8143 68.1501 30.0977 67.4375 30.0984H66.0938V28.7546ZM47.2812 39.5046C47.282 38.7921 47.5653 38.1089 48.0692 37.6051C48.573 37.1012 49.2562 36.8179 49.9688 36.8171H51.3125V38.1609C51.3118 38.8734 51.0284 39.5566 50.5246 40.0605C50.0207 40.5643 49.3376 40.8477 48.625 40.8484H47.2812V39.5046ZM44.5938 40.8484H43.25C41.825 40.8466 40.4589 40.2797 39.4513 39.2721C38.4436 38.2645 37.8768 36.8984 37.875 35.4734V34.1296H39.2188C40.6437 34.1314 42.0099 34.6983 43.0175 35.7059C44.0251 36.7135 44.592 38.0796 44.5938 39.5046V40.8484ZM63.4062 30.0984H62.0625C60.6375 30.0966 59.2714 29.5297 58.2638 28.5221C57.2561 27.5145 56.6893 26.1484 56.6875 24.7234V23.3796H58.0312C59.4562 23.3814 60.8224 23.9483 61.83 24.9559C62.8376 25.9635 63.4045 27.3296 63.4062 28.7546V30.0984Z" fill="white"/>
</svg>
