<svg width="108" height="74" viewBox="0 0 108 74" fill="none" xmlns="http://www.w3.org/2000/svg">
<path d="M0 34.4248C0 15.5492 15.3017 0.247559 34.1772 0.247559H73.8228C92.6983 0.247559 108 15.5492 108 34.4248V73.3868H34.1772C15.3017 73.3868 0 58.0851 0 39.2096V34.4248Z" fill="#0F9D58"/>
<path d="M61.4847 52.6062C59.1468 53.7187 56.5891 54.2927 54 54.2859C44.368 54.2859 36.5313 46.4491 36.5313 36.8171C36.5313 32.6851 37.9516 28.7829 40.5625 25.6533V28.7546H43.25V20.6921H35.1875V23.3796H39.0065C35.6749 27.0612 33.8343 31.8519 33.8438 36.8171C33.8438 47.9313 42.8859 56.9734 54 56.9734C56.989 56.981 59.9416 56.3179 62.6403 55.033L61.4847 52.6062Z" fill="white"/>
<path d="M60.7188 27.4109C56.4725 27.4109 52.9895 30.7125 52.6858 34.8821C51.2085 33.5343 49.2811 32.7867 47.2812 32.7859H41.9062V38.1609C41.9062 42.6074 45.5236 46.2234 49.9688 46.2234H52.6562V51.5984H55.3438V40.8484H58.0312C62.4764 40.8484 66.0938 37.2324 66.0938 32.7859V27.4109H60.7188ZM49.9688 43.5359C47.0044 43.5359 44.5938 41.1252 44.5938 38.1609V35.4734H47.2812C50.2456 35.4734 52.6562 37.8841 52.6562 40.8484V41.6358L49.575 38.5546L47.675 40.4547L50.7562 43.5359H49.9688ZM63.4062 32.7859C63.4062 35.7502 60.9956 38.1609 58.0312 38.1609H57.2438L60.325 35.0797L58.425 33.1796L55.3438 36.2608V35.4734C55.3438 32.5091 57.7544 30.0984 60.7188 30.0984H63.4062V32.7859Z" fill="white"/>
<path d="M74.1562 36.8171C74.1562 25.7029 65.1141 16.6608 53.9999 16.6608C51.011 16.6532 48.0583 17.3163 45.3596 18.6012L46.5152 21.028C48.8532 19.9155 51.4108 19.3416 53.9999 19.3483C63.6319 19.3483 71.4687 27.1851 71.4687 36.8171C71.4687 40.9491 70.0483 44.8514 67.4374 47.981V44.8796H64.7499V52.9421H72.8124V50.2546H68.9935C72.3251 46.573 74.1657 41.7823 74.1562 36.8171Z" fill="white"/>
</svg>
