<svg width="25" height="24" viewBox="0 0 25 24" fill="none" xmlns="http://www.w3.org/2000/svg">
<g id="ph:sparkle" clip-path="url(#clip0_0_7355)">
<path id="Vector" d="M19.4861 12.3096L14.6476 10.5283L12.8664 5.68614C12.7609 5.39958 12.5701 5.15226 12.3196 4.97757C12.0691 4.80287 11.7711 4.70921 11.4658 4.70921C11.1604 4.70921 10.8624 4.80287 10.6119 4.97757C10.3615 5.15226 10.1706 5.39958 10.0651 5.68614L8.28201 10.5227L3.43983 12.304C3.15326 12.4094 2.90595 12.6003 2.73125 12.8507C2.55656 13.1012 2.46289 13.3992 2.46289 13.7046C2.46289 14.0099 2.55656 14.308 2.73125 14.5584C2.90595 14.8089 3.15326 14.9997 3.43983 15.1052L8.27545 16.8977L10.0567 21.7371C10.1622 22.0236 10.353 22.271 10.6035 22.4457C10.8539 22.6203 11.152 22.714 11.4573 22.714C11.7627 22.714 12.0607 22.6203 12.3112 22.4457C12.5616 22.271 12.7525 22.0236 12.858 21.7371L14.6392 16.8986L19.4814 15.1174C19.768 15.0119 20.0153 14.8211 20.19 14.5706C20.3647 14.3201 20.4583 14.0221 20.4583 13.7168C20.4583 13.4114 20.3647 13.1134 20.19 12.8629C20.0153 12.6125 19.768 12.4216 19.4814 12.3161L19.4861 12.3096ZM14.1245 15.4915C13.9218 15.5658 13.7378 15.6835 13.5851 15.8361C13.4325 15.9888 13.3148 16.1728 13.2405 16.3755L11.4592 21.1999L9.6817 16.3718C9.60726 16.1702 9.49002 15.9871 9.33805 15.8351C9.18608 15.6831 9.003 15.5659 8.80139 15.4915L3.97701 13.7102L8.80139 11.929C9.003 11.8545 9.18608 11.7373 9.33805 11.5853C9.49002 11.4333 9.60726 11.2502 9.6817 11.0486L11.463 6.22427L13.2442 11.0486C13.3186 11.2513 13.4362 11.4354 13.5889 11.588C13.7415 11.7407 13.9256 11.8583 14.1283 11.9327L18.9526 13.714L14.1245 15.4915ZM14.463 3.96021C14.463 3.76129 14.542 3.57053 14.6826 3.42988C14.8233 3.28922 15.014 3.21021 15.213 3.21021H16.713V1.71021C16.713 1.51129 16.792 1.32053 16.9326 1.17987C17.0733 1.03922 17.264 0.960205 17.463 0.960205C17.6619 0.960205 17.8526 1.03922 17.9933 1.17987C18.1339 1.32053 18.213 1.51129 18.213 1.71021V3.21021H19.713C19.9119 3.21021 20.1026 3.28922 20.2433 3.42988C20.3839 3.57053 20.463 3.76129 20.463 3.96021C20.463 4.15912 20.3839 4.34988 20.2433 4.49054C20.1026 4.63119 19.9119 4.71021 19.713 4.71021H18.213V6.21021C18.213 6.40912 18.1339 6.59988 17.9933 6.74053C17.8526 6.88119 17.6619 6.96021 17.463 6.96021C17.264 6.96021 17.0733 6.88119 16.9326 6.74053C16.792 6.59988 16.713 6.40912 16.713 6.21021V4.71021H15.213C15.014 4.71021 14.8233 4.63119 14.6826 4.49054C14.542 4.34988 14.463 4.15912 14.463 3.96021ZM24.213 8.46021C24.213 8.65912 24.1339 8.84988 23.9933 8.99053C23.8526 9.13119 23.6619 9.21021 23.463 9.21021H22.713V9.96021C22.713 10.1591 22.6339 10.3499 22.4933 10.4905C22.3526 10.6312 22.1619 10.7102 21.963 10.7102C21.764 10.7102 21.5733 10.6312 21.4326 10.4905C21.292 10.3499 21.213 10.1591 21.213 9.96021V9.21021H20.463C20.264 9.21021 20.0733 9.13119 19.9326 8.99053C19.792 8.84988 19.713 8.65912 19.713 8.46021C19.713 8.26129 19.792 8.07053 19.9326 7.92988C20.0733 7.78922 20.264 7.71021 20.463 7.71021H21.213V6.96021C21.213 6.76129 21.292 6.57053 21.4326 6.42988C21.5733 6.28922 21.764 6.21021 21.963 6.21021C22.1619 6.21021 22.3526 6.28922 22.4933 6.42988C22.6339 6.57053 22.713 6.76129 22.713 6.96021V7.71021H23.463C23.6619 7.71021 23.8526 7.78922 23.9933 7.92988C24.1339 8.07053 24.213 8.26129 24.213 8.46021Z" fill="black"/>
</g>
<defs>
<clipPath id="clip0_0_7355">
<rect width="24" height="24" fill="white" transform="translate(0.5)"/>
</clipPath>
</defs>
</svg>
