<svg width="80" height="80" viewBox="0 0 80 80" fill="none" xmlns="http://www.w3.org/2000/svg">
<g id="trust" clip-path="url(#clip0_1005_21577)">
<g id="trust_2">
<g id="Group">
<path id="Vector" d="M59.2901 57.6764C58.1926 57.6764 57.0939 57.2851 56.2089 56.5001L44.8664 46.4351L46.2476 44.8776L57.5901 54.9426C58.5839 55.8226 60.0639 55.8064 61.0364 54.9014C61.5451 54.4276 61.8351 53.7889 61.8551 53.0989C61.8764 52.4101 61.6251 51.7564 61.1501 51.2564L42.5139 31.7014L39.5839 31.1589L35.1026 38.3214C33.9014 40.2451 31.5439 41.1376 29.3664 40.4951C27.9939 40.0889 26.8539 39.1201 26.2339 37.8364C25.6139 36.5514 25.5639 35.0564 26.0989 33.7339L30.8214 22.0401C30.9214 21.7926 31.1114 21.5939 31.3539 21.4826L39.6564 17.6876C41.3801 16.9014 43.3389 16.7251 45.1739 17.1914L59.4026 20.8139L58.8889 22.8326L44.6601 19.2101C43.2826 18.8576 41.8139 18.9901 40.5214 19.5826L32.5964 23.2051L28.0289 34.5139C27.7101 35.3051 27.7376 36.1639 28.1089 36.9326C28.4789 37.7014 29.1339 38.2564 29.9526 38.4989C31.2389 38.8801 32.6289 38.3526 33.3376 37.2189L38.1939 29.4551C38.4201 29.0926 38.8401 28.9051 39.2664 28.9839L43.2239 29.7164C43.4389 29.7564 43.6364 29.8639 43.7876 30.0214L62.6551 49.8201C63.5176 50.7251 63.9714 51.9114 63.9351 53.1614C63.8976 54.4114 63.3739 55.5689 62.4589 56.4214C61.5614 57.2564 60.4251 57.6764 59.2901 57.6764Z" fill="#0073FF"/>
</g>
<g id="Group_2">
<path id="Vector_2" d="M67.5471 42.4658L60.0488 48.0396L61.2912 49.711L68.7895 44.1372L67.5471 42.4658Z" fill="#0073FF"/>
</g>
<g id="Group_3">
<path id="Vector_3" d="M54.0752 61.1138C52.8514 61.1138 51.6264 60.6788 50.6339 59.8051L42.3477 52.5063L43.7239 50.9438L52.0102 58.2426C53.2327 59.3201 55.0452 59.2851 56.2264 58.1626L58.6327 55.8751L60.0677 57.3838L57.6614 59.6713C56.6514 60.6313 55.3639 61.1138 54.0752 61.1138Z" fill="#0073FF"/>
</g>
<g id="Group_4">
<path id="Vector_4" d="M47.7013 63.4516C46.1513 63.4516 44.6063 62.8841 43.4226 61.7754L41.4863 59.9629L42.9101 58.4429L44.8463 60.2554C46.2613 61.5804 48.4501 61.7454 50.0488 60.6491L52.3751 59.0529L53.5538 60.7704L51.2263 62.3666C50.1663 63.0941 48.9326 63.4516 47.7013 63.4516Z" fill="#0073FF"/>
</g>
<g id="Group_5">
<path id="Vector_5" d="M41.9927 65.8612C40.7614 65.8612 39.5252 65.4975 38.4539 64.7612L37.3789 64.0225L38.5589 62.3062L39.6339 63.045C41.2039 64.1237 43.3014 64.0025 44.7352 62.7475L46.0989 61.5537L47.4702 63.12L46.1064 64.3137C44.9352 65.34 43.4664 65.8612 41.9927 65.8612Z" fill="#0073FF"/>
</g>
<g id="Group_6">
<path id="Vector_6" d="M20.824 22.765L20.5527 20.7013L28.254 19.6875C28.3577 19.6738 28.4627 19.6763 28.5665 19.6938L33.7515 20.5875L33.3977 22.6388L28.369 21.7725L20.824 22.765Z" fill="#0073FF"/>
</g>
<g id="Group_7">
<path id="Vector_7" d="M12.9161 40.4518L11.4434 41.9243L14.8887 45.3701L16.3614 43.8976L12.9161 40.4518Z" fill="#0073FF"/>
</g>
<g id="Group_8">
<path id="Vector_8" d="M35.175 65.675C33.975 65.675 32.7337 65.37 31.7512 64.8625C30.58 64.2562 29.7737 63.4038 29.4 62.41C28.1862 62.9513 26.4087 63.4487 24.9075 62.6925C23.7162 62.0925 22.9862 60.8687 22.7312 59.0487C21.6125 58.9925 19.86 58.6862 18.7012 57.4175C17.8487 56.4837 17.48 55.2413 17.5987 53.715C15.1037 52.96 14.0975 50.4925 14.05 50.3737C14.0087 50.27 13.985 50.1613 13.9787 50.05C13.9487 49.5375 13.76 44.9975 16.1187 43.4462C17.4562 42.5637 19.5075 42.4625 21.2212 43.1962C22.4575 43.7225 23.3775 44.5938 23.9012 45.7075C25.4275 45.2313 27.1362 45.6075 28.5975 46.8013C29.7287 47.725 30.44 48.9363 30.6125 50.1038C31.7975 49.9613 33.135 50.1375 34.1987 50.9788C34.97 51.5888 35.8075 52.7275 35.7575 54.7862C38.4662 55.3875 39.4662 57.2187 39.8287 58.335C40.5425 60.5312 39.8937 63.3075 38.3525 64.6562C37.5362 65.3687 36.3762 65.675 35.175 65.675ZM30.2162 59.7425C30.4012 59.7425 30.5875 59.7912 30.7525 59.8912C31.0987 60.1 31.2937 60.4875 31.2525 60.89C31.1412 61.9663 31.9825 62.6387 32.7075 63.0137C34.1675 63.7687 36.1612 63.8037 36.98 63.09C37.7912 62.38 38.3475 60.5162 37.8475 58.9787C37.4087 57.6287 36.2962 56.8625 34.5412 56.7025C34.2562 56.6762 33.9937 56.5338 33.8175 56.3088C33.6412 56.0838 33.5637 55.7962 33.6062 55.5125C33.7487 54.5537 33.7425 53.2713 32.9075 52.6113C32.0925 51.9688 30.75 52.0638 29.845 52.4263C29.455 52.5813 29.0112 52.4887 28.7175 52.19C28.4237 51.8912 28.3362 51.4462 28.4975 51.0588C28.7862 50.3675 28.2512 49.2062 27.28 48.4125C26.8537 48.0637 25.3475 47.0075 23.8612 48.015C23.57 48.2125 23.2 48.2488 22.875 48.1125C22.5512 47.9763 22.3175 47.6875 22.2537 47.3413C22.015 46.0463 21.1162 45.4125 20.4037 45.11C19.3387 44.6563 18.0187 44.6875 17.2625 45.185C16.2375 45.8587 16.0062 48.4275 16.0487 49.7437C16.2825 50.2212 17.145 51.7113 18.845 51.84C19.1425 51.8625 19.4162 52.0112 19.5962 52.25C19.7762 52.4875 19.8462 52.7912 19.7875 53.0837C19.5212 54.4037 19.6712 55.3875 20.2337 56.0075C21.1137 56.9775 22.9412 57.0263 23.5712 56.9588C23.8562 56.9288 24.1425 57.02 24.3587 57.2062C24.5762 57.3937 24.7075 57.6625 24.72 57.9488C24.7662 59.0275 25 60.4038 25.84 60.83C26.9687 61.4 29.0087 60.335 29.635 59.9162C29.8112 59.8012 30.0137 59.7425 30.2162 59.7425Z" fill="#0073FF"/>
</g>
<g id="Group_9">
<path id="Vector_9" d="M22.4599 46.5103L17.9512 52.2361L19.5874 53.5245L24.0962 47.7987L22.4599 46.5103Z" fill="#0073FF"/>
</g>
<g id="Group_10">
<path id="Vector_10" d="M28.6795 50.7711L22.9043 57.3086L24.4651 58.6874L30.2403 52.1499L28.6795 50.7711Z" fill="#0073FF"/>
</g>
<g id="Group_11">
<path id="Vector_11" d="M33.8447 54.9825L29.4277 60.0999L31.0032 61.4597L35.4202 56.3424L33.8447 54.9825Z" fill="#0073FF"/>
</g>
<g id="Group_12">
<path id="Vector_12" d="M11.3695 44.2364C11.2295 44.2364 11.087 44.2077 10.9507 44.1477L0.621969 39.6027C0.369469 39.4914 0.170719 39.2839 0.070719 39.0264C-0.029281 38.7689 -0.023031 38.4827 0.088219 38.2302L10.4157 14.7602C10.6482 14.2339 11.262 13.9964 11.7882 14.2264L22.117 18.7714C22.3695 18.8827 22.5682 19.0902 22.6682 19.3477C22.7682 19.6052 22.762 19.8914 22.6507 20.1439L12.3232 43.6139C12.1507 44.0039 11.7695 44.2364 11.3695 44.2364ZM2.41322 38.1152L10.8357 41.8214L20.3245 20.2577L11.902 16.5514L2.41322 38.1152Z" fill="#0073FF"/>
</g>
<g id="Group_13">
<path id="Vector_13" d="M68.6312 45.2766C68.2312 45.2766 67.8499 45.0441 67.6774 44.6541L57.3499 21.1854C57.2387 20.9329 57.2324 20.6466 57.3324 20.3891C57.4324 20.1316 57.6312 19.9241 57.8837 19.8129L68.2124 15.2679C68.7387 15.0391 69.3537 15.2754 69.5849 15.8016L79.9124 39.2716C80.0237 39.5241 80.0299 39.8104 79.9299 40.0679C79.8299 40.3254 79.6312 40.5329 79.3787 40.6441L69.0499 45.1891C68.9137 45.2491 68.7712 45.2766 68.6312 45.2766ZM59.6749 21.3004L69.1649 42.8641L77.5874 39.1579L68.0987 17.5941L59.6749 21.3004Z" fill="#0073FF"/>
</g>
</g>
</g>
<defs>
<clipPath id="clip0_1005_21577">
<rect width="80" height="80" fill="white"/>
</clipPath>
</defs>
</svg>
